<?xml version="1.0" encoding="utf-8"?>
<!-- Generator: Adobe Illustrator 16.0.4, SVG Export Plug-In . SVG Version: 6.00 Build 0)  -->
<!DOCTYPE svg PUBLIC "-//W3C//DTD SVG 1.1 Tiny//EN" "http://www.w3.org/Graphics/SVG/1.1/DTD/svg11-tiny.dtd">
<svg version="1.1" baseProfile="tiny" xmlns="http://www.w3.org/2000/svg" xmlns:xlink="http://www.w3.org/1999/xlink" x="0px"
	 y="0px" width="1398.14px" height="939.094px" viewBox="0 0 1398.14 939.094" xml:space="preserve">
<g id="Stafflines">
	
		<line fill="#FFFFFF" stroke="#ABABAB" stroke-width="24" stroke-miterlimit="10" x1="38.882" y1="123.93" x2="1352.882" y2="123.93"/>
	
		<line fill="#FFFFFF" stroke="#ABABAB" stroke-width="24" stroke-miterlimit="10" x1="38.882" y1="373.93" x2="1352.882" y2="373.93"/>
	
		<line fill="#FFFFFF" stroke="#ABABAB" stroke-width="24" stroke-miterlimit="10" x1="38.882" y1="623.93" x2="1352.882" y2="623.93"/>
	
		<line fill="#FFFFFF" stroke="#ABABAB" stroke-width="24" stroke-miterlimit="10" x1="38.882" y1="873.93" x2="1352.882" y2="873.93"/>
</g>
<g id="Layer_3">
	<path fill="none" stroke="#000000" stroke-width="3" stroke-miterlimit="10" d="M81.031,660.174c3,4,6,5,9,5s6-2,6-2
		c30-17,54-44,79-61c89-62,120-123,120-169c0-57-44-93-90-96c-7,0-14,1-21,3c-11,3-23,7-34,14c-6,5-13,14-22,14c-2,0-3,0-5-1
		c-7-3-11-10-11-17c1-22,7-262,7-282c0-11-9-17-19-17c-14,0-30,10-31,28C69.031,79.174,73.031,650.174,81.031,660.174
		L81.031,660.174z M116.031,571.174c0,0-3-60-3-100c0-16,1-28,2-32c4-12,30-34,44-42c9-5,18-7,26-7c10,0,19,4,25,11
		c10,11,16,28,16,47c0,18-5,39-17,60c-13,24-42,56-72,75c-4,2-7,3-10,3C118.031,586.174,116.031,576.174,116.031,571.174z"/>
	<path fill="none" stroke="#000000" stroke-width="3" stroke-miterlimit="10" d="M605.739,303.187l-15,5c-2,0-3,1-4,1
		c0,0-64,23-90,23c-6,0-10-1-10-5c0-17,0-167,0-167c0-7-6-12-12-12h-13c-7,0-12,5-12,12v514.999c0,6,3,9,8,9c1,0,3-1,4-1
		c0,0,2,0,3-1c14-6,70-30,99-30c10,0,17,3,17,11c0,21,0,149,0,149c0,7,5,12,12,12h13c6,0,12-5,12-12V310.187c0-5-4-8-8-8
		C608.739,302.187,606.739,302.187,605.739,303.187L605.739,303.187z M486.739,450.187c0-14,61-40,85-40c6,0,9,1,9,5v102.999
		c0,18-57,41-82,41c-7,0-12-2-12-6V450.187z"/>
</g>
<g id="Annotations">
	<g>
		<path d="M373.049,730.181c-0.701-0.84-1.457-1.449-2.268-1.827c-0.812-0.378-1.708-0.566-2.688-0.566
			c-1.092,0-2.058,0.188-2.898,0.566c-0.84,0.378-1.533,0.903-2.079,1.575s-0.959,1.449-1.239,2.331
			c-0.28,0.882-0.42,1.827-0.42,2.835s0.161,1.953,0.483,2.835c0.322,0.882,0.77,1.659,1.344,2.331
			c0.573,0.672,1.267,1.197,2.079,1.575c0.812,0.378,1.722,0.567,2.73,0.567c2.156,0,3.822-0.812,4.998-2.437l2.436,2.31
			c-0.952,1.093-2.072,1.891-3.36,2.395c-1.288,0.504-2.646,0.756-4.074,0.756c-1.512,0-2.898-0.252-4.158-0.756
			c-1.26-0.504-2.331-1.218-3.213-2.142c-0.882-0.925-1.568-2.017-2.058-3.276c-0.49-1.26-0.735-2.646-0.735-4.158
			c0-1.483,0.245-2.855,0.735-4.116c0.49-1.26,1.183-2.352,2.079-3.275c0.896-0.924,1.967-1.645,3.213-2.163
			c1.246-0.518,2.625-0.777,4.137-0.777c1.456,0,2.835,0.252,4.137,0.756c1.302,0.504,2.443,1.288,3.423,2.353L373.049,730.181z"/>
		<path d="M396.443,740.261c0,0.896,0.027,1.736,0.084,2.521c0.056,0.784,0.084,1.498,0.084,2.142h-3.108
			c0-0.531-0.015-1.063-0.042-1.596c-0.028-0.532-0.042-1.078-0.042-1.639h-0.084c-0.225,0.477-0.54,0.938-0.945,1.387
			c-0.406,0.448-0.889,0.847-1.449,1.196c-0.561,0.351-1.19,0.63-1.89,0.841c-0.7,0.21-1.456,0.314-2.268,0.314
			c-1.288,0-2.401-0.196-3.339-0.588c-0.938-0.392-1.715-0.938-2.331-1.638c-0.616-0.7-1.071-1.547-1.365-2.541
			s-0.441-2.079-0.441-3.255v-12.139h3.276v11.803c0,1.652,0.364,2.954,1.092,3.905c0.728,0.952,1.862,1.429,3.402,1.429
			c1.064,0,1.98-0.183,2.751-0.547c0.77-0.363,1.4-0.882,1.89-1.554c0.49-0.672,0.854-1.47,1.092-2.394
			c0.238-0.925,0.357-1.946,0.357-3.066v-9.576h3.276V740.261z"/>
		<path d="M413.411,728.04h-5.796v9.828c0,0.645,0.014,1.238,0.042,1.784c0.028,0.547,0.14,1.022,0.336,1.429
			c0.196,0.406,0.49,0.729,0.882,0.966c0.392,0.238,0.951,0.357,1.68,0.357c0.476,0,0.966-0.057,1.47-0.169
			c0.504-0.111,0.979-0.279,1.428-0.504l0.126,2.982c-0.56,0.252-1.183,0.434-1.869,0.546c-0.687,0.111-1.337,0.168-1.953,0.168
			c-1.176,0-2.114-0.154-2.814-0.462c-0.7-0.308-1.246-0.741-1.638-1.302c-0.393-0.56-0.651-1.253-0.777-2.079
			s-0.189-1.743-0.189-2.751V728.04h-4.284v-2.772h4.284v-5.586h3.276v5.586h5.796V728.04z"/>
		<path d="M431.849,745.679c-2.268,0-4.347-0.393-6.237-1.176c-1.89-0.783-3.528-1.869-4.914-3.255
			c-1.386-1.386-2.464-3.038-3.234-4.956c-0.771-1.918-1.155-3.997-1.155-6.237c0-2.239,0.384-4.318,1.155-6.237
			c0.77-1.917,1.848-3.569,3.234-4.955c1.386-1.387,3.024-2.472,4.914-3.256c1.89-0.783,3.969-1.176,6.237-1.176
			s4.347,0.393,6.237,1.176c1.89,0.784,3.528,1.869,4.914,3.256c1.386,1.386,2.463,3.038,3.234,4.955
			c0.77,1.919,1.155,3.998,1.155,6.237c0,2.24-0.385,4.319-1.155,6.237c-0.771,1.918-1.848,3.57-3.234,4.956
			c-1.386,1.386-3.024,2.472-4.914,3.255S434.117,745.679,431.849,745.679z M431.849,742.404c1.736,0,3.324-0.322,4.767-0.967
			c1.442-0.644,2.681-1.525,3.717-2.646c1.036-1.12,1.841-2.429,2.415-3.927c0.573-1.498,0.861-3.102,0.861-4.81
			c0-1.707-0.288-3.311-0.861-4.809c-0.574-1.498-1.379-2.807-2.415-3.927c-1.036-1.12-2.275-2.002-3.717-2.646
			c-1.442-0.644-3.031-0.966-4.767-0.966c-1.737,0-3.325,0.322-4.767,0.966c-1.442,0.645-2.682,1.526-3.717,2.646
			c-1.036,1.12-1.841,2.429-2.415,3.927c-0.574,1.498-0.861,3.102-0.861,4.809c0,1.708,0.287,3.312,0.861,4.81
			c0.573,1.498,1.378,2.807,2.415,3.927c1.036,1.12,2.275,2.002,3.717,2.646C428.523,742.082,430.112,742.404,431.849,742.404z"/>
		<path d="M469.606,740.261c0,0.896,0.027,1.736,0.084,2.521c0.056,0.784,0.084,1.498,0.084,2.142h-3.108
			c0-0.531-0.015-1.063-0.042-1.596c-0.028-0.532-0.042-1.078-0.042-1.639h-0.084c-0.225,0.477-0.54,0.938-0.945,1.387
			c-0.406,0.448-0.889,0.847-1.449,1.196c-0.561,0.351-1.19,0.63-1.89,0.841c-0.7,0.21-1.456,0.314-2.268,0.314
			c-1.288,0-2.401-0.196-3.339-0.588c-0.938-0.392-1.715-0.938-2.331-1.638c-0.616-0.7-1.071-1.547-1.365-2.541
			s-0.441-2.079-0.441-3.255v-12.139h3.276v11.803c0,1.652,0.364,2.954,1.092,3.905c0.728,0.952,1.862,1.429,3.402,1.429
			c1.064,0,1.98-0.183,2.751-0.547c0.77-0.363,1.4-0.882,1.89-1.554c0.49-0.672,0.854-1.47,1.092-2.394
			c0.238-0.925,0.357-1.946,0.357-3.066v-9.576h3.276V740.261z"/>
		<path d="M486.574,728.04h-5.796v9.828c0,0.645,0.014,1.238,0.042,1.784c0.028,0.547,0.14,1.022,0.336,1.429
			c0.196,0.406,0.49,0.729,0.882,0.966c0.392,0.238,0.951,0.357,1.68,0.357c0.476,0,0.966-0.057,1.47-0.169
			c0.504-0.111,0.979-0.279,1.428-0.504l0.126,2.982c-0.56,0.252-1.183,0.434-1.869,0.546c-0.687,0.111-1.337,0.168-1.953,0.168
			c-1.176,0-2.114-0.154-2.814-0.462c-0.7-0.308-1.246-0.741-1.638-1.302c-0.393-0.56-0.651-1.253-0.777-2.079
			s-0.189-1.743-0.189-2.751V728.04h-4.284v-2.772h4.284v-5.586h3.276v5.586h5.796V728.04z"/>
		<path d="M505.306,720.437c-0.588-0.951-1.373-1.645-2.352-2.079c-0.98-0.434-2.002-0.65-3.066-0.65
			c-0.784,0-1.554,0.099-2.31,0.294c-0.756,0.196-1.435,0.49-2.037,0.882c-0.603,0.393-1.085,0.91-1.449,1.554
			c-0.364,0.645-0.546,1.4-0.546,2.269c0,0.672,0.105,1.267,0.315,1.785c0.21,0.518,0.553,0.986,1.029,1.406
			c0.476,0.42,1.12,0.812,1.932,1.177c0.812,0.364,1.806,0.729,2.982,1.092c1.147,0.364,2.261,0.756,3.339,1.176
			c1.078,0.42,2.03,0.952,2.856,1.596c0.826,0.645,1.484,1.449,1.974,2.415c0.489,0.966,0.735,2.178,0.735,3.633
			c0,1.485-0.294,2.772-0.882,3.864s-1.365,1.995-2.331,2.709c-0.966,0.714-2.079,1.246-3.339,1.597
			c-1.26,0.35-2.562,0.524-3.906,0.524c-0.868,0-1.736-0.077-2.604-0.23c-0.868-0.154-1.701-0.393-2.499-0.715
			c-0.798-0.321-1.547-0.741-2.247-1.26c-0.7-0.518-1.302-1.154-1.806-1.911l3.024-2.478c0.644,1.092,1.54,1.918,2.688,2.478
			c1.147,0.561,2.366,0.841,3.654,0.841c0.756,0,1.519-0.112,2.289-0.337c0.77-0.224,1.463-0.552,2.079-0.986
			c0.616-0.434,1.12-0.973,1.512-1.617c0.392-0.644,0.588-1.386,0.588-2.226c0-0.925-0.154-1.673-0.462-2.247
			s-0.784-1.071-1.428-1.491c-0.645-0.42-1.456-0.798-2.436-1.134c-0.98-0.336-2.128-0.729-3.444-1.177
			c-1.064-0.336-2.044-0.72-2.94-1.154c-0.896-0.435-1.674-0.967-2.331-1.597c-0.658-0.63-1.176-1.386-1.554-2.268
			s-0.567-1.938-0.567-3.171c0-1.428,0.279-2.674,0.84-3.738c0.56-1.063,1.316-1.953,2.268-2.667
			c0.952-0.714,2.03-1.253,3.234-1.617c1.204-0.363,2.464-0.546,3.78-0.546c1.68,0,3.213,0.26,4.599,0.777
			c1.386,0.519,2.625,1.421,3.717,2.709L505.306,720.437z"/>
		<path d="M511.102,715.187h3.906l6.762,24.696h0.084l7.308-24.696h3.948l7.266,24.696h0.084l6.888-24.696h3.696l-8.736,29.736
			h-3.822l-7.35-25.2h-0.084l-7.392,25.2h-3.864L511.102,715.187z"/>
	</g>
	<g>
		<path d="M530.981,263.223c-0.701-0.84-1.457-1.449-2.268-1.827c-0.812-0.378-1.708-0.566-2.688-0.566
			c-1.092,0-2.058,0.188-2.898,0.566c-0.84,0.378-1.533,0.903-2.079,1.575s-0.959,1.449-1.239,2.331
			c-0.28,0.882-0.42,1.827-0.42,2.835s0.161,1.953,0.483,2.835c0.322,0.882,0.77,1.659,1.344,2.331
			c0.573,0.672,1.267,1.197,2.079,1.575c0.812,0.378,1.722,0.567,2.73,0.567c2.156,0,3.822-0.812,4.998-2.437l2.436,2.31
			c-0.952,1.093-2.072,1.891-3.36,2.395c-1.288,0.504-2.646,0.756-4.074,0.756c-1.512,0-2.898-0.252-4.158-0.756
			c-1.26-0.504-2.331-1.218-3.213-2.142c-0.882-0.925-1.568-2.017-2.058-3.276c-0.49-1.26-0.735-2.646-0.735-4.158
			c0-1.483,0.245-2.855,0.735-4.116c0.49-1.26,1.183-2.352,2.079-3.275c0.896-0.924,1.967-1.645,3.213-2.163
			c1.246-0.518,2.625-0.777,4.137-0.777c1.456,0,2.835,0.252,4.137,0.756c1.302,0.504,2.443,1.288,3.423,2.353L530.981,263.223z"/>
		<path d="M554.375,273.303c0,0.896,0.027,1.736,0.084,2.521c0.056,0.784,0.084,1.498,0.084,2.142h-3.108
			c0-0.531-0.015-1.063-0.042-1.596c-0.028-0.532-0.042-1.078-0.042-1.639h-0.084c-0.225,0.477-0.54,0.938-0.945,1.387
			c-0.406,0.448-0.889,0.847-1.449,1.196c-0.561,0.351-1.19,0.63-1.89,0.841c-0.7,0.21-1.456,0.314-2.268,0.314
			c-1.288,0-2.401-0.196-3.339-0.588c-0.938-0.392-1.715-0.938-2.331-1.638c-0.616-0.7-1.071-1.547-1.365-2.541
			s-0.441-2.079-0.441-3.255v-12.139h3.276v11.803c0,1.652,0.364,2.954,1.092,3.905c0.728,0.952,1.862,1.429,3.402,1.429
			c1.064,0,1.98-0.183,2.751-0.547c0.77-0.363,1.4-0.882,1.89-1.554c0.49-0.672,0.854-1.47,1.092-2.394
			c0.238-0.925,0.357-1.946,0.357-3.066v-9.576h3.276V273.303z"/>
		<path d="M571.343,261.081h-5.796v9.828c0,0.645,0.014,1.238,0.042,1.784c0.028,0.547,0.14,1.022,0.336,1.429
			c0.196,0.406,0.49,0.729,0.882,0.966c0.392,0.238,0.951,0.357,1.68,0.357c0.476,0,0.966-0.057,1.47-0.169
			c0.504-0.111,0.979-0.279,1.428-0.504l0.126,2.982c-0.56,0.252-1.183,0.434-1.869,0.546c-0.687,0.111-1.337,0.168-1.953,0.168
			c-1.176,0-2.114-0.154-2.814-0.462c-0.7-0.308-1.246-0.741-1.638-1.302c-0.393-0.56-0.651-1.253-0.777-2.079
			s-0.189-1.743-0.189-2.751v-10.794h-4.284v-2.772h4.284v-5.586h3.276v5.586h5.796V261.081z"/>
		<path d="M589.781,278.721c-2.268,0-4.347-0.393-6.237-1.176c-1.89-0.783-3.528-1.869-4.914-3.255
			c-1.386-1.386-2.464-3.038-3.234-4.956c-0.771-1.918-1.155-3.997-1.155-6.237c0-2.239,0.384-4.318,1.155-6.237
			c0.77-1.917,1.848-3.569,3.234-4.955c1.386-1.387,3.024-2.472,4.914-3.256c1.89-0.783,3.969-1.176,6.237-1.176
			s4.347,0.393,6.237,1.176c1.89,0.784,3.528,1.869,4.914,3.256c1.386,1.386,2.464,3.038,3.233,4.955
			c0.771,1.919,1.156,3.998,1.156,6.237c0,2.24-0.386,4.319-1.156,6.237c-0.77,1.918-1.848,3.57-3.233,4.956
			s-3.024,2.472-4.914,3.255S592.049,278.721,589.781,278.721z M589.781,275.445c1.736,0,3.324-0.322,4.767-0.967
			c1.442-0.644,2.681-1.525,3.717-2.646c1.035-1.12,1.841-2.429,2.415-3.927c0.573-1.498,0.86-3.102,0.86-4.81
			c0-1.707-0.287-3.311-0.86-4.809c-0.574-1.498-1.38-2.807-2.415-3.927c-1.036-1.12-2.275-2.002-3.717-2.646
			c-1.442-0.644-3.031-0.966-4.767-0.966c-1.737,0-3.325,0.322-4.767,0.966c-1.442,0.645-2.682,1.526-3.717,2.646
			c-1.036,1.12-1.841,2.429-2.415,3.927c-0.574,1.498-0.861,3.102-0.861,4.809c0,1.708,0.287,3.312,0.861,4.81
			c0.573,1.498,1.378,2.807,2.415,3.927c1.036,1.12,2.275,2.002,3.717,2.646C586.456,275.123,588.044,275.445,589.781,275.445z"/>
		<path d="M627.538,273.303c0,0.896,0.027,1.736,0.084,2.521s0.084,1.498,0.084,2.142h-3.107c0-0.531-0.015-1.063-0.042-1.596
			c-0.028-0.532-0.042-1.078-0.042-1.639h-0.084c-0.225,0.477-0.539,0.938-0.945,1.387s-0.889,0.847-1.449,1.196
			c-0.561,0.351-1.189,0.63-1.89,0.841c-0.7,0.21-1.456,0.314-2.269,0.314c-1.287,0-2.4-0.196-3.338-0.588
			c-0.939-0.392-1.716-0.938-2.332-1.638c-0.615-0.7-1.07-1.547-1.365-2.541c-0.293-0.994-0.44-2.079-0.44-3.255v-12.139h3.276
			v11.803c0,1.652,0.363,2.954,1.092,3.905c0.728,0.952,1.861,1.429,3.402,1.429c1.063,0,1.98-0.183,2.75-0.547
			c0.771-0.363,1.4-0.882,1.891-1.554s0.854-1.47,1.092-2.394c0.238-0.925,0.357-1.946,0.357-3.066v-9.576h3.275V273.303z"/>
		<path d="M644.507,261.081h-5.797v9.828c0,0.645,0.014,1.238,0.043,1.784c0.027,0.547,0.139,1.022,0.336,1.429
			c0.195,0.406,0.489,0.729,0.882,0.966c0.392,0.238,0.951,0.357,1.68,0.357c0.476,0,0.966-0.057,1.47-0.169
			c0.504-0.111,0.98-0.279,1.428-0.504l0.127,2.982c-0.561,0.252-1.184,0.434-1.869,0.546c-0.687,0.111-1.338,0.168-1.953,0.168
			c-1.176,0-2.114-0.154-2.814-0.462c-0.699-0.308-1.246-0.741-1.638-1.302c-0.393-0.56-0.651-1.253-0.776-2.079
			c-0.127-0.826-0.189-1.743-0.189-2.751v-10.794h-4.284v-2.772h4.284v-5.586h3.275v5.586h5.797V261.081z"/>
		<path d="M649.126,248.229h4.452l17.22,24.696h0.084v-24.696h3.528v29.736h-4.452l-17.22-24.696h-0.084v24.696h-3.528V248.229z"/>
		<path d="M681.802,248.229h18.69v3.276H685.33v9.324h14.153v3.275H685.33v10.584h15.918v3.276h-19.446V248.229z"/>
	</g>
	<g>
		<path d="M739.471,311.22c-0.7-0.84-1.456-1.449-2.269-1.827s-1.708-0.566-2.688-0.566c-1.092,0-2.059,0.188-2.898,0.566
			s-1.533,0.903-2.078,1.575c-0.547,0.672-0.96,1.449-1.24,2.331c-0.279,0.882-0.42,1.827-0.42,2.835s0.161,1.953,0.483,2.835
			c0.321,0.882,0.771,1.659,1.345,2.331c0.572,0.672,1.266,1.197,2.078,1.575s1.723,0.567,2.73,0.567
			c2.156,0,3.822-0.812,4.998-2.437l2.436,2.31c-0.952,1.093-2.072,1.891-3.359,2.395c-1.289,0.504-2.646,0.756-4.074,0.756
			c-1.512,0-2.898-0.252-4.158-0.756s-2.331-1.218-3.213-2.142c-0.883-0.925-1.568-2.017-2.059-3.276s-0.734-2.646-0.734-4.158
			c0-1.483,0.244-2.855,0.734-4.116c0.49-1.26,1.184-2.352,2.08-3.275c0.895-0.924,1.967-1.645,3.213-2.163
			c1.245-0.518,2.625-0.777,4.137-0.777c1.455,0,2.835,0.252,4.137,0.756c1.303,0.504,2.443,1.288,3.424,2.353L739.471,311.22z"/>
		<path d="M762.864,321.3c0,0.896,0.027,1.736,0.084,2.521c0.056,0.784,0.084,1.498,0.084,2.142h-3.107
			c0-0.531-0.016-1.063-0.043-1.596s-0.041-1.078-0.041-1.639h-0.084c-0.225,0.477-0.54,0.938-0.945,1.387
			c-0.406,0.448-0.89,0.847-1.449,1.196c-0.561,0.351-1.19,0.63-1.891,0.841c-0.699,0.21-1.455,0.314-2.268,0.314
			c-1.288,0-2.401-0.196-3.339-0.588c-0.938-0.392-1.716-0.938-2.331-1.638c-0.616-0.7-1.071-1.547-1.365-2.541
			s-0.441-2.079-0.441-3.255v-12.139h3.276v11.803c0,1.652,0.364,2.954,1.093,3.905c0.727,0.952,1.861,1.429,3.401,1.429
			c1.063,0,1.98-0.183,2.751-0.547c0.77-0.363,1.4-0.882,1.891-1.554c0.489-0.672,0.854-1.47,1.092-2.394
			c0.237-0.925,0.356-1.946,0.356-3.066v-9.576h3.276V321.3z"/>
		<path d="M779.832,309.079h-5.796v9.828c0,0.645,0.014,1.238,0.042,1.784c0.028,0.547,0.14,1.022,0.336,1.429
			s0.489,0.729,0.882,0.966c0.393,0.238,0.951,0.357,1.68,0.357c0.477,0,0.967-0.057,1.471-0.169
			c0.504-0.111,0.979-0.279,1.428-0.504l0.126,2.982c-0.56,0.252-1.183,0.434-1.868,0.546c-0.688,0.111-1.338,0.168-1.953,0.168
			c-1.177,0-2.115-0.154-2.814-0.462c-0.7-0.308-1.246-0.741-1.639-1.302c-0.393-0.56-0.65-1.253-0.776-2.079
			s-0.188-1.743-0.188-2.751v-10.794h-4.285v-2.772h4.285v-5.586h3.275v5.586h5.796V309.079z"/>
		<path d="M798.271,326.718c-2.269,0-4.348-0.393-6.238-1.176c-1.889-0.783-3.527-1.869-4.914-3.255
			c-1.385-1.386-2.463-3.038-3.233-4.956s-1.155-3.997-1.155-6.237c0-2.239,0.385-4.318,1.155-6.237
			c0.771-1.917,1.849-3.569,3.233-4.955c1.387-1.387,3.025-2.472,4.914-3.256c1.891-0.783,3.97-1.176,6.238-1.176
			c2.268,0,4.346,0.393,6.236,1.176c1.891,0.784,3.527,1.869,4.914,3.256c1.386,1.386,2.463,3.038,3.234,4.955
			c0.77,1.919,1.154,3.998,1.154,6.237c0,2.24-0.385,4.319-1.154,6.237c-0.771,1.918-1.849,3.57-3.234,4.956
			c-1.387,1.386-3.023,2.472-4.914,3.255S800.538,326.718,798.271,326.718z M798.271,323.443c1.735,0,3.324-0.322,4.766-0.967
			c1.442-0.644,2.682-1.525,3.718-2.646s1.841-2.429,2.415-3.927c0.573-1.498,0.861-3.102,0.861-4.81
			c0-1.707-0.288-3.311-0.861-4.809c-0.574-1.498-1.379-2.807-2.415-3.927s-2.275-2.002-3.718-2.646
			c-1.441-0.644-3.03-0.966-4.766-0.966c-1.737,0-3.326,0.322-4.768,0.966c-1.442,0.645-2.682,1.526-3.717,2.646
			c-1.037,1.12-1.842,2.429-2.415,3.927c-0.574,1.498-0.861,3.102-0.861,4.809c0,1.708,0.287,3.312,0.861,4.81
			c0.573,1.498,1.378,2.807,2.415,3.927c1.035,1.12,2.274,2.002,3.717,2.646C794.944,323.121,796.533,323.443,798.271,323.443z"/>
		<path d="M836.028,321.3c0,0.896,0.027,1.736,0.084,2.521c0.055,0.784,0.084,1.498,0.084,2.142h-3.108
			c0-0.531-0.015-1.063-0.042-1.596c-0.028-0.532-0.042-1.078-0.042-1.639h-0.084c-0.225,0.477-0.54,0.938-0.945,1.387
			c-0.406,0.448-0.89,0.847-1.448,1.196c-0.561,0.351-1.191,0.63-1.891,0.841c-0.7,0.21-1.456,0.314-2.268,0.314
			c-1.289,0-2.402-0.196-3.34-0.588s-1.715-0.938-2.33-1.638c-0.617-0.7-1.072-1.547-1.365-2.541
			c-0.295-0.994-0.441-2.079-0.441-3.255v-12.139h3.275v11.803c0,1.652,0.364,2.954,1.093,3.905
			c0.728,0.952,1.862,1.429,3.401,1.429c1.064,0,1.98-0.183,2.752-0.547c0.77-0.363,1.399-0.882,1.89-1.554
			c0.489-0.672,0.854-1.47,1.092-2.394c0.237-0.925,0.356-1.946,0.356-3.066v-9.576h3.277V321.3z"/>
		<path d="M852.995,309.079H847.2v9.828c0,0.645,0.014,1.238,0.041,1.784c0.028,0.547,0.141,1.022,0.336,1.429
			c0.196,0.406,0.49,0.729,0.883,0.966c0.392,0.238,0.951,0.357,1.68,0.357c0.477,0,0.967-0.057,1.471-0.169
			c0.504-0.111,0.979-0.279,1.428-0.504l0.125,2.982c-0.56,0.252-1.183,0.434-1.868,0.546c-0.687,0.111-1.337,0.168-1.953,0.168
			c-1.177,0-2.114-0.154-2.813-0.462c-0.701-0.308-1.246-0.741-1.639-1.302c-0.393-0.56-0.65-1.253-0.777-2.079
			c-0.125-0.826-0.188-1.743-0.188-2.751v-10.794h-4.284v-2.772h4.284v-5.586h3.276v5.586h5.795V309.079z"/>
		<path d="M857.615,296.226h4.452l17.221,24.696h0.084v-24.696h3.527v29.736h-4.452l-17.22-24.696h-0.084v24.696h-3.528V296.226z"/>
		<path d="M886.847,296.226h3.906l6.762,24.696h0.084l7.309-24.696h3.947l7.267,24.696h0.084l6.888-24.696h3.696l-8.735,29.736
			h-3.822l-7.35-25.2h-0.084l-7.393,25.2h-3.864L886.847,296.226z"/>
	</g>
	
		<rect x="449.739" y="149.95" fill="none" stroke="#68CEF6" stroke-width="2" stroke-miterlimit="10" width="168.101" height="672.948"/>
	
		<rect x="904.466" y="147.95" fill="none" stroke="#68CEF6" stroke-width="2" stroke-miterlimit="10" width="249.374" height="698.948"/>
	
		<line fill="none" stroke="#68CEF6" stroke-width="2" stroke-miterlimit="10" x1="449.739" y1="493.406" x2="617.882" y2="493.406"/>
	
		<line fill="none" stroke="#68CEF6" stroke-width="2" stroke-miterlimit="10" x1="905.739" y1="493.406" x2="1154.882" y2="493.406"/>
	<line fill="none" stroke="#68CEF6" stroke-width="2" stroke-miterlimit="10" x1="69.031" y1="491.406" x2="292.362" y2="491.406"/>
	
		<rect x="69.031" y="52.542" fill="none" stroke="#68CEF6" stroke-width="2" stroke-miterlimit="10" width="224.178" height="614.971"/>
	<g>
		<path d="M162.423,297.951c-0.701-0.84-1.457-1.449-2.268-1.827c-0.812-0.378-1.708-0.566-2.688-0.566
			c-1.092,0-2.058,0.188-2.898,0.566c-0.84,0.378-1.533,0.903-2.079,1.575s-0.959,1.449-1.239,2.331
			c-0.28,0.882-0.42,1.827-0.42,2.835s0.161,1.953,0.483,2.835c0.322,0.882,0.77,1.659,1.344,2.331
			c0.573,0.672,1.267,1.197,2.079,1.575c0.812,0.378,1.722,0.567,2.73,0.567c2.156,0,3.822-0.812,4.998-2.437l2.436,2.31
			c-0.952,1.093-2.072,1.891-3.36,2.395c-1.288,0.504-2.646,0.756-4.074,0.756c-1.512,0-2.898-0.252-4.158-0.756
			c-1.26-0.504-2.331-1.218-3.213-2.142c-0.882-0.925-1.568-2.017-2.058-3.276c-0.49-1.26-0.735-2.646-0.735-4.158
			c0-1.483,0.245-2.855,0.735-4.116c0.49-1.26,1.183-2.352,2.079-3.275c0.896-0.924,1.967-1.645,3.213-2.163
			c1.246-0.518,2.625-0.777,4.137-0.777c1.456,0,2.835,0.252,4.137,0.756c1.302,0.504,2.443,1.288,3.423,2.353L162.423,297.951z"/>
		<path d="M185.817,308.031c0,0.896,0.027,1.736,0.084,2.521c0.056,0.784,0.084,1.498,0.084,2.142h-3.108
			c0-0.531-0.015-1.063-0.042-1.596c-0.028-0.532-0.042-1.078-0.042-1.639h-0.084c-0.225,0.477-0.54,0.938-0.945,1.387
			c-0.406,0.448-0.889,0.847-1.449,1.196c-0.561,0.351-1.19,0.63-1.89,0.841c-0.7,0.21-1.456,0.314-2.268,0.314
			c-1.288,0-2.401-0.196-3.339-0.588c-0.938-0.392-1.715-0.938-2.331-1.638c-0.616-0.7-1.071-1.547-1.365-2.541
			s-0.441-2.079-0.441-3.255v-12.139h3.276v11.803c0,1.652,0.364,2.954,1.092,3.905c0.728,0.952,1.862,1.429,3.402,1.429
			c1.064,0,1.98-0.183,2.751-0.547c0.77-0.363,1.4-0.882,1.89-1.554c0.49-0.672,0.854-1.47,1.092-2.394
			c0.238-0.925,0.357-1.946,0.357-3.066v-9.576h3.276V308.031z"/>
		<path d="M202.785,295.809h-5.796v9.828c0,0.645,0.014,1.238,0.042,1.784c0.028,0.547,0.14,1.022,0.336,1.429
			c0.196,0.406,0.49,0.729,0.882,0.966c0.392,0.238,0.951,0.357,1.68,0.357c0.476,0,0.966-0.057,1.47-0.169
			c0.504-0.111,0.979-0.279,1.428-0.504l0.126,2.982c-0.56,0.252-1.183,0.434-1.869,0.546c-0.687,0.111-1.337,0.168-1.953,0.168
			c-1.176,0-2.114-0.154-2.814-0.462c-0.7-0.308-1.246-0.741-1.638-1.302c-0.393-0.56-0.651-1.253-0.777-2.079
			s-0.189-1.743-0.189-2.751v-10.794h-4.284v-2.772h4.284v-5.586h3.276v5.586h5.796V295.809z"/>
		<path d="M221.223,313.449c-2.268,0-4.347-0.393-6.237-1.176c-1.89-0.783-3.528-1.869-4.914-3.255
			c-1.386-1.386-2.464-3.038-3.234-4.956c-0.771-1.918-1.155-3.997-1.155-6.237c0-2.239,0.384-4.318,1.155-6.237
			c0.77-1.917,1.848-3.569,3.234-4.955c1.386-1.387,3.024-2.472,4.914-3.256c1.89-0.783,3.969-1.176,6.237-1.176
			s4.347,0.393,6.237,1.176c1.89,0.784,3.528,1.869,4.914,3.256c1.386,1.386,2.463,3.038,3.234,4.955
			c0.77,1.919,1.155,3.998,1.155,6.237c0,2.24-0.385,4.319-1.155,6.237c-0.771,1.918-1.848,3.57-3.234,4.956
			c-1.386,1.386-3.024,2.472-4.914,3.255S223.491,313.449,221.223,313.449z M221.223,310.173c1.736,0,3.324-0.322,4.767-0.967
			c1.442-0.644,2.681-1.525,3.717-2.646c1.036-1.12,1.841-2.429,2.415-3.927c0.573-1.498,0.861-3.102,0.861-4.81
			c0-1.707-0.288-3.311-0.861-4.809c-0.574-1.498-1.379-2.807-2.415-3.927c-1.036-1.12-2.275-2.002-3.717-2.646
			c-1.442-0.644-3.031-0.966-4.767-0.966c-1.737,0-3.325,0.322-4.767,0.966c-1.442,0.645-2.682,1.526-3.717,2.646
			c-1.036,1.12-1.841,2.429-2.415,3.927c-0.574,1.498-0.861,3.102-0.861,4.809c0,1.708,0.287,3.312,0.861,4.81
			c0.573,1.498,1.378,2.807,2.415,3.927c1.036,1.12,2.275,2.002,3.717,2.646C217.897,309.851,219.486,310.173,221.223,310.173z"/>
		<path d="M258.98,308.031c0,0.896,0.027,1.736,0.084,2.521c0.056,0.784,0.084,1.498,0.084,2.142h-3.108
			c0-0.531-0.015-1.063-0.042-1.596c-0.028-0.532-0.042-1.078-0.042-1.639h-0.084c-0.225,0.477-0.54,0.938-0.945,1.387
			c-0.406,0.448-0.889,0.847-1.449,1.196c-0.561,0.351-1.19,0.63-1.89,0.841c-0.7,0.21-1.456,0.314-2.268,0.314
			c-1.288,0-2.401-0.196-3.339-0.588c-0.938-0.392-1.715-0.938-2.331-1.638c-0.616-0.7-1.071-1.547-1.365-2.541
			s-0.441-2.079-0.441-3.255v-12.139h3.276v11.803c0,1.652,0.364,2.954,1.092,3.905c0.728,0.952,1.862,1.429,3.402,1.429
			c1.064,0,1.98-0.183,2.751-0.547c0.77-0.363,1.4-0.882,1.89-1.554c0.49-0.672,0.854-1.47,1.092-2.394
			c0.238-0.925,0.357-1.946,0.357-3.066v-9.576h3.276V308.031z"/>
		<path d="M275.948,295.809h-5.796v9.828c0,0.645,0.014,1.238,0.042,1.784c0.028,0.547,0.14,1.022,0.336,1.429
			c0.196,0.406,0.49,0.729,0.882,0.966c0.392,0.238,0.951,0.357,1.68,0.357c0.476,0,0.966-0.057,1.47-0.169
			c0.504-0.111,0.979-0.279,1.428-0.504l0.126,2.982c-0.56,0.252-1.183,0.434-1.869,0.546c-0.687,0.111-1.337,0.168-1.953,0.168
			c-1.176,0-2.114-0.154-2.814-0.462c-0.7-0.308-1.246-0.741-1.638-1.302c-0.393-0.56-0.651-1.253-0.777-2.079
			s-0.189-1.743-0.189-2.751v-10.794h-4.284v-2.772h4.284v-5.586h3.276v5.586h5.796V295.809z"/>
		<path d="M280.568,282.957h4.452l17.22,24.696h0.084v-24.696h3.528v29.736H301.4l-17.22-24.696h-0.084v24.696h-3.528V282.957z"/>
		<path d="M313.244,282.957h18.69v3.276h-15.162v9.324h14.154v3.275h-14.154v10.584h15.918v3.276h-19.446V282.957z"/>
	</g>
	
		<rect x="118.829" y="323.026" fill="none" stroke="#BE1E2D" stroke-width="4" stroke-miterlimit="10" width="16.667" height="16.667"/>
	<g>
		<line fill="none" stroke="#BE1E2D" stroke-width="2" stroke-miterlimit="10" x1="126.996" y1="52.039" x2="126.996" y2="58.039"/>
		
			<line fill="none" stroke="#BE1E2D" stroke-width="2" stroke-miterlimit="10" stroke-dasharray="11.6226,11.6226" x1="126.996" y1="69.662" x2="126.996" y2="319.548"/>
		<polyline fill="none" stroke="#BE1E2D" stroke-width="2" stroke-miterlimit="10" points="126.996,325.36 126.996,331.36 
			132.996,331.36 		"/>
		
			<line fill="none" stroke="#BE1E2D" stroke-width="2" stroke-miterlimit="10" stroke-dasharray="11.7686,11.7686" x1="144.765" y1="331.36" x2="280.104" y2="331.36"/>
		<line fill="none" stroke="#BE1E2D" stroke-width="2" stroke-miterlimit="10" x1="285.988" y1="331.36" x2="291.988" y2="331.36"/>
	</g>
	
		<rect x="488.801" y="289.028" fill="none" stroke="#BE1E2D" stroke-width="4" stroke-miterlimit="10" width="16.667" height="16.667"/>
	<g>
		
			<line fill="none" stroke="#BE1E2D" stroke-width="2" stroke-miterlimit="10" x1="496.968" y1="150.035" x2="496.968" y2="156.035"/>
		
			<line fill="none" stroke="#BE1E2D" stroke-width="2" stroke-miterlimit="10" stroke-dasharray="12.3024,12.3024" x1="496.968" y1="168.337" x2="496.968" y2="285.21"/>
		<polyline fill="none" stroke="#BE1E2D" stroke-width="2" stroke-miterlimit="10" points="496.968,291.361 496.968,297.361 
			502.968,297.361 		"/>
		
			<line fill="none" stroke="#BE1E2D" stroke-width="2" stroke-miterlimit="10" stroke-dasharray="11.9993,11.9993" x1="514.967" y1="297.361" x2="604.962" y2="297.361"/>
		
			<line fill="none" stroke="#BE1E2D" stroke-width="2" stroke-miterlimit="10" x1="610.962" y1="297.361" x2="616.962" y2="297.361"/>
	</g>
	<g>
		<path d="M1150.396,223.223c-0.701-0.84-1.457-1.449-2.268-1.827c-0.812-0.378-1.709-0.566-2.688-0.566
			c-1.093,0-2.058,0.188-2.897,0.566c-0.841,0.378-1.533,0.903-2.08,1.575c-0.545,0.672-0.959,1.449-1.238,2.331
			c-0.281,0.882-0.42,1.827-0.42,2.835s0.16,1.953,0.482,2.835s0.77,1.659,1.344,2.331s1.268,1.197,2.08,1.575
			c0.811,0.378,1.721,0.567,2.729,0.567c2.155,0,3.821-0.812,4.998-2.437l2.436,2.31c-0.952,1.093-2.072,1.891-3.36,2.395
			c-1.287,0.504-2.646,0.756-4.073,0.756c-1.513,0-2.897-0.252-4.158-0.756c-1.26-0.504-2.331-1.218-3.213-2.142
			c-0.882-0.925-1.568-2.017-2.058-3.276c-0.49-1.26-0.735-2.646-0.735-4.158c0-1.483,0.245-2.855,0.735-4.116
			c0.489-1.26,1.182-2.352,2.078-3.275s1.967-1.645,3.213-2.163c1.246-0.518,2.625-0.777,4.138-0.777
			c1.456,0,2.835,0.252,4.137,0.756s2.442,1.288,3.423,2.353L1150.396,223.223z"/>
		<path d="M1173.789,233.303c0,0.896,0.027,1.736,0.084,2.521c0.056,0.784,0.084,1.498,0.084,2.142h-3.108
			c0-0.531-0.014-1.063-0.041-1.596c-0.029-0.532-0.043-1.078-0.043-1.639h-0.084c-0.225,0.477-0.539,0.938-0.945,1.387
			s-0.889,0.847-1.448,1.196c-0.561,0.351-1.19,0.63-1.89,0.841c-0.701,0.21-1.457,0.314-2.269,0.314
			c-1.288,0-2.401-0.196-3.339-0.588c-0.938-0.392-1.715-0.938-2.331-1.638s-1.071-1.547-1.365-2.541s-0.44-2.079-0.44-3.255
			v-12.139h3.275v11.803c0,1.652,0.363,2.954,1.092,3.905c0.729,0.952,1.862,1.429,3.402,1.429c1.064,0,1.98-0.183,2.751-0.547
			c0.771-0.363,1.399-0.882,1.89-1.554s0.854-1.47,1.092-2.394c0.238-0.925,0.357-1.946,0.357-3.066v-9.576h3.276V233.303z"/>
		<path d="M1190.757,221.081h-5.796v9.828c0,0.645,0.014,1.238,0.042,1.784c0.027,0.547,0.14,1.022,0.336,1.429
			c0.195,0.406,0.49,0.729,0.883,0.966c0.391,0.238,0.951,0.357,1.68,0.357c0.476,0,0.966-0.057,1.47-0.169
			c0.504-0.111,0.979-0.279,1.428-0.504l0.126,2.982c-0.561,0.252-1.184,0.434-1.869,0.546c-0.686,0.111-1.337,0.168-1.953,0.168
			c-1.176,0-2.113-0.154-2.813-0.462s-1.246-0.741-1.638-1.302c-0.393-0.56-0.651-1.253-0.777-2.079s-0.189-1.743-0.189-2.751
			v-10.794h-4.283v-2.772h4.283v-5.586h3.276v5.586h5.796V221.081z"/>
		<path d="M1209.194,238.721c-2.268,0-4.347-0.393-6.236-1.176c-1.891-0.783-3.528-1.869-4.914-3.255
			c-1.387-1.386-2.465-3.038-3.234-4.956c-0.771-1.918-1.154-3.997-1.154-6.237c0-2.239,0.384-4.318,1.154-6.237
			c0.77-1.917,1.848-3.569,3.234-4.955c1.386-1.387,3.023-2.472,4.914-3.256c1.89-0.783,3.969-1.176,6.236-1.176
			c2.269,0,4.348,0.393,6.237,1.176c1.89,0.784,3.528,1.869,4.914,3.256c1.386,1.386,2.464,3.038,3.233,4.955
			c0.771,1.919,1.156,3.998,1.156,6.237c0,2.24-0.386,4.319-1.156,6.237c-0.77,1.918-1.848,3.57-3.233,4.956
			s-3.024,2.472-4.914,3.255S1211.463,238.721,1209.194,238.721z M1209.194,235.445c1.736,0,3.324-0.322,4.768-0.967
			c1.441-0.644,2.681-1.525,3.717-2.646c1.035-1.12,1.841-2.429,2.415-3.927c0.573-1.498,0.86-3.102,0.86-4.81
			c0-1.707-0.287-3.311-0.86-4.809c-0.574-1.498-1.38-2.807-2.415-3.927c-1.036-1.12-2.275-2.002-3.717-2.646
			c-1.443-0.644-3.031-0.966-4.768-0.966s-3.324,0.322-4.767,0.966c-1.442,0.645-2.682,1.526-3.718,2.646
			c-1.035,1.12-1.841,2.429-2.414,3.927c-0.574,1.498-0.861,3.102-0.861,4.809c0,1.708,0.287,3.312,0.861,4.81
			c0.573,1.498,1.379,2.807,2.414,3.927c1.036,1.12,2.275,2.002,3.718,2.646C1205.87,235.123,1207.458,235.445,1209.194,235.445z"/>
		<path d="M1246.952,233.303c0,0.896,0.027,1.736,0.084,2.521s0.084,1.498,0.084,2.142h-3.107c0-0.531-0.015-1.063-0.042-1.596
			c-0.028-0.532-0.042-1.078-0.042-1.639h-0.084c-0.225,0.477-0.539,0.938-0.945,1.387s-0.889,0.847-1.449,1.196
			c-0.561,0.351-1.189,0.63-1.89,0.841c-0.7,0.21-1.456,0.314-2.269,0.314c-1.287,0-2.4-0.196-3.338-0.588
			c-0.939-0.392-1.716-0.938-2.332-1.638c-0.615-0.7-1.07-1.547-1.365-2.541c-0.293-0.994-0.44-2.079-0.44-3.255v-12.139h3.276
			v11.803c0,1.652,0.363,2.954,1.092,3.905c0.728,0.952,1.861,1.429,3.402,1.429c1.063,0,1.98-0.183,2.75-0.547
			c0.771-0.363,1.4-0.882,1.891-1.554s0.854-1.47,1.092-2.394c0.238-0.925,0.357-1.946,0.357-3.066v-9.576h3.275V233.303z"/>
		<path d="M1263.921,221.081h-5.797v9.828c0,0.645,0.014,1.238,0.043,1.784c0.027,0.547,0.139,1.022,0.336,1.429
			c0.195,0.406,0.489,0.729,0.882,0.966c0.392,0.238,0.951,0.357,1.68,0.357c0.476,0,0.966-0.057,1.47-0.169
			c0.504-0.111,0.98-0.279,1.428-0.504l0.127,2.982c-0.561,0.252-1.184,0.434-1.869,0.546c-0.687,0.111-1.338,0.168-1.953,0.168
			c-1.176,0-2.114-0.154-2.814-0.462c-0.699-0.308-1.246-0.741-1.638-1.302c-0.393-0.56-0.651-1.253-0.776-2.079
			c-0.127-0.826-0.189-1.743-0.189-2.751v-10.794h-4.284v-2.772h4.284v-5.586h3.275v5.586h5.797V221.081z"/>
		<path d="M1268.54,208.229h4.452l17.22,24.696h0.084v-24.696h3.528v29.736h-4.452l-17.22-24.696h-0.084v24.696h-3.528V208.229z"/>
		<path d="M1301.216,208.229h18.69v3.276h-15.162v9.324h14.153v3.275h-14.153v10.584h15.918v3.276h-19.446V208.229z"/>
	</g>
	
		<rect x="1108.215" y="259.028" fill="none" stroke="#BE1E2D" stroke-width="4" stroke-miterlimit="10" width="16.667" height="16.667"/>
	<g>
		
			<line fill="none" stroke="#BE1E2D" stroke-width="2" stroke-miterlimit="10" x1="1116.382" y1="150.035" x2="1116.382" y2="156.035"/>
		
			<line fill="none" stroke="#BE1E2D" stroke-width="2" stroke-miterlimit="10" stroke-dasharray="11.777,11.777" x1="1116.382" y1="167.812" x2="1116.382" y2="256.139"/>
		<polyline fill="none" stroke="#BE1E2D" stroke-width="2" stroke-miterlimit="10" points="1116.382,262.028 1116.382,268.028 
			1122.382,268.028 		"/>
		
			<line fill="none" stroke="#BE1E2D" stroke-width="2" stroke-miterlimit="10" stroke-dasharray="8.389,8.389" x1="1130.771" y1="268.028" x2="1143.354" y2="268.028"/>
		
			<line fill="none" stroke="#BE1E2D" stroke-width="2" stroke-miterlimit="10" x1="1147.549" y1="268.028" x2="1153.549" y2="268.028"/>
	</g>
	
		<rect x="1108.215" y="636.51" fill="none" stroke="#BE1E2D" stroke-width="4" stroke-miterlimit="10" width="16.667" height="16.668"/>
	<g>
		<line fill="none" stroke="#BE1E2D" stroke-width="2" stroke-miterlimit="10" x1="1116.382" y1="846.5" x2="1116.382" y2="840.5"/>
		
			<line fill="none" stroke="#BE1E2D" stroke-width="2" stroke-miterlimit="10" stroke-dasharray="12.6881,12.6881" x1="1116.382" y1="827.811" x2="1116.382" y2="656.522"/>
		<polyline fill="none" stroke="#BE1E2D" stroke-width="2" stroke-miterlimit="10" points="1116.382,650.178 1116.382,644.178 
			1122.382,644.178 		"/>
		
			<line fill="none" stroke="#BE1E2D" stroke-width="2" stroke-miterlimit="10" stroke-dasharray="8.389,8.389" x1="1130.771" y1="644.178" x2="1143.354" y2="644.178"/>
		
			<line fill="none" stroke="#BE1E2D" stroke-width="2" stroke-miterlimit="10" x1="1147.549" y1="644.178" x2="1153.549" y2="644.178"/>
	</g>
	
		<rect x="560.297" y="685.84" fill="none" stroke="#BE1E2D" stroke-width="4" stroke-miterlimit="10" width="16.667" height="16.667"/>
	<g>
		<line fill="none" stroke="#BE1E2D" stroke-width="2" stroke-miterlimit="10" x1="568.797" y1="822.5" x2="568.797" y2="816.5"/>
		
			<line fill="none" stroke="#BE1E2D" stroke-width="2" stroke-miterlimit="10" stroke-dasharray="12.9251,12.9251" x1="568.797" y1="803.576" x2="568.797" y2="706.637"/>
		<polyline fill="none" stroke="#BE1E2D" stroke-width="2" stroke-miterlimit="10" points="568.797,700.174 568.797,694.174 
			562.797,694.174 		"/>
		
			<line fill="none" stroke="#BE1E2D" stroke-width="2" stroke-miterlimit="10" stroke-dasharray="11.9993,11.9993" x1="550.798" y1="694.174" x2="460.803" y2="694.174"/>
		
			<line fill="none" stroke="#BE1E2D" stroke-width="2" stroke-miterlimit="10" x1="454.803" y1="694.174" x2="448.803" y2="694.174"/>
	</g>
	<g>
		<path d="M742.036,755.68c-0.7-0.84-1.456-1.449-2.268-1.827c-0.812-0.378-1.709-0.566-2.688-0.566
			c-1.093,0-2.059,0.188-2.898,0.566s-1.533,0.903-2.079,1.575s-0.96,1.449-1.239,2.331c-0.28,0.882-0.42,1.827-0.42,2.835
			s0.16,1.953,0.482,2.835s0.771,1.659,1.345,2.331c0.573,0.672,1.267,1.197,2.079,1.575c0.812,0.378,1.722,0.567,2.73,0.567
			c2.155,0,3.821-0.812,4.998-2.437l2.436,2.31c-0.953,1.093-2.072,1.891-3.36,2.395s-2.646,0.756-4.073,0.756
			c-1.513,0-2.898-0.252-4.158-0.756s-2.332-1.218-3.213-2.142c-0.883-0.925-1.568-2.017-2.059-3.276s-0.734-2.646-0.734-4.158
			c0-1.483,0.244-2.855,0.734-4.116c0.49-1.26,1.183-2.352,2.079-3.275c0.896-0.924,1.967-1.645,3.213-2.163
			c1.245-0.518,2.625-0.777,4.138-0.777c1.455,0,2.834,0.252,4.137,0.756c1.302,0.504,2.442,1.288,3.423,2.353L742.036,755.68z"/>
		<path d="M765.431,765.76c0,0.896,0.027,1.736,0.084,2.521c0.055,0.784,0.084,1.498,0.084,2.142h-3.108
			c0-0.531-0.015-1.063-0.042-1.596c-0.028-0.532-0.042-1.078-0.042-1.639h-0.084c-0.225,0.477-0.54,0.938-0.945,1.387
			c-0.406,0.448-0.89,0.847-1.448,1.196c-0.561,0.351-1.191,0.63-1.891,0.841c-0.7,0.21-1.456,0.314-2.268,0.314
			c-1.289,0-2.402-0.196-3.34-0.588s-1.715-0.938-2.33-1.638c-0.617-0.7-1.072-1.547-1.365-2.541
			c-0.295-0.994-0.441-2.079-0.441-3.255v-12.139h3.275v11.803c0,1.652,0.364,2.954,1.093,3.905
			c0.728,0.952,1.862,1.429,3.401,1.429c1.064,0,1.98-0.183,2.752-0.547c0.77-0.363,1.399-0.882,1.89-1.554
			c0.489-0.672,0.854-1.47,1.092-2.394c0.237-0.925,0.356-1.946,0.356-3.066v-9.576h3.277V765.76z"/>
		<path d="M782.397,753.539h-5.795v9.828c0,0.645,0.014,1.238,0.041,1.784c0.028,0.547,0.141,1.022,0.336,1.429
			c0.196,0.406,0.49,0.729,0.883,0.966c0.392,0.238,0.951,0.357,1.68,0.357c0.477,0,0.967-0.057,1.471-0.169
			c0.504-0.111,0.979-0.279,1.428-0.504l0.125,2.982c-0.56,0.252-1.183,0.434-1.868,0.546c-0.687,0.111-1.337,0.168-1.953,0.168
			c-1.177,0-2.114-0.154-2.813-0.462c-0.701-0.308-1.246-0.741-1.639-1.302c-0.393-0.56-0.65-1.253-0.777-2.079
			c-0.125-0.826-0.188-1.743-0.188-2.751v-10.794h-4.284v-2.772h4.284v-5.586h3.276v5.586h5.795V753.539z"/>
		<path d="M800.836,771.178c-2.269,0-4.347-0.393-6.237-1.176c-1.89-0.783-3.527-1.869-4.914-3.255
			c-1.386-1.386-2.464-3.038-3.234-4.956c-0.77-1.918-1.154-3.997-1.154-6.237c0-2.239,0.385-4.318,1.154-6.237
			c0.771-1.917,1.849-3.569,3.234-4.955c1.387-1.387,3.024-2.472,4.914-3.256c1.891-0.783,3.969-1.176,6.237-1.176
			s4.347,0.393,6.237,1.176c1.89,0.784,3.527,1.869,4.914,3.256c1.385,1.386,2.463,3.038,3.233,4.955
			c0.771,1.919,1.155,3.998,1.155,6.237c0,2.24-0.385,4.319-1.155,6.237s-1.849,3.57-3.233,4.956
			c-1.387,1.386-3.024,2.472-4.914,3.255C805.183,770.786,803.104,771.178,800.836,771.178z M800.836,767.903
			c1.735,0,3.324-0.322,4.767-0.967c1.441-0.644,2.682-1.525,3.717-2.646c1.036-1.12,1.842-2.429,2.416-3.927
			c0.572-1.498,0.86-3.102,0.86-4.81c0-1.707-0.288-3.311-0.86-4.809c-0.574-1.498-1.38-2.807-2.416-3.927
			c-1.035-1.12-2.275-2.002-3.717-2.646c-1.442-0.644-3.031-0.966-4.767-0.966c-1.737,0-3.325,0.322-4.767,0.966
			c-1.443,0.645-2.682,1.526-3.718,2.646s-1.841,2.429-2.415,3.927s-0.861,3.102-0.861,4.809c0,1.708,0.287,3.312,0.861,4.81
			s1.379,2.807,2.415,3.927s2.274,2.002,3.718,2.646C797.511,767.581,799.099,767.903,800.836,767.903z"/>
		<path d="M838.594,765.76c0,0.896,0.027,1.736,0.084,2.521c0.056,0.784,0.084,1.498,0.084,2.142h-3.108
			c0-0.531-0.014-1.063-0.041-1.596c-0.029-0.532-0.043-1.078-0.043-1.639h-0.084c-0.225,0.477-0.539,0.938-0.945,1.387
			s-0.889,0.847-1.448,1.196c-0.561,0.351-1.19,0.63-1.89,0.841c-0.701,0.21-1.457,0.314-2.269,0.314
			c-1.288,0-2.401-0.196-3.339-0.588c-0.938-0.392-1.715-0.938-2.331-1.638s-1.071-1.547-1.365-2.541s-0.44-2.079-0.44-3.255
			v-12.139h3.275v11.803c0,1.652,0.363,2.954,1.092,3.905c0.729,0.952,1.862,1.429,3.402,1.429c1.064,0,1.98-0.183,2.751-0.547
			c0.771-0.363,1.399-0.882,1.89-1.554s0.854-1.47,1.092-2.394c0.238-0.925,0.357-1.946,0.357-3.066v-9.576h3.276V765.76z"/>
		<path d="M855.562,753.539h-5.796v9.828c0,0.645,0.014,1.238,0.042,1.784c0.027,0.547,0.14,1.022,0.336,1.429
			c0.195,0.406,0.49,0.729,0.883,0.966c0.391,0.238,0.951,0.357,1.68,0.357c0.476,0,0.966-0.057,1.47-0.169
			c0.504-0.111,0.979-0.279,1.428-0.504l0.126,2.982c-0.561,0.252-1.184,0.434-1.869,0.546c-0.686,0.111-1.337,0.168-1.953,0.168
			c-1.176,0-2.113-0.154-2.813-0.462s-1.246-0.741-1.638-1.302c-0.393-0.56-0.651-1.253-0.777-2.079s-0.189-1.743-0.189-2.751
			v-10.794h-4.283v-2.772h4.283v-5.586h3.276v5.586h5.796V753.539z"/>
		<path d="M874.294,745.936c-0.588-0.951-1.373-1.645-2.353-2.079c-0.98-0.434-2.003-0.65-3.065-0.65
			c-0.785,0-1.555,0.099-2.311,0.294c-0.756,0.196-1.436,0.49-2.037,0.882c-0.603,0.393-1.086,0.91-1.449,1.554
			c-0.363,0.645-0.546,1.4-0.546,2.269c0,0.672,0.104,1.267,0.315,1.785c0.21,0.518,0.553,0.986,1.029,1.406
			c0.475,0.42,1.119,0.812,1.932,1.177c0.812,0.364,1.806,0.729,2.982,1.092c1.146,0.364,2.26,0.756,3.338,1.176
			s2.03,0.952,2.856,1.596c0.825,0.645,1.483,1.449,1.974,2.415s0.735,2.178,0.735,3.633c0,1.485-0.294,2.772-0.882,3.864
			s-1.365,1.995-2.331,2.709s-2.079,1.246-3.339,1.597c-1.26,0.35-2.562,0.524-3.906,0.524c-0.868,0-1.736-0.077-2.604-0.23
			c-0.869-0.154-1.701-0.393-2.5-0.715c-0.797-0.321-1.547-0.741-2.246-1.26c-0.701-0.518-1.303-1.154-1.807-1.911l3.024-2.478
			c0.644,1.092,1.54,1.918,2.688,2.478c1.146,0.561,2.365,0.841,3.653,0.841c0.756,0,1.519-0.112,2.289-0.337
			c0.771-0.224,1.463-0.552,2.079-0.986c0.615-0.434,1.119-0.973,1.512-1.617c0.393-0.644,0.588-1.386,0.588-2.226
			c0-0.925-0.154-1.673-0.462-2.247s-0.784-1.071-1.428-1.491c-0.645-0.42-1.456-0.798-2.437-1.134s-2.128-0.729-3.443-1.177
			c-1.064-0.336-2.045-0.72-2.939-1.154c-0.896-0.435-1.674-0.967-2.332-1.597s-1.176-1.386-1.554-2.268s-0.567-1.938-0.567-3.171
			c0-1.428,0.279-2.674,0.84-3.738c0.561-1.063,1.316-1.953,2.269-2.667s2.03-1.253,3.233-1.617
			c1.204-0.363,2.465-0.546,3.781-0.546c1.68,0,3.213,0.26,4.598,0.777c1.387,0.519,2.625,1.421,3.718,2.709L874.294,745.936z"/>
		<path d="M880.089,740.686h3.906l6.762,24.696h0.084l7.309-24.696h3.947l7.267,24.696h0.084l6.888-24.696h3.696l-8.735,29.736
			h-3.822l-7.35-25.2h-0.084l-7.393,25.2h-3.864L880.089,740.686z"/>
	</g>
	<g>
		<path d="M1145.517,671.684c-0.701-0.84-1.457-1.449-2.269-1.827c-0.812-0.378-1.708-0.566-2.688-0.566
			c-1.092,0-2.058,0.188-2.897,0.566c-0.841,0.378-1.533,0.903-2.079,1.575s-0.959,1.449-1.239,2.331s-0.42,1.827-0.42,2.835
			s0.161,1.953,0.483,2.835c0.321,0.882,0.77,1.659,1.344,2.331c0.573,0.672,1.267,1.197,2.079,1.575
			c0.812,0.378,1.722,0.567,2.729,0.567c2.156,0,3.822-0.812,4.998-2.437l2.436,2.31c-0.951,1.093-2.072,1.891-3.359,2.395
			c-1.288,0.504-2.646,0.756-4.074,0.756c-1.512,0-2.897-0.252-4.158-0.756c-1.26-0.504-2.33-1.218-3.213-2.142
			c-0.882-0.925-1.568-2.017-2.058-3.276c-0.49-1.26-0.735-2.646-0.735-4.158c0-1.483,0.245-2.855,0.735-4.116
			c0.489-1.26,1.183-2.352,2.079-3.275c0.896-0.924,1.967-1.645,3.213-2.163c1.246-0.518,2.625-0.777,4.137-0.777
			c1.456,0,2.836,0.252,4.137,0.756c1.303,0.504,2.443,1.288,3.424,2.353L1145.517,671.684z"/>
		<path d="M1168.909,681.764c0,0.896,0.027,1.736,0.084,2.521s0.084,1.498,0.084,2.142h-3.107c0-0.531-0.015-1.063-0.042-1.596
			c-0.028-0.532-0.042-1.078-0.042-1.639h-0.084c-0.225,0.477-0.539,0.938-0.945,1.387s-0.889,0.847-1.449,1.196
			c-0.561,0.351-1.189,0.63-1.89,0.841c-0.7,0.21-1.456,0.314-2.269,0.314c-1.287,0-2.4-0.196-3.338-0.588
			c-0.939-0.392-1.716-0.938-2.332-1.638c-0.615-0.7-1.07-1.547-1.365-2.541c-0.293-0.994-0.44-2.079-0.44-3.255V666.77h3.276
			v11.803c0,1.652,0.363,2.954,1.092,3.905c0.728,0.952,1.861,1.429,3.402,1.429c1.063,0,1.98-0.183,2.75-0.547
			c0.771-0.363,1.4-0.882,1.891-1.554s0.854-1.47,1.092-2.394c0.238-0.925,0.357-1.946,0.357-3.066v-9.576h3.275V681.764z"/>
		<path d="M1185.878,669.542h-5.797v9.828c0,0.645,0.014,1.238,0.043,1.784c0.027,0.547,0.139,1.022,0.336,1.429
			c0.195,0.406,0.489,0.729,0.882,0.966c0.392,0.238,0.951,0.357,1.68,0.357c0.476,0,0.966-0.057,1.47-0.169
			c0.504-0.111,0.98-0.279,1.428-0.504l0.127,2.982c-0.561,0.252-1.184,0.434-1.869,0.546c-0.687,0.111-1.338,0.168-1.953,0.168
			c-1.176,0-2.114-0.154-2.814-0.462c-0.699-0.308-1.246-0.741-1.638-1.302c-0.393-0.56-0.651-1.253-0.776-2.079
			c-0.127-0.826-0.189-1.743-0.189-2.751v-10.794h-4.284v-2.772h4.284v-5.586h3.275v5.586h5.797V669.542z"/>
		<path d="M1204.315,687.182c-2.268,0-4.348-0.393-6.237-1.176s-3.528-1.869-4.914-3.255s-2.464-3.038-3.233-4.956
			c-0.771-1.918-1.155-3.997-1.155-6.237c0-2.239,0.384-4.318,1.155-6.237c0.77-1.917,1.848-3.569,3.233-4.955
			c1.386-1.387,3.024-2.472,4.914-3.256c1.89-0.783,3.97-1.176,6.237-1.176s4.347,0.393,6.236,1.176
			c1.891,0.784,3.528,1.869,4.914,3.256c1.387,1.386,2.464,3.038,3.234,4.955c0.77,1.919,1.155,3.998,1.155,6.237
			c0,2.24-0.386,4.319-1.155,6.237c-0.771,1.918-1.848,3.57-3.234,4.956c-1.386,1.386-3.023,2.472-4.914,3.255
			C1208.662,686.79,1206.583,687.182,1204.315,687.182z M1204.315,683.907c1.736,0,3.324-0.322,4.767-0.967
			c1.442-0.644,2.681-1.525,3.718-2.646c1.035-1.12,1.84-2.429,2.414-3.927s0.861-3.102,0.861-4.81c0-1.707-0.287-3.311-0.861-4.809
			s-1.379-2.807-2.414-3.927c-1.037-1.12-2.275-2.002-3.718-2.646c-1.442-0.644-3.03-0.966-4.767-0.966s-3.325,0.322-4.768,0.966
			c-1.441,0.645-2.682,1.526-3.717,2.646c-1.036,1.12-1.842,2.429-2.414,3.927c-0.574,1.498-0.861,3.102-0.861,4.809
			c0,1.708,0.287,3.312,0.861,4.81c0.572,1.498,1.378,2.807,2.414,3.927c1.035,1.12,2.275,2.002,3.717,2.646
			C1200.99,683.584,1202.579,683.907,1204.315,683.907z"/>
		<path d="M1242.073,681.764c0,0.896,0.027,1.736,0.084,2.521c0.056,0.784,0.084,1.498,0.084,2.142h-3.107
			c0-0.531-0.016-1.063-0.043-1.596s-0.041-1.078-0.041-1.639h-0.084c-0.225,0.477-0.54,0.938-0.945,1.387
			c-0.406,0.448-0.89,0.847-1.449,1.196c-0.561,0.351-1.19,0.63-1.891,0.841c-0.699,0.21-1.455,0.314-2.268,0.314
			c-1.288,0-2.401-0.196-3.339-0.588c-0.938-0.392-1.716-0.938-2.331-1.638c-0.616-0.7-1.071-1.547-1.365-2.541
			s-0.441-2.079-0.441-3.255V666.77h3.276v11.803c0,1.652,0.364,2.954,1.093,3.905c0.727,0.952,1.861,1.429,3.401,1.429
			c1.063,0,1.98-0.183,2.751-0.547c0.77-0.363,1.4-0.882,1.891-1.554c0.489-0.672,0.854-1.47,1.092-2.394
			c0.237-0.925,0.356-1.946,0.356-3.066v-9.576h3.276V681.764z"/>
		<path d="M1259.041,669.542h-5.796v9.828c0,0.645,0.014,1.238,0.042,1.784c0.028,0.547,0.14,1.022,0.336,1.429
			s0.489,0.729,0.882,0.966c0.393,0.238,0.951,0.357,1.68,0.357c0.477,0,0.967-0.057,1.471-0.169
			c0.504-0.111,0.979-0.279,1.428-0.504l0.126,2.982c-0.56,0.252-1.183,0.434-1.868,0.546c-0.688,0.111-1.338,0.168-1.953,0.168
			c-1.177,0-2.115-0.154-2.814-0.462c-0.7-0.308-1.246-0.741-1.639-1.302c-0.393-0.56-0.65-1.253-0.776-2.079
			s-0.188-1.743-0.188-2.751v-10.794h-4.285v-2.772h4.285v-5.586h3.275v5.586h5.796V669.542z"/>
		<path d="M1277.772,661.94c-0.588-0.951-1.372-1.645-2.352-2.079c-0.98-0.434-2.002-0.65-3.066-0.65
			c-0.783,0-1.554,0.099-2.31,0.294c-0.756,0.196-1.435,0.49-2.037,0.882c-0.603,0.393-1.085,0.91-1.448,1.554
			c-0.365,0.645-0.547,1.4-0.547,2.269c0,0.672,0.105,1.267,0.314,1.785c0.211,0.518,0.553,0.986,1.029,1.406
			s1.12,0.812,1.933,1.177c0.812,0.364,1.806,0.729,2.981,1.092c1.148,0.364,2.262,0.756,3.34,1.176
			c1.077,0.42,2.029,0.952,2.855,1.596c0.826,0.645,1.484,1.449,1.975,2.415c0.488,0.966,0.734,2.178,0.734,3.633
			c0,1.485-0.294,2.772-0.882,3.864s-1.365,1.995-2.331,2.709c-0.967,0.714-2.079,1.246-3.339,1.597
			c-1.261,0.35-2.562,0.524-3.906,0.524c-0.868,0-1.736-0.077-2.604-0.23c-0.867-0.154-1.701-0.393-2.498-0.715
			c-0.799-0.321-1.548-0.741-2.248-1.26c-0.699-0.518-1.301-1.154-1.805-1.911l3.023-2.478c0.644,1.092,1.539,1.918,2.688,2.478
			c1.148,0.561,2.366,0.841,3.654,0.841c0.756,0,1.519-0.112,2.289-0.337c0.77-0.224,1.463-0.552,2.079-0.986
			c0.616-0.434,1.12-0.973,1.512-1.617c0.392-0.644,0.589-1.386,0.589-2.226c0-0.925-0.154-1.673-0.463-2.247
			s-0.784-1.071-1.428-1.491c-0.645-0.42-1.456-0.798-2.436-1.134c-0.98-0.336-2.129-0.729-3.444-1.177
			c-1.064-0.336-2.044-0.72-2.94-1.154s-1.674-0.967-2.33-1.597c-0.658-0.63-1.177-1.386-1.555-2.268s-0.566-1.938-0.566-3.171
			c0-1.428,0.279-2.674,0.84-3.738c0.56-1.063,1.315-1.953,2.268-2.667c0.951-0.714,2.029-1.253,3.234-1.617
			c1.203-0.363,2.463-0.546,3.779-0.546c1.68,0,3.213,0.26,4.6,0.777c1.386,0.519,2.625,1.421,3.717,2.709L1277.772,661.94z"/>
		<path d="M1287.013,656.69h18.69v3.276h-15.162v9.324h14.153v3.275h-14.153v10.584h15.918v3.276h-19.446V656.69z"/>
	</g>
	
		<rect x="929.284" y="711.339" fill="none" stroke="#BE1E2D" stroke-width="4" stroke-miterlimit="10" width="16.667" height="16.667"/>
	<g>
		<line fill="none" stroke="#BE1E2D" stroke-width="2" stroke-miterlimit="10" x1="937.784" y1="848" x2="937.784" y2="842"/>
		
			<line fill="none" stroke="#BE1E2D" stroke-width="2" stroke-miterlimit="10" stroke-dasharray="12.9251,12.9251" x1="937.784" y1="829.075" x2="937.784" y2="732.136"/>
		<polyline fill="none" stroke="#BE1E2D" stroke-width="2" stroke-miterlimit="10" points="937.784,725.673 937.784,719.673 
			931.784,719.673 		"/>
		
			<line fill="none" stroke="#BE1E2D" stroke-width="2" stroke-miterlimit="10" stroke-dasharray="7.3314,7.3314" x1="924.453" y1="719.673" x2="913.456" y2="719.673"/>
		<line fill="none" stroke="#BE1E2D" stroke-width="2" stroke-miterlimit="10" x1="909.79" y1="719.673" x2="903.79" y2="719.673"/>
	</g>
	
		<rect x="929.284" y="338.022" fill="none" stroke="#BE1E2D" stroke-width="4" stroke-miterlimit="10" width="16.667" height="16.667"/>
	<g>
		
			<line fill="none" stroke="#BE1E2D" stroke-width="2" stroke-miterlimit="10" x1="937.784" y1="148.035" x2="937.784" y2="154.035"/>
		
			<line fill="none" stroke="#BE1E2D" stroke-width="2" stroke-miterlimit="10" stroke-dasharray="12.4214,12.4214" x1="937.784" y1="166.456" x2="937.784" y2="334.145"/>
		<polyline fill="none" stroke="#BE1E2D" stroke-width="2" stroke-miterlimit="10" points="937.784,340.355 937.784,346.355 
			931.784,346.355 		"/>
		
			<line fill="none" stroke="#BE1E2D" stroke-width="2" stroke-miterlimit="10" stroke-dasharray="7.3314,7.3314" x1="924.453" y1="346.355" x2="913.456" y2="346.355"/>
		<line fill="none" stroke="#BE1E2D" stroke-width="2" stroke-miterlimit="10" x1="909.79" y1="346.355" x2="903.79" y2="346.355"/>
	</g>
	<path fill="none" stroke="#000000" stroke-width="3" stroke-miterlimit="10" d="M1140.608,380.179c7-3,12-11,12-17v-71c0-5-3-8-7-8
		c-2,0-3,0-5,1c0,0-20,8-25,9c-7,0-14-5-14-13c0-10,0-122,0-122c0-6-6-11-14-11c-10,0-16,5-16,11c0,0,0,120,0,130c-1,10-4,23-13,29
		c-12,7-46,21-63,25c-9,0-12-12-12-20c0-10,0-120,0-120c0-6-7-11-14-11c-10,0-16,5-16,11c0,0,0,54,0,94v41c0,14-6,24-12,27
		s-26,11-26,11c-7,2-12,10-12,16v71c0,6,3,9,8,9c1,0,3-1,4-1c0,0,15-6,22-10c1,0,2-1,3-1c7,0,13,10,13,18v99c0,11-5,20-11,23
		c-6,2-27,11-27,11c-7,2-12,10-12,16v71c0,6,3,9,8,9c1,0,3-1,4-1c0,0,14-6,23-9c1-1,2-1,3-1c7,0,12,11,12,16c0,6,0,123,0,123
		c0,6,6,11,13,11c10,0,17-5,17-11c0,0,0-127,0-139c0-13,5-20,10-22l61-25c1,0,3-1,4-1c8,0,13,12,13,18c0,7,0,125,0,125
		c0,6,6,11,13,11c11,0,17-5,17-11c0,0,0-135,0-142c0-8,4-20,11-23s28-11,28-11c7-3,12-11,12-17v-71c0-5-3-8-7-8c-2,0-3,0-5,1
		c0,0-21,8-26,10c-6,0-13-6-13-18v-93c0-7,5-26,13-29S1140.608,380.179,1140.608,380.179L1140.608,380.179z M1071.608,543.178
		c-6,20-53,40-76,40c-6,0-11-2-12-5c-2-4-3-26-3-50c0-31,1-66,3-74c2-17,48-38,73-38c7,0,13,2,15,6c2,5,4,30,4,57
		S1073.608,534.178,1071.608,543.178z"/>
</g>
<g id="Layer_4" display="none">
	<g display="inline">
		<path fill="#010101" d="M840.726,417.925H-206.486v-5.084H840.726V417.925z M840.726,377.241H-206.486v-5.083H840.726V377.241z
			 M840.726,336.558H-206.486v-5.083H840.726V336.558z M840.726,295.882H-206.486v-5.083H840.726V295.882z M840.726,255.199
			H-206.486v-5.083H840.726V255.199z"/>
		<rect x="273.114" y="181.465" fill="#010101" width="6.362" height="227.555"/>
		<g>
			<path fill="#010101" d="M224.178,422.623c0-15.783,16.109-30.591,36.124-30.591c10.577,0,17.899,6.021,17.899,15.295
				c0,15.458-20.015,30.591-36.287,30.591C231.988,437.918,224.178,432.223,224.178,422.623z"/>
		</g>
		<g>
			<path fill="#010101" d="M224.178,320.957c0-15.784,16.109-30.591,36.124-30.591c10.577,0,17.899,6.021,17.899,15.295
				c0,15.458-20.015,30.591-36.287,30.591C231.988,336.252,224.178,330.557,224.178,320.957z"/>
		</g>
		<g>
			<path fill="#010101" d="M212.127,284.182v1.465V297.2v23.432v13.018v32.219c0,1.139-0.977,1.953-1.953,1.953h-2.115
				c-1.139,0-1.953-0.814-1.953-1.953c0,0,0-20.828,0-24.245c0-5.37-18.388,2.929-19.364,3.254
				c-1.139,0.326-1.953-0.163-1.953-1.302v-1.79v-11.228v-23.432v-13.018v-34.333c0-1.139,0.813-1.953,1.953-1.953h2.115
				c0.977,0,1.953,0.813,1.953,1.953c0,0,0,24.408,0,27.174c0,2.929,16.272-2.929,16.272-2.929c0.163,0,0.326-0.163,0.651-0.163
				l2.441-0.813C211.15,282.555,212.127,283.206,212.127,284.182z M206.106,318.028c0-3.58,0-13.506,0-16.76
				c0-3.092-15.296,2.929-15.296,5.695s0,13.506,0,16.76S206.106,321.771,206.106,318.028z"/>
		</g>
		<g>
			<path fill="#010101" d="M142.78,348.911c0.325-5.207,8.136-6.021,8.136-1.79c0,3.254-0.976,42.307-1.139,45.887
				c0,1.139,0.651,2.278,1.79,2.766c1.79,0.651,3.254-1.139,4.393-2.115c1.79-1.139,3.743-1.79,5.533-2.278
				c1.139-0.326,2.278-0.488,3.417-0.488c7.648,0.488,14.808,6.509,14.645,15.621c0,7.485-5.044,17.411-19.689,27.336
				c-3.905,2.93-7.811,7.323-12.692,10.089c0,0-1.139,0.977-2.441-0.488C143.431,441.824,142.78,348.911,142.78,348.911z
				 M153.845,430.921c4.881-3.092,9.601-8.299,11.716-12.204c3.905-7.159,3.254-13.994,0.163-17.411
				c-1.79-2.115-4.881-2.441-8.299-0.651c-2.278,1.302-6.509,4.882-7.159,6.834c-0.651,2.278,0.163,21.479,0.163,21.479
				C150.428,430.108,151.079,432.386,153.845,430.921z"/>
		</g>
		<rect x="611.274" y="181.465" fill="#010101" width="6.362" height="227.555"/>
		<g>
			<path fill="#010101" d="M562.372,422.623c0-15.783,16.109-30.591,36.124-30.591c10.576,0,17.899,6.021,17.899,15.295
				c0,15.458-20.015,30.591-36.287,30.591C570.183,437.918,562.372,432.223,562.372,422.623z"/>
		</g>
		<g>
			<path fill="#010101" d="M562.372,320.957c0-15.784,16.109-30.591,36.124-30.591c10.576,0,17.899,6.021,17.899,15.295
				c0,15.458-20.015,30.591-36.287,30.591C570.183,336.252,562.372,330.557,562.372,320.957z"/>
		</g>
		<g>
			<path fill="#010101" d="M550.189,284.182v1.465V297.2v23.432v13.018v32.219c0,1.139-0.977,1.953-1.953,1.953h-2.115
				c-1.139,0-1.953-0.814-1.953-1.953c0,0,0-20.828,0-24.245c0-5.37-18.388,2.929-19.364,3.254
				c-1.139,0.326-1.953-0.163-1.953-1.302v-1.79v-11.228v-23.432v-13.018v-34.333c0-1.139,0.813-1.953,1.953-1.953h2.115
				c0.977,0,1.953,0.813,1.953,1.953c0,0,0,24.408,0,27.174c0,2.929,16.272-2.929,16.272-2.929c0.163,0,0.326-0.163,0.651-0.163
				l2.441-0.813C549.213,282.555,550.189,283.206,550.189,284.182z M544.169,318.028c0-3.58,0-13.506,0-16.76
				c0-3.092-15.296,2.929-15.296,5.695s0,13.506,0,16.76S544.169,321.771,544.169,318.028z"/>
		</g>
	</g>
	
		<rect x="184.882" y="258.512" display="inline" fill="none" stroke="#68CEF6" stroke-width="2" stroke-miterlimit="10" width="26.82" height="109.418"/>
	
		<rect x="142.882" y="345.512" display="inline" fill="none" stroke="#68CEF6" stroke-width="2" stroke-miterlimit="10" width="36.82" height="99.418"/>
	
		<rect x="523.882" y="258.512" display="inline" fill="none" stroke="#68CEF6" stroke-width="2" stroke-miterlimit="10" width="26.82" height="109.418"/>
	
		<rect x="501.882" y="345.512" display="inline" fill="none" stroke="#68CEF6" stroke-width="2" stroke-miterlimit="10" width="36.82" height="99.418"/>
	<g display="inline">
		
			<line fill="none" stroke="#BE1E2D" stroke-width="2" stroke-miterlimit="10" x1="532.634" y1="259.035" x2="532.634" y2="262.035"/>
		
			<line fill="none" stroke="#BE1E2D" stroke-width="2" stroke-miterlimit="10" stroke-dasharray="5.5535,5.5535" x1="532.634" y1="267.589" x2="532.634" y2="275.919"/>
		<polyline fill="none" stroke="#BE1E2D" stroke-width="2" stroke-miterlimit="10" points="532.634,278.696 532.634,281.696 
			535.634,281.696 		"/>
		
			<line fill="none" stroke="#BE1E2D" stroke-width="2" stroke-miterlimit="10" stroke-dasharray="3.9982,3.9982" x1="539.632" y1="281.696" x2="545.629" y2="281.696"/>
		
			<line fill="none" stroke="#BE1E2D" stroke-width="2" stroke-miterlimit="10" x1="547.628" y1="281.696" x2="550.628" y2="281.696"/>
	</g>
	<g display="inline">
		
			<line fill="none" stroke="#BE1E2D" stroke-width="2" stroke-miterlimit="10" x1="511.634" y1="345.702" x2="511.634" y2="348.702"/>
		
			<line fill="none" stroke="#BE1E2D" stroke-width="2" stroke-miterlimit="10" stroke-dasharray="5.3325,5.3325" x1="511.634" y1="354.034" x2="511.634" y2="383.363"/>
		<polyline fill="none" stroke="#BE1E2D" stroke-width="2" stroke-miterlimit="10" points="511.634,386.029 511.634,389.029 
			514.634,389.029 		"/>
		
			<line fill="none" stroke="#BE1E2D" stroke-width="2" stroke-miterlimit="10" stroke-dasharray="6.9982,6.9982" x1="521.632" y1="389.029" x2="532.129" y2="389.029"/>
		
			<line fill="none" stroke="#BE1E2D" stroke-width="2" stroke-miterlimit="10" x1="535.628" y1="389.029" x2="538.628" y2="389.029"/>
	</g>
	<g display="inline">
		
			<line fill="none" stroke="#BE1E2D" stroke-width="2" stroke-miterlimit="10" x1="541.962" y1="368.362" x2="541.962" y2="365.362"/>
		
			<line fill="none" stroke="#BE1E2D" stroke-width="2" stroke-miterlimit="10" stroke-dasharray="5.1089,5.1089" x1="541.962" y1="360.253" x2="541.962" y2="352.589"/>
		<polyline fill="none" stroke="#BE1E2D" stroke-width="2" stroke-miterlimit="10" points="541.962,350.035 541.962,347.035 
			538.962,347.035 		"/>
		
			<line fill="none" stroke="#BE1E2D" stroke-width="2" stroke-miterlimit="10" stroke-dasharray="3.9982,3.9982" x1="534.964" y1="347.035" x2="528.967" y2="347.035"/>
		
			<line fill="none" stroke="#BE1E2D" stroke-width="2" stroke-miterlimit="10" x1="526.968" y1="347.035" x2="523.968" y2="347.035"/>
	</g>
	<g display="inline">
		<path fill="#010101" d="M501.97,349.577c0.325-5.207,8.136-6.021,8.136-1.79c0,3.254-0.977,42.307-1.139,45.887
			c0,1.139,0.65,2.278,1.79,2.766c1.789,0.651,3.254-1.139,4.393-2.115c1.79-1.139,3.743-1.79,5.533-2.278
			c1.139-0.326,2.277-0.488,3.417-0.488c7.647,0.488,14.808,6.509,14.645,15.621c0,7.484-5.044,17.41-19.689,27.336
			c-3.905,2.93-7.811,7.324-12.691,10.09c0,0-1.14,0.977-2.441-0.488C502.62,442.491,501.97,349.577,501.97,349.577z
			 M513.034,431.588c4.882-3.092,9.601-8.299,11.716-12.205c3.905-7.158,3.255-13.993,0.163-17.41
			c-1.79-2.115-4.882-2.441-8.299-0.651c-2.278,1.302-6.509,4.882-7.159,6.834c-0.651,2.278,0.162,21.479,0.162,21.479
			C509.617,430.774,510.269,433.053,513.034,431.588z"/>
	</g>
	<g display="inline">
		
			<line fill="none" stroke="#A4A4A4" stroke-width="2" stroke-miterlimit="10" x1="211.491" y1="172.032" x2="211.491" y2="175.032"/>
		
			<line fill="none" stroke="#A4A4A4" stroke-width="2" stroke-miterlimit="10" stroke-dasharray="6.0585,6.0585" x1="211.491" y1="181.091" x2="211.491" y2="480.988"/>
		
			<line fill="none" stroke="#A4A4A4" stroke-width="2" stroke-miterlimit="10" x1="211.491" y1="484.017" x2="211.491" y2="487.017"/>
	</g>
	<g display="inline">
		
			<line fill="none" stroke="#A4A4A4" stroke-width="2" stroke-miterlimit="10" x1="180.158" y1="172.032" x2="180.158" y2="175.032"/>
		
			<line fill="none" stroke="#A4A4A4" stroke-width="2" stroke-miterlimit="10" stroke-dasharray="6.0585,6.0585" x1="180.158" y1="181.091" x2="180.158" y2="480.988"/>
		
			<line fill="none" stroke="#A4A4A4" stroke-width="2" stroke-miterlimit="10" x1="180.158" y1="484.017" x2="180.158" y2="487.017"/>
	</g>
	<g display="inline">
		
			<line fill="none" stroke="#A4A4A4" stroke-width="2" stroke-miterlimit="10" x1="550.158" y1="172.032" x2="550.158" y2="175.032"/>
		
			<line fill="none" stroke="#A4A4A4" stroke-width="2" stroke-miterlimit="10" stroke-dasharray="6.0585,6.0585" x1="550.158" y1="181.091" x2="550.158" y2="480.988"/>
		
			<line fill="none" stroke="#A4A4A4" stroke-width="2" stroke-miterlimit="10" x1="550.158" y1="484.017" x2="550.158" y2="487.017"/>
	</g>
	<g display="inline">
		
			<line fill="none" stroke="#A4A4A4" stroke-width="2" stroke-miterlimit="10" x1="538.825" y1="172.032" x2="538.825" y2="175.032"/>
		
			<line fill="none" stroke="#A4A4A4" stroke-width="2" stroke-miterlimit="10" stroke-dasharray="6.0585,6.0585" x1="538.825" y1="181.091" x2="538.825" y2="480.988"/>
		
			<line fill="none" stroke="#A4A4A4" stroke-width="2" stroke-miterlimit="10" x1="538.825" y1="484.017" x2="538.825" y2="487.017"/>
	</g>
	<g display="inline">
		<path fill="#A4A4A4" d="M215.778,497.957c0,4.421-1.66,6.861-4.521,6.861c-2.541,0-4.281-2.38-4.321-6.681
			c0-4.382,1.9-6.762,4.541-6.762C214.198,491.375,215.778,493.816,215.778,497.957z M208.716,498.157
			c0,3.381,1.04,5.301,2.641,5.301c1.78,0,2.641-2.1,2.641-5.421c0-3.2-0.8-5.301-2.641-5.301
			C209.836,492.736,208.716,494.616,208.716,498.157z"/>
	</g>
	<g display="inline">
		<path fill="#A4A4A4" d="M180.27,493.236h-0.04l-2.261,1.22l-0.34-1.34l2.84-1.521h1.5v13.003h-1.7V493.236z"/>
	</g>
	<g display="inline">
		<path fill="#A4A4A4" d="M555.111,497.957c0,4.421-1.66,6.861-4.521,6.861c-2.541,0-4.281-2.38-4.321-6.681
			c0-4.382,1.9-6.762,4.541-6.762C553.531,491.375,555.111,493.816,555.111,497.957z M548.049,498.157
			c0,3.381,1.04,5.301,2.641,5.301c1.78,0,2.641-2.1,2.641-5.421c0-3.2-0.8-5.301-2.641-5.301
			C549.169,492.736,548.049,494.616,548.049,498.157z"/>
	</g>
	<g display="inline">
		<path fill="#A4A4A4" d="M538.27,493.902h-0.04l-2.261,1.22l-0.34-1.34l2.84-1.521h1.5v13.003h-1.7V493.902z"/>
	</g>
</g>
</svg>
