<?xml version="1.0" encoding="utf-8"?>
<!-- Generator: Adobe Illustrator 16.0.4, SVG Export Plug-In . SVG Version: 6.00 Build 0)  -->
<!DOCTYPE svg PUBLIC "-//W3C//DTD SVG 1.1 Tiny//EN" "http://www.w3.org/Graphics/SVG/1.1/DTD/svg11-tiny.dtd">
<svg version="1.1" baseProfile="tiny" xmlns="http://www.w3.org/2000/svg" xmlns:xlink="http://www.w3.org/1999/xlink" x="0px"
	 y="0px" width="676px" height="364px" viewBox="0 0 676 364" xml:space="preserve">
<g id="Staff_lines">
	<path fill="#ABABAB" d="M655.844,206.133H18.632v-5.084h637.212V206.133z M655.844,165.449H18.632v-5.083h637.212V165.449z
		 M655.844,124.766H18.632v-5.083h637.212V124.766z M655.844,84.09H18.632v-5.083h637.212V84.09z M655.844,43.407H18.632v-5.083
		h637.212V43.407z"/>
</g>
<g id="Music">
	
		<rect x="501.333" y="139.805" fill="none" stroke="#68CEF6" stroke-width="1.644" stroke-miterlimit="10" width="53" height="46.667"/>
	<g>
		<path fill="none" stroke="#010101" d="M500.571,171.335c0-15.783,16.109-30.591,36.124-30.591
			c10.577,0,17.899,6.021,17.899,15.295c0,15.458-20.015,30.591-36.287,30.591C508.382,186.631,500.571,180.936,500.571,171.335z"/>
	</g>
	<g>
		
			<line fill="none" stroke="#A4A4A4" stroke-width="1.8095" stroke-miterlimit="10" x1="527.583" y1="17.383" x2="527.583" y2="20.097"/>
		
			<line fill="none" stroke="#A4A4A4" stroke-width="1.8095" stroke-miterlimit="10" stroke-dasharray="5.4721,5.4721" x1="527.583" y1="25.569" x2="527.583" y2="230.774"/>
		
			<line fill="none" stroke="#A4A4A4" stroke-width="1.8095" stroke-miterlimit="10" x1="527.583" y1="233.51" x2="527.583" y2="236.225"/>
	</g>
	
		<rect x="104.822" y="139.805" fill="none" stroke="#68CEF6" stroke-width="1.644" stroke-miterlimit="10" width="53" height="46.667"/>
	<g>
		<path fill="none" stroke="#010101" d="M104.06,171.335c0-15.783,16.109-30.591,36.124-30.591c10.577,0,17.899,6.021,17.899,15.295
			c0,15.458-20.015,30.591-36.287,30.591C111.87,186.631,104.06,180.936,104.06,171.335z"/>
	</g>
	<g>
		
			<line fill="none" stroke="#A4A4A4" stroke-width="1.81" stroke-miterlimit="10" x1="131.071" y1="17.383" x2="131.071" y2="20.097"/>
		
			<line fill="none" stroke="#A4A4A4" stroke-width="1.81" stroke-miterlimit="10" stroke-dasharray="5.5234,5.5234" x1="131.071" y1="25.621" x2="131.071" y2="232.749"/>
		
			<line fill="none" stroke="#A4A4A4" stroke-width="1.81" stroke-miterlimit="10" x1="131.071" y1="235.51" x2="131.071" y2="238.225"/>
	</g>
	<rect x="151.721" y="30.673" fill="none" stroke="#010101" stroke-miterlimit="10" width="6.362" height="127.555"/>
	
		<rect x="296.822" y="139.805" fill="none" stroke="#68CEF6" stroke-width="1.644" stroke-miterlimit="10" width="53" height="46.667"/>
	<g>
		<path fill="none" stroke="#010101" d="M296.06,171.335c0-15.783,16.109-30.591,36.124-30.591c10.577,0,17.899,6.021,17.899,15.295
			c0,15.458-20.015,30.591-36.287,30.591C303.87,186.631,296.06,180.936,296.06,171.335z"/>
	</g>
	<g>
		
			<line fill="none" stroke="#A4A4A4" stroke-width="1.81" stroke-miterlimit="10" x1="323.071" y1="17.383" x2="323.071" y2="20.097"/>
		
			<line fill="none" stroke="#A4A4A4" stroke-width="1.81" stroke-miterlimit="10" stroke-dasharray="5.5234,5.5234" x1="323.071" y1="25.621" x2="323.071" y2="232.749"/>
		
			<line fill="none" stroke="#A4A4A4" stroke-width="1.81" stroke-miterlimit="10" x1="323.071" y1="235.51" x2="323.071" y2="238.225"/>
	</g>
	<rect x="343.721" y="30.673" fill="none" stroke="#010101" stroke-miterlimit="10" width="6.362" height="127.555"/>
	<rect x="548.232" y="30.673" fill="none" stroke="#010101" stroke-miterlimit="10" width="6.362" height="127.555"/>
</g>
<g id="pp_dynamic">
	
		<rect x="444.527" y="238.608" fill="none" stroke="#68CEF6" stroke-width="3.137" stroke-miterlimit="10" width="134.033" height="67.191"/>
	
		<line fill="none" stroke="#68CEF6" stroke-width="2" stroke-miterlimit="10" stroke-dasharray="8,8" x1="458.685" y1="237.475" x2="458.685" y2="306.545"/>
	
		<line fill="none" stroke="#68CEF6" stroke-width="2" stroke-miterlimit="10" stroke-dasharray="8,8" x1="579.167" y1="284.344" x2="445.15" y2="284.344"/>
	
		<line fill="none" stroke="#BE1E2D" stroke-width="1.75" stroke-miterlimit="10" stroke-dasharray="5.2,5.2" x1="527.759" y1="238.334" x2="527.759" y2="307.001"/>
	
		<line fill="none" stroke="#68CEF6" stroke-width="1.75" stroke-miterlimit="10" stroke-dasharray="5.2,5.2" x1="322.759" y1="237.334" x2="322.759" y2="306.001"/>
	
		<line fill="none" stroke="#68CEF6" stroke-width="1.75" stroke-miterlimit="10" stroke-dasharray="5.2,5.2" x1="130.759" y1="237.334" x2="130.759" y2="306.001"/>
	
		<rect x="249.027" y="238.608" fill="none" stroke="#68CEF6" stroke-width="3.137" stroke-miterlimit="10" width="134.033" height="67.191"/>
	
		<line fill="none" stroke="#68CEF6" stroke-width="2" stroke-miterlimit="10" stroke-dasharray="8,8" x1="263.185" y1="237.475" x2="263.185" y2="306.545"/>
	
		<line fill="none" stroke="#68CEF6" stroke-width="2" stroke-miterlimit="10" stroke-dasharray="8,8" x1="383.667" y1="284.344" x2="249.65" y2="284.344"/>
	
		<rect x="63.527" y="238.608" fill="none" stroke="#68CEF6" stroke-width="3.137" stroke-miterlimit="10" width="134.033" height="67.191"/>
	<g>
		<path d="M83.792,329.699h5.426c1.617,0,3.25,1.009,3.25,2.897c0,1.152-0.672,2.145-1.729,2.449
			c0.896,0.271,2.065,0.944,2.065,2.833c0,2.513-2.129,3.121-3.538,3.121h-5.474V329.699z M88.562,334.453
			c1.008,0,2.321-0.191,2.321-1.776c0-0.929-0.528-1.648-1.937-1.648h-3.729v3.425H88.562z M88.883,339.672
			c1.104,0,2.369-0.177,2.369-1.905c0-1.36-0.96-2.033-2.321-2.033h-3.713v3.938H88.883z"/>
		<path d="M98.354,333.221c1.761,0,3.585,1.232,3.585,3.938s-1.681,4.082-3.697,4.082c-2.113,0-3.698-1.409-3.698-4.002
			C94.544,336.022,95.088,333.221,98.354,333.221z M98.226,340.216c1.537,0,2.337-1.2,2.337-3.153c0-1.297-0.512-2.817-2.225-2.817
			c-2.385,0-2.401,2.577-2.401,3.058C95.937,338.199,96.208,340.216,98.226,340.216z"/>
		<path d="M108.578,341v-1.152c-0.56,0.832-1.569,1.345-2.561,1.345c-0.272,0-1.44-0.048-2.017-0.993
			c-0.353-0.592-0.384-1.248-0.384-1.889v-4.85h1.264v4.29c0,0.8,0,1.152,0.176,1.521c0.16,0.32,0.56,0.72,1.376,0.72
			c0.288,0,1.249-0.063,1.793-0.864c0.368-0.544,0.368-1.185,0.368-1.809v-3.857h1.249V341H108.578z"/>
		<path d="M116.93,341v-4.946c0-1.168-0.833-1.633-1.713-1.633c-1.056,0-2.001,0.769-2.001,2.113V341h-1.28v-7.539h1.28v1.104
			c0.32-0.561,1.073-1.345,2.369-1.345c0.336,0,1.473,0.096,2.145,1.041c0.432,0.607,0.464,1.264,0.464,1.969V341H116.93z"/>
		<path d="M125.922,341v-0.96c-0.384,0.448-1.088,1.2-2.577,1.2c-2.209,0-3.474-1.697-3.474-4.034c0-2.929,1.921-3.985,3.458-3.985
			c1.376,0,2.321,0.801,2.593,1.232v-4.754h1.28V341H125.922z M123.601,340.104c1.121,0,2.353-0.672,2.353-2.978
			c0-1.552-0.896-2.736-2.321-2.736c-1.729,0-2.385,1.44-2.385,2.865C121.249,338.583,121.776,340.104,123.601,340.104z"/>
		<path d="M129.344,331.172v-1.473h1.232v1.473H129.344z M129.344,341v-7.539h1.232V341H129.344z"/>
		<path d="M137.586,341v-4.946c0-1.168-0.833-1.633-1.713-1.633c-1.056,0-2.001,0.769-2.001,2.113V341h-1.28v-7.539h1.28v1.104
			c0.32-0.561,1.073-1.345,2.369-1.345c0.336,0,1.473,0.096,2.145,1.041c0.432,0.607,0.464,1.264,0.464,1.969V341H137.586z"/>
		<path d="M147.859,341.145c0,2.784-1.745,3.521-3.521,3.521c-1.745,0-3.249-0.864-3.425-2.801h1.441
			c0,1.185,0.864,1.761,2.081,1.761c1.601,0,2.097-0.849,2.097-2.272v-1.457c-0.864,1.185-1.873,1.345-2.481,1.345
			c-1.92,0-3.489-1.44-3.489-3.97c0-1.761,0.8-4.05,3.505-4.05c0.944,0,1.745,0.433,2.465,1.265v-1.024h1.329V341.145z
			 M144.209,334.373c-1.296,0-2.337,0.977-2.337,2.865c0,1.601,0.736,2.85,2.385,2.85c1.649,0,2.321-1.329,2.321-2.962
			C146.579,335.397,145.586,334.373,144.209,334.373z"/>
		<path d="M155.553,333.461v1.377c0.176-0.337,0.4-0.625,0.705-0.864c0.304-0.24,0.896-0.608,1.873-0.608v1.376
			c-0.16-0.032-0.336-0.048-0.496-0.048c-0.913,0-1.713,0.496-1.969,1.425c-0.096,0.384-0.112,0.656-0.112,1.393V341h-1.28v-7.539
			H155.553z"/>
		<path d="M160.241,337.559c0,1.169,0.64,2.721,2.449,2.721c1.329,0,1.825-1.072,1.985-1.761l1.296,0.177
			c-0.176,0.528-0.88,2.545-3.409,2.545c-1.857,0-3.698-1.104-3.698-4.082c0-2.865,2.081-3.938,3.65-3.938
			c1.648,0,3.457,1.104,3.457,4.034v0.208h-5.73V337.559z M164.578,336.534c0-1.248-0.88-2.321-2.161-2.321
			c-1.36,0-2.033,1.121-2.145,2.321H164.578z"/>
		<path d="M174.483,338.279c-0.416,2.192-1.825,2.961-3.554,2.961c-2.369,0-3.729-1.648-3.729-3.954
			c0-2.257,1.233-4.065,3.666-4.065c2.273,0,3.282,1.44,3.474,2.529l-1.409,0.128c-0.192-1.104-0.928-1.729-2.049-1.729
			c-1.152,0-2.273,0.769-2.273,3.057c0,1.793,0.8,3.042,2.353,3.042c1.44,0,2.001-0.913,2.145-2.098L174.483,338.279z"/>
		<path d="M177.697,339.367c0,0.544,0.16,0.753,0.56,0.753c0.144,0,0.448-0.049,0.8-0.177V341c-0.112,0.016-0.72,0.128-1.216,0.128
			c-1.249,0-1.457-0.496-1.457-1.36v-5.25h-1.217v-1.057h1.217v-2.385h1.312v2.385h1.36v1.057h-1.36V339.367z"/>
	</g>
	<g>
		<path d="M281.307,341l-1.232-3.457h-4.306L274.504,341h-1.601l4.306-11.301h1.569L282.892,341H281.307z M277.978,331.557
			l-1.729,4.722h3.377L277.978,331.557z"/>
		<path d="M289.754,341v-0.96c-0.384,0.448-1.088,1.2-2.577,1.2c-2.209,0-3.474-1.697-3.474-4.034c0-2.929,1.921-3.985,3.458-3.985
			c1.376,0,2.321,0.801,2.593,1.232v-4.754h1.28V341H289.754z M287.433,340.104c1.121,0,2.353-0.672,2.353-2.978
			c0-1.552-0.896-2.736-2.321-2.736c-1.729,0-2.385,1.44-2.385,2.865C285.081,338.583,285.608,340.104,287.433,340.104z"/>
		<path d="M296.169,341h-1.152l-2.753-7.539h1.329l2.001,5.778l1.985-5.778h1.312L296.169,341z"/>
		<path d="M304.602,336.23c0-0.705-0.016-2.033-1.681-2.033c-1.056,0-1.632,0.528-1.632,1.473v0.112l-1.329-0.08
			c0-0.368,0.224-2.481,2.897-2.481c0.464,0,1.265,0.08,1.889,0.448c1.073,0.608,1.137,1.393,1.137,2.737v2.657
			c0,0.448,0.016,0.88,0.576,0.88c0.16,0,0.24-0.032,0.384-0.063v1.072c-0.384,0.128-0.608,0.144-0.816,0.144
			c-0.064,0-0.528,0-0.8-0.191c-0.304-0.225-0.496-0.705-0.512-0.929c-0.352,0.384-1.121,1.232-2.577,1.232
			c-1.504,0-2.561-0.864-2.561-2.161c0-0.352,0.096-1.088,0.816-1.633c0.768-0.576,2.097-0.784,3.057-0.848l1.152-0.08V336.23z
			 M301.913,337.862c-0.24,0.097-0.928,0.417-0.928,1.153c0,0.56,0.416,1.12,1.424,1.12c0.688,0,2.209-0.288,2.209-2.225v-0.593
			C304.026,337.414,302.505,337.606,301.913,337.862z"/>
		<path d="M313.083,341v-4.946c0-1.168-0.833-1.633-1.713-1.633c-1.056,0-2.001,0.769-2.001,2.113V341h-1.28v-7.539h1.28v1.104
			c0.32-0.561,1.073-1.345,2.369-1.345c0.336,0,1.473,0.096,2.145,1.041c0.432,0.607,0.464,1.264,0.464,1.969V341H313.083z"/>
		<path d="M323.307,338.279c-0.416,2.192-1.825,2.961-3.554,2.961c-2.369,0-3.729-1.648-3.729-3.954
			c0-2.257,1.233-4.065,3.666-4.065c2.273,0,3.282,1.44,3.474,2.529l-1.409,0.128c-0.192-1.104-0.928-1.729-2.049-1.729
			c-1.152,0-2.273,0.769-2.273,3.057c0,1.793,0.8,3.042,2.353,3.042c1.44,0,2.001-0.913,2.145-2.098L323.307,338.279z"/>
		<path d="M325.737,337.559c0,1.169,0.64,2.721,2.449,2.721c1.329,0,1.825-1.072,1.985-1.761l1.296,0.177
			c-0.176,0.528-0.88,2.545-3.409,2.545c-1.857,0-3.698-1.104-3.698-4.082c0-2.865,2.081-3.938,3.65-3.938
			c1.648,0,3.457,1.104,3.457,4.034v0.208h-5.73V337.559z M330.074,336.534c0-1.248-0.88-2.321-2.161-2.321
			c-1.36,0-2.033,1.121-2.145,2.321H330.074z"/>
		<path d="M345.147,341h-1.121l-1.809-5.618L340.377,341h-1.168l-2.625-7.539h1.376l1.889,5.603l1.857-5.603h1.12l1.777,5.603
			l1.969-5.603h1.345L345.147,341z"/>
		<path d="M349.176,331.172v-1.473h1.232v1.473H349.176z M349.176,341v-7.539h1.232V341H349.176z"/>
		<path d="M358.075,341v-0.96c-0.384,0.448-1.088,1.2-2.577,1.2c-2.209,0-3.474-1.697-3.474-4.034c0-2.929,1.921-3.985,3.458-3.985
			c1.376,0,2.321,0.801,2.593,1.232v-4.754h1.28V341H358.075z M355.753,340.104c1.121,0,2.353-0.672,2.353-2.978
			c0-1.552-0.896-2.736-2.321-2.736c-1.729,0-2.385,1.44-2.385,2.865C353.401,338.583,353.929,340.104,355.753,340.104z"/>
		<path d="M363.177,339.367c0,0.544,0.16,0.753,0.56,0.753c0.144,0,0.448-0.049,0.8-0.177V341c-0.112,0.016-0.72,0.128-1.216,0.128
			c-1.249,0-1.457-0.496-1.457-1.36v-5.25h-1.217v-1.057h1.217v-2.385h1.312v2.385h1.36v1.057h-1.36V339.367z"/>
		<path d="M371.099,341v-4.418c0-0.416-0.016-0.88-0.144-1.248c-0.24-0.673-0.833-0.992-1.521-0.992
			c-0.32,0-1.185,0.096-1.681,0.944c-0.352,0.607-0.352,1.312-0.352,1.969V341h-1.28v-11.301h1.28v4.53
			c0.864-0.944,1.761-1.009,2.289-1.009c2.289,0,2.705,1.633,2.705,2.897V341H371.099z"/>
	</g>
	<g>
		<path d="M458.346,341.24c-2.913,0-4.162-2.321-4.162-4.273c0-1.921,1.265-4.21,4.098-4.21c1.745,0,4.114,1.168,4.13,4.21
			C462.412,339.111,461.067,341.24,458.346,341.24z M458.346,339.479c1.409,0,2.065-1.2,2.065-2.417c0-1.28-0.688-2.577-2.161-2.577
			c-1.121,0-2.065,0.816-2.065,2.433C456.185,338.327,456.969,339.479,458.346,339.479z"/>
		<path d="M465.897,332.997v0.72c0.32-0.336,0.976-0.96,2.193-0.96c0.512,0,1.648,0.096,2.561,1.168
			c0.416,0.496,1.072,1.537,1.072,3.138c0,0.432-0.032,1.633-0.8,2.705c-0.944,1.328-2.241,1.473-2.849,1.473
			c-0.48,0-1.312-0.096-2.177-0.896v3.266h-1.921v-10.612H465.897z M467.786,334.598c-1.36,0-1.921,1.248-1.921,2.353
			c0,1.36,0.672,2.465,1.969,2.465c0.752,0,1.921-0.448,1.921-2.448C469.755,335.302,468.714,334.598,467.786,334.598z"/>
		<path d="M472.344,332.997h1.168v-2.85h1.921v2.85h1.713v1.36h-1.713v3.97c0,0.304,0.016,0.656,0.192,0.848
			c0.224,0.24,0.641,0.24,0.72,0.24c0.272,0,0.561-0.031,0.801-0.096v1.616c-0.256,0.032-0.721,0.129-1.377,0.129
			c-1.712,0-2.257-0.625-2.257-1.938v-4.77h-1.168V332.997z"/>
		<path d="M478.329,331.748v-1.937h1.905v1.937H478.329z M478.329,341v-8.003h1.905V341H478.329z"/>
		<path d="M489.243,338.743c-0.56,1.585-2.017,2.497-3.617,2.497c-2.353,0-3.954-1.856-3.954-4.242c0-2.08,1.409-4.241,4.049-4.241
			c2.081,0,3.138,1.521,3.441,2.272l-1.712,0.801c-0.224-0.688-0.785-1.36-1.825-1.36c-1.297,0-1.969,1.152-1.969,2.48
			c0,1.393,0.72,2.497,2.017,2.497c1.36,0,1.793-1.185,1.937-1.568L489.243,338.743z"/>
		<path d="M495.626,341l-0.048-0.624c-0.528,0.416-1.376,0.816-2.353,0.816c-1.825,0-2.914-1.104-2.914-2.449
			c0-1.745,1.329-2.433,2.849-2.705c1.201-0.225,1.953-0.416,2.465-0.593c0-0.607-0.176-1.2-1.376-1.2
			c-1.457,0-1.617,0.784-1.617,1.2l-1.953-0.111c0.032-0.528,0.144-2.577,3.505-2.577c2.353,0,3.361,0.864,3.361,2.272v4.674
			c0,0.608,0.032,0.785,0.353,1.297H495.626z M495.626,337.015c-0.32,0.16-0.785,0.336-1.521,0.448
			c-0.88,0.128-1.76,0.304-1.76,1.104c0,0.528,0.352,0.976,1.312,0.976c0.88,0,1.969-0.447,1.969-1.456V337.015z"/>
		<path d="M499.608,341v-11.301h1.953V341H499.608z"/>
		<path d="M513.324,337.847c-0.368,0.96-1.633,3.441-4.882,3.441c-2.673,0-5.282-1.825-5.282-6.051c0-2.513,1.424-5.826,5.362-5.826
			c2.913,0,4.113,1.873,4.594,3.489l-2.097,0.545c-0.128-1.232-1.169-2.098-2.417-2.098c-1.841,0-3.153,1.409-3.153,3.922
			c0,1.537,0.624,4.018,3.137,4.018c1.457,0,2.401-1.12,2.737-2.272L513.324,337.847z"/>
		<path d="M516.153,337.383c0.032,0.399,0.4,1.984,2.257,1.984c1.36,0,1.937-0.832,2.097-1.104l1.633,0.944
			c-0.64,0.864-1.809,2.033-3.906,2.033c-2.385,0-4.113-1.633-4.113-4.29c0-2.865,1.937-4.193,4.018-4.193
			c3.057,0,3.938,2.449,3.938,4.626H516.153z M519.962,335.974c-0.032-0.399-0.288-1.681-1.793-1.681
			c-1.584,0-1.889,1.361-1.953,1.681H519.962z"/>
		<path d="M525.513,332.997v0.944c0.72-1.089,2.145-1.185,2.465-1.185c1.697,0,2.593,1.104,2.593,2.673V341h-1.889v-4.498
			c0-0.88-0.224-1.872-1.408-1.872c-0.208,0-0.608,0.031-1.009,0.368c-0.576,0.479-0.752,1.152-0.752,2.528V341h-1.937v-8.003
			H525.513z"/>
		<path d="M531.624,332.997h1.168v-2.85h1.921v2.85h1.713v1.36h-1.713v3.97c0,0.304,0.016,0.656,0.192,0.848
			c0.224,0.24,0.641,0.24,0.72,0.24c0.272,0,0.561-0.031,0.801-0.096v1.616c-0.256,0.032-0.721,0.129-1.377,0.129
			c-1.712,0-2.257-0.625-2.257-1.938v-4.77h-1.168V332.997z"/>
		<path d="M539.145,337.383c0.032,0.399,0.4,1.984,2.257,1.984c1.36,0,1.937-0.832,2.097-1.104l1.633,0.944
			c-0.64,0.864-1.809,2.033-3.906,2.033c-2.385,0-4.113-1.633-4.113-4.29c0-2.865,1.937-4.193,4.018-4.193
			c3.057,0,3.938,2.449,3.938,4.626H539.145z M542.954,335.974c-0.032-0.399-0.288-1.681-1.793-1.681
			c-1.584,0-1.889,1.361-1.953,1.681H542.954z"/>
		<path d="M548.441,332.997v1.136c0.608-1.264,2-1.312,2.385-1.312h0.16v1.969c-0.4,0-1.937,0-2.401,1.473
			c-0.144,0.448-0.144,0.849-0.144,1.312V341h-1.857v-8.003H548.441z"/>
		<path d="M557.848,333.461v1.072c0.416-0.528,1.376-1.312,2.689-1.312c1.553,0,3.394,1.217,3.394,4.034
			c0,1.729-0.833,3.985-3.538,3.985c-0.96,0-1.985-0.353-2.545-1.12v4.466h-1.249v-11.125H557.848z M560.216,340.12
			c1.585,0,2.401-1.153,2.401-2.914c0-2.032-1.249-2.785-2.321-2.785c-1.457,0-2.449,1.073-2.449,2.945
			C557.848,339.079,558.744,340.12,560.216,340.12z"/>
		<path d="M569,333.221c1.761,0,3.585,1.232,3.585,3.938s-1.681,4.082-3.697,4.082c-2.113,0-3.698-1.409-3.698-4.002
			C565.191,336.022,565.735,333.221,569,333.221z M568.873,340.216c1.537,0,2.337-1.2,2.337-3.153c0-1.297-0.512-2.817-2.225-2.817
			c-2.385,0-2.401,2.577-2.401,3.058C566.583,338.199,566.855,340.216,568.873,340.216z"/>
		<path d="M574.327,331.172v-1.473h1.232v1.473H574.327z M574.327,341v-7.539h1.232V341H574.327z"/>
		<path d="M582.569,341v-4.946c0-1.168-0.833-1.633-1.713-1.633c-1.056,0-2.001,0.769-2.001,2.113V341h-1.28v-7.539h1.28v1.104
			c0.32-0.561,1.073-1.345,2.369-1.345c0.336,0,1.473,0.096,2.145,1.041c0.432,0.607,0.464,1.264,0.464,1.969V341H582.569z"/>
		<path d="M587.672,339.367c0,0.544,0.16,0.753,0.56,0.753c0.144,0,0.448-0.049,0.8-0.177V341c-0.112,0.016-0.72,0.128-1.216,0.128
			c-1.249,0-1.457-0.496-1.457-1.36v-5.25h-1.217v-1.057h1.217v-2.385h1.312v2.385h1.36v1.057h-1.36V339.367z"/>
	</g>
	<g>
		<path fill="none" stroke="#000000" d="M197.377,253.628c0,5.346-1.62,10.206-2.754,12.637
			c-1.944,3.887-10.692,17.334-22.68,17.334h-0.648c-2.106-0.162-6.804-0.486-10.044-2.916c-1.296-0.973-2.106-1.945-2.754-1.945
			s-1.134,0.648-1.62,2.592c0,0-5.508,13.123-6.642,16.039c-0.486,1.135-0.648,1.781-0.648,2.43c0,0.973,0.81,1.297,1.944,1.297
			h5.022c1.62,0,2.268,0.971,2.268,1.943c0,1.135-0.81,2.268-2.43,2.268h-33.697c-1.62,0-2.43-1.133-2.43-2.105
			c0-1.135,0.81-2.105,2.43-2.105h7.29c1.296,0,2.43-0.324,3.078-1.459c0.324-0.971,20.736-47.952,20.736-47.952
			c0.162-0.486,0.648-2.106,0.648-3.726s-0.486-2.916-1.944-2.916c-0.486,0-1.134,0.162-1.944,0.648
			c-3.402,1.62-7.29,7.452-9.72,11.34c-0.486,3.887-1.62,7.29-2.592,9.235c-1.944,3.887-10.53,17.334-22.519,17.334h-0.648
			c-2.106-0.162-6.966-0.486-10.206-2.916c-1.134-0.973-1.944-1.945-2.592-1.945s-1.134,0.648-1.782,2.592
			c0,0-5.346,13.123-6.48,16.039c-0.486,1.135-0.81,1.781-0.81,2.43c0,0.973,0.81,1.297,1.944,1.297h5.184
			c1.458,0,2.106,0.971,2.106,1.943c0,1.135-0.648,2.268-2.43,2.268H66.479c-1.62,0-2.592-1.133-2.592-2.105
			c0-1.135,0.972-2.105,2.592-2.105h7.29c1.296,0,2.43-0.324,2.916-1.459c0.486-0.971,20.736-47.952,20.736-47.952
			c0.162-0.486,0.648-2.106,0.648-3.726s-0.486-2.916-1.782-2.916c-0.486,0-1.296,0.162-2.106,0.648
			c-5.022,2.754-11.826,15.39-11.826,15.39s-0.81,1.945-2.268,1.945c-0.162,0-0.486,0-0.648-0.162
			c-0.81-0.486-1.134-1.135-1.134-1.621c0-0.972,0.81-1.943,0.81-1.943c2.592-4.698,11.826-19.44,18.792-20.413
			c0.81,0,1.782-0.162,2.592-0.162c4.05,0,6.804,1.782,8.748,5.67c0.324,0.486,0.486,0.648,0.486,0.648
			c0.648,1.296,0.81,2.106,1.458,2.106c0.324,0,0.81-0.324,1.296-0.972c2.43-2.916,10.368-7.938,17.172-7.938
			c3.078,0,5.832,1.134,7.776,3.726c2.106,2.592,3.078,5.67,3.402,8.586c3.888-5.346,9.072-11.016,13.284-11.664
			c0.81,0,1.782-0.162,2.592-0.162c4.05,0,6.966,1.782,8.748,5.67l0.324,0.486c0.648,1.458,1.134,2.268,1.62,2.268
			c0.486,0,0.81-0.324,1.458-0.972c2.43-2.916,10.368-7.938,17.01-7.938c3.078,0,5.832,1.134,7.938,3.726
			C196.567,245.528,197.377,249.741,197.377,253.628z M126.744,250.064c0-2.916-0.648-4.86-2.106-5.67
			c-0.486-0.162-0.81-0.162-1.296-0.162c-3.402,0-8.91,5.832-12.798,14.094c-2.43,5.183-3.726,10.369-3.726,14.093
			c0,2.916,0.81,4.861,2.268,5.51c0.324,0.162,0.648,0.162,1.134,0.162c3.402,0,9.072-5.672,12.798-13.934
			C125.448,258.812,126.744,253.628,126.744,250.064z M182.959,250.064c0-2.916-0.648-4.86-2.106-5.67
			c-0.324-0.162-0.81-0.162-1.134-0.162c-3.564,0-8.91,5.832-12.798,14.094c-2.43,5.183-3.726,10.369-3.726,14.093
			c0,2.916,0.648,4.861,2.106,5.51c0.324,0.162,0.81,0.162,1.134,0.162c3.564,0,9.072-5.672,12.798-13.934
			C181.663,258.812,182.959,253.628,182.959,250.064z"/>
	</g>
	<g>
		<path fill="none" stroke="#000000" d="M382.877,253.628c0,5.346-1.62,10.206-2.754,12.637
			c-1.944,3.887-10.692,17.334-22.68,17.334h-0.648c-2.106-0.162-6.804-0.486-10.044-2.916c-1.296-0.973-2.106-1.945-2.754-1.945
			s-1.134,0.648-1.62,2.592c0,0-5.508,13.123-6.642,16.039c-0.486,1.135-0.648,1.781-0.648,2.43c0,0.973,0.81,1.297,1.944,1.297
			h5.022c1.62,0,2.268,0.971,2.268,1.943c0,1.135-0.81,2.268-2.43,2.268h-33.697c-1.62,0-2.43-1.133-2.43-2.105
			c0-1.135,0.81-2.105,2.43-2.105h7.29c1.296,0,2.43-0.324,3.078-1.459c0.324-0.971,20.736-47.952,20.736-47.952
			c0.162-0.486,0.648-2.106,0.648-3.726s-0.486-2.916-1.944-2.916c-0.486,0-1.134,0.162-1.944,0.648
			c-3.402,1.62-7.29,7.452-9.72,11.34c-0.486,3.887-1.62,7.29-2.592,9.235c-1.944,3.887-10.53,17.334-22.519,17.334h-0.648
			c-2.106-0.162-6.966-0.486-10.206-2.916c-1.134-0.973-1.944-1.945-2.592-1.945s-1.134,0.648-1.782,2.592
			c0,0-5.346,13.123-6.48,16.039c-0.486,1.135-0.81,1.781-0.81,2.43c0,0.973,0.81,1.297,1.944,1.297h5.184
			c1.458,0,2.106,0.971,2.106,1.943c0,1.135-0.648,2.268-2.43,2.268h-33.535c-1.62,0-2.592-1.133-2.592-2.105
			c0-1.135,0.972-2.105,2.592-2.105h7.29c1.296,0,2.43-0.324,2.916-1.459c0.486-0.971,20.736-47.952,20.736-47.952
			c0.162-0.486,0.648-2.106,0.648-3.726s-0.486-2.916-1.782-2.916c-0.486,0-1.296,0.162-2.106,0.648
			c-5.022,2.754-11.826,15.39-11.826,15.39s-0.81,1.945-2.268,1.945c-0.162,0-0.486,0-0.648-0.162
			c-0.81-0.486-1.134-1.135-1.134-1.621c0-0.972,0.81-1.943,0.81-1.943c2.592-4.698,11.826-19.44,18.792-20.413
			c0.81,0,1.782-0.162,2.592-0.162c4.05,0,6.804,1.782,8.748,5.67c0.324,0.486,0.486,0.648,0.486,0.648
			c0.648,1.296,0.81,2.106,1.458,2.106c0.324,0,0.81-0.324,1.296-0.972c2.43-2.916,10.368-7.938,17.172-7.938
			c3.078,0,5.832,1.134,7.776,3.726c2.106,2.592,3.078,5.67,3.402,8.586c3.888-5.346,9.072-11.016,13.284-11.664
			c0.81,0,1.782-0.162,2.592-0.162c4.05,0,6.966,1.782,8.748,5.67l0.324,0.486c0.648,1.458,1.134,2.268,1.62,2.268
			c0.486,0,0.81-0.324,1.458-0.972c2.43-2.916,10.368-7.938,17.01-7.938c3.078,0,5.832,1.134,7.938,3.726
			C382.067,245.528,382.877,249.741,382.877,253.628z M312.244,250.064c0-2.916-0.648-4.86-2.106-5.67
			c-0.486-0.162-0.81-0.162-1.296-0.162c-3.402,0-8.91,5.832-12.798,14.094c-2.43,5.183-3.726,10.369-3.726,14.093
			c0,2.916,0.81,4.861,2.268,5.51c0.324,0.162,0.648,0.162,1.134,0.162c3.402,0,9.072-5.672,12.798-13.934
			C310.948,258.812,312.244,253.628,312.244,250.064z M368.459,250.064c0-2.916-0.648-4.86-2.106-5.67
			c-0.324-0.162-0.81-0.162-1.134-0.162c-3.564,0-8.91,5.832-12.798,14.094c-2.43,5.183-3.726,10.369-3.726,14.093
			c0,2.916,0.648,4.861,2.106,5.51c0.324,0.162,0.81,0.162,1.134,0.162c3.564,0,9.072-5.672,12.798-13.934
			C367.163,258.812,368.459,253.628,368.459,250.064z"/>
	</g>
	<g>
		<path fill="none" stroke="#000000" d="M578.377,253.628c0,5.346-1.62,10.206-2.754,12.637
			c-1.944,3.887-10.692,17.334-22.68,17.334h-0.648c-2.106-0.162-6.804-0.486-10.044-2.916c-1.296-0.973-2.106-1.945-2.754-1.945
			s-1.134,0.648-1.62,2.592c0,0-5.508,13.123-6.642,16.039c-0.486,1.135-0.648,1.781-0.648,2.43c0,0.973,0.81,1.297,1.944,1.297
			h5.022c1.62,0,2.268,0.971,2.268,1.943c0,1.135-0.81,2.268-2.43,2.268h-33.697c-1.62,0-2.43-1.133-2.43-2.105
			c0-1.135,0.81-2.105,2.43-2.105h7.29c1.296,0,2.43-0.324,3.078-1.459c0.324-0.971,20.736-47.952,20.736-47.952
			c0.162-0.486,0.648-2.106,0.648-3.726s-0.486-2.916-1.944-2.916c-0.486,0-1.134,0.162-1.944,0.648
			c-3.402,1.62-7.29,7.452-9.72,11.34c-0.486,3.887-1.62,7.29-2.592,9.235c-1.944,3.887-10.53,17.334-22.519,17.334h-0.648
			c-2.106-0.162-6.966-0.486-10.206-2.916c-1.134-0.973-1.944-1.945-2.592-1.945s-1.134,0.648-1.782,2.592
			c0,0-5.346,13.123-6.48,16.039c-0.486,1.135-0.81,1.781-0.81,2.43c0,0.973,0.81,1.297,1.944,1.297h5.184
			c1.458,0,2.106,0.971,2.106,1.943c0,1.135-0.648,2.268-2.43,2.268h-33.535c-1.62,0-2.592-1.133-2.592-2.105
			c0-1.135,0.972-2.105,2.592-2.105h7.29c1.296,0,2.43-0.324,2.916-1.459c0.486-0.971,20.736-47.952,20.736-47.952
			c0.162-0.486,0.648-2.106,0.648-3.726s-0.486-2.916-1.782-2.916c-0.486,0-1.296,0.162-2.106,0.648
			c-5.022,2.754-11.826,15.39-11.826,15.39s-0.81,1.945-2.268,1.945c-0.162,0-0.486,0-0.648-0.162
			c-0.81-0.486-1.134-1.135-1.134-1.621c0-0.972,0.81-1.943,0.81-1.943c2.592-4.698,11.826-19.44,18.792-20.413
			c0.81,0,1.782-0.162,2.592-0.162c4.05,0,6.804,1.782,8.748,5.67c0.324,0.486,0.486,0.648,0.486,0.648
			c0.648,1.296,0.81,2.106,1.458,2.106c0.324,0,0.81-0.324,1.296-0.972c2.43-2.916,10.368-7.938,17.172-7.938
			c3.078,0,5.832,1.134,7.776,3.726c2.106,2.592,3.078,5.67,3.402,8.586c3.888-5.346,9.072-11.016,13.284-11.664
			c0.81,0,1.782-0.162,2.592-0.162c4.05,0,6.966,1.782,8.748,5.67l0.324,0.486c0.648,1.458,1.134,2.268,1.62,2.268
			c0.486,0,0.81-0.324,1.458-0.972c2.43-2.916,10.368-7.938,17.01-7.938c3.078,0,5.832,1.134,7.938,3.726
			C577.567,245.528,578.377,249.741,578.377,253.628z M507.744,250.064c0-2.916-0.648-4.86-2.106-5.67
			c-0.486-0.162-0.81-0.162-1.296-0.162c-3.402,0-8.91,5.832-12.798,14.094c-2.43,5.183-3.726,10.369-3.726,14.093
			c0,2.916,0.81,4.861,2.268,5.51c0.324,0.162,0.648,0.162,1.134,0.162c3.402,0,9.072-5.672,12.798-13.934
			C506.448,258.812,507.744,253.628,507.744,250.064z M563.959,250.064c0-2.916-0.648-4.86-2.106-5.67
			c-0.324-0.162-0.81-0.162-1.134-0.162c-3.564,0-8.91,5.832-12.798,14.094c-2.43,5.183-3.726,10.369-3.726,14.093
			c0,2.916,0.648,4.861,2.106,5.51c0.324,0.162,0.81,0.162,1.134,0.162c3.564,0,9.072-5.672,12.798-13.934
			C562.663,258.812,563.959,253.628,563.959,250.064z"/>
	</g>
</g>
</svg>
