<?xml version="1.0" encoding="utf-8"?>
<!-- Generator: Adobe Illustrator 16.0.4, SVG Export Plug-In . SVG Version: 6.00 Build 0)  -->
<!DOCTYPE svg PUBLIC "-//W3C//DTD SVG 1.1 Tiny//EN" "http://www.w3.org/Graphics/SVG/1.1/DTD/svg11-tiny.dtd">
<svg version="1.1" baseProfile="tiny" xmlns="http://www.w3.org/2000/svg" xmlns:xlink="http://www.w3.org/1999/xlink" x="0px"
	 y="0px" width="676px" height="364px" viewBox="0 0 676 364" xml:space="preserve">
<g id="Staff_lines">
	<path fill="#ABABAB" d="M655.844,267.995H18.632v-5.084h637.212V267.995z M655.844,227.311H18.632v-5.083h637.212V227.311z
		 M655.844,186.628H18.632v-5.083h637.212V186.628z M655.844,145.952H18.632v-5.083h637.212V145.952z M655.844,105.269H18.632
		v-5.083h637.212V105.269z"/>
</g>
<g id="Layer_4">
	
		<rect x="441.333" y="140.667" fill="none" stroke="#68CEF6" stroke-width="1.644" stroke-miterlimit="10" width="53" height="46.667"/>
	<g>
		<path fill="none" stroke="#010101" d="M440.571,172.197c0-15.783,16.109-30.591,36.124-30.591
			c10.577,0,17.899,6.021,17.899,15.295c0,15.458-20.015,30.591-36.287,30.591C448.382,187.493,440.571,181.798,440.571,172.197z"/>
	</g>
	<rect x="488.232" y="31.535" fill="none" stroke="#010101" stroke-miterlimit="10" width="6.362" height="127.555"/>
	
		<rect x="426.667" y="198" fill="none" stroke="#68CEF6" stroke-width="2.7424" stroke-miterlimit="10" width="104.821" height="52.641"/>
	<g>
		<line fill="none" stroke="#A4A4A4" stroke-width="2" stroke-miterlimit="10" x1="441.276" y1="22.102" x2="441.276" y2="25.102"/>
		
			<line fill="none" stroke="#A4A4A4" stroke-width="2" stroke-miterlimit="10" stroke-dasharray="6.0585,6.0585" x1="441.276" y1="31.161" x2="441.276" y2="331.058"/>
		
			<line fill="none" stroke="#A4A4A4" stroke-width="2" stroke-miterlimit="10" x1="441.276" y1="334.087" x2="441.276" y2="337.087"/>
	</g>
	<path fill="none" stroke="#000000" d="M429.171,251.86h-2.268c-0.972,0-1.62-0.486-1.62-1.135v-52.326
		c0-0.648,0.648-1.296,1.62-1.296h2.268c0.972,0,1.62,0.648,1.62,1.296v52.326C430.792,251.374,430.143,251.86,429.171,251.86z
		 M439.377,251.86h-2.268c-0.972,0-1.62-0.486-1.62-1.135v-52.326c0-0.648,0.648-1.296,1.62-1.296h2.268
		c0.81,0,1.62,0.648,1.62,1.296v52.326C440.998,251.374,440.188,251.86,439.377,251.86z M515.356,224.482
		c0,12.15-9.234,22.195-38.07,22.195c-26.083,0-36.126-10.693-36.126-22.195c0-12.15,14.58-22.033,37.908-22.033
		C495.592,202.449,515.356,211.846,515.356,224.482z M460.114,217.516c0,5.67,2.754,11.664,5.994,15.876
		c1.134,1.296,2.43,2.754,3.726,3.888c2.43,2.106,5.346,3.726,8.424,4.698c1.62,0.486,3.078,0.648,4.698,0.648
		c1.782,0,3.564-0.162,5.184-0.648c4.374-1.134,6.966-4.211,7.776-8.585c0.162-0.972,0.324-2.106,0.324-3.24
		c0-10.692-9.72-23.49-21.708-23.49c-5.508,0-11.988,0.81-13.933,6.804C460.276,214.762,460.114,216.058,460.114,217.516z
		 M519.569,251.86h-2.43c-0.81,0-1.62-0.486-1.62-1.135v-52.326c0-0.648,0.81-1.296,1.62-1.296h2.43c0.81,0,1.62,0.648,1.62,1.296
		v52.326C521.188,251.374,520.379,251.86,519.569,251.86z M529.613,251.86h-2.268c-0.81,0-1.782-0.486-1.782-1.135v-52.326
		c0-0.648,0.972-1.296,1.782-1.296h2.268c0.972,0,1.782,0.648,1.782,1.296v52.326C531.395,251.374,530.585,251.86,529.613,251.86z"
		/>
	
		<rect x="124.822" y="140.667" fill="none" stroke="#68CEF6" stroke-width="1.644" stroke-miterlimit="10" width="53" height="46.667"/>
	<g>
		<path fill="none" stroke="#010101" d="M124.06,172.197c0-15.783,16.109-30.591,36.124-30.591c10.577,0,17.899,6.021,17.899,15.295
			c0,15.458-20.015,30.591-36.287,30.591C131.87,187.493,124.06,181.798,124.06,172.197z"/>
	</g>
	<rect x="171.721" y="31.535" fill="none" stroke="#010101" stroke-miterlimit="10" width="6.362" height="127.555"/>
	
		<rect x="125.155" y="198" fill="none" stroke="#68CEF6" stroke-width="2.7424" stroke-miterlimit="10" width="104.821" height="52.641"/>
	<g>
		<line fill="none" stroke="#A4A4A4" stroke-width="2" stroke-miterlimit="10" x1="124.765" y1="22.102" x2="124.765" y2="25.102"/>
		
			<line fill="none" stroke="#A4A4A4" stroke-width="2" stroke-miterlimit="10" stroke-dasharray="6.0585,6.0585" x1="124.765" y1="31.161" x2="124.765" y2="331.058"/>
		
			<line fill="none" stroke="#A4A4A4" stroke-width="2" stroke-miterlimit="10" x1="124.765" y1="334.087" x2="124.765" y2="337.087"/>
	</g>
	<path fill="none" stroke="#000000" d="M127.66,251.86h-2.268c-0.972,0-1.62-0.486-1.62-1.135v-52.326
		c0-0.648,0.648-1.296,1.62-1.296h2.268c0.972,0,1.62,0.648,1.62,1.296v52.326C129.28,251.374,128.631,251.86,127.66,251.86z
		 M137.866,251.86h-2.268c-0.972,0-1.62-0.486-1.62-1.135v-52.326c0-0.648,0.648-1.296,1.62-1.296h2.268
		c0.81,0,1.62,0.648,1.62,1.296v52.326C139.486,251.374,138.676,251.86,137.866,251.86z M213.845,224.482
		c0,12.15-9.234,22.195-38.07,22.195c-26.083,0-36.126-10.693-36.126-22.195c0-12.15,14.58-22.033,37.908-22.033
		C194.081,202.449,213.845,211.846,213.845,224.482z M158.602,217.516c0,5.67,2.754,11.664,5.994,15.876
		c1.134,1.296,2.43,2.754,3.726,3.888c2.43,2.106,5.346,3.726,8.424,4.698c1.62,0.486,3.078,0.648,4.698,0.648
		c1.782,0,3.564-0.162,5.184-0.648c4.374-1.134,6.966-4.211,7.776-8.585c0.162-0.972,0.324-2.106,0.324-3.24
		c0-10.692-9.72-23.49-21.708-23.49c-5.508,0-11.988,0.81-13.933,6.804C158.764,214.762,158.602,216.058,158.602,217.516z
		 M218.057,251.86h-2.43c-0.81,0-1.62-0.486-1.62-1.135v-52.326c0-0.648,0.81-1.296,1.62-1.296h2.43c0.81,0,1.62,0.648,1.62,1.296
		v52.326C219.677,251.374,218.867,251.86,218.057,251.86z M228.101,251.86h-2.268c-0.81,0-1.782-0.486-1.782-1.135v-52.326
		c0-0.648,0.972-1.296,1.782-1.296h2.268c0.972,0,1.782,0.648,1.782,1.296v52.326C229.883,251.374,229.073,251.86,228.101,251.86z"
		/>
</g>
<g id="Annotations">
	<rect x="433" y="216.334" fill="none" stroke="#BE1E2D" stroke-width="4" stroke-miterlimit="10" width="16.667" height="16.667"/>
	<g>
	</g>
	<g>
	</g>
	<g>
	</g>
	<g>
	</g>
	<g>
	</g>
	<g>
	</g>
</g>
</svg>
