<?xml version="1.0" encoding="utf-8"?>
<!-- Generator: Adobe Illustrator 16.0.4, SVG Export Plug-In . SVG Version: 6.00 Build 0)  -->
<!DOCTYPE svg PUBLIC "-//W3C//DTD SVG 1.1 Tiny//EN" "http://www.w3.org/Graphics/SVG/1.1/DTD/svg11-tiny.dtd">
<svg version="1.1" baseProfile="tiny" id="Layer_5" xmlns="http://www.w3.org/2000/svg" xmlns:xlink="http://www.w3.org/1999/xlink"
	 x="0px" y="0px" width="362px" height="318px" viewBox="0 0 362 318" xml:space="preserve">
<g>
	<path fill="#FFFFFF" d="M58.971,288.002c0-42.864,0-254.002,0-254.002"/>
	<g>
		<path fill="none" stroke="#919191" stroke-miterlimit="10" d="M58.971,288.002c0-1.732,0-3.74,0-5.998"/>
		<path fill="none" stroke="#919191" stroke-miterlimit="10" stroke-dasharray="11.5239,11.5239" d="M58.971,270.483
			c0-55.087,0-184.983,0-224.725"/>
		<path fill="none" stroke="#919191" stroke-miterlimit="10" d="M58.971,39.995c0-3.869,0-5.995,0-5.995"/>
	</g>
</g>
<g>
	<line fill="#FFFFFF" x1="297.971" y1="289.488" x2="297.971" y2="34"/>
	<g>
		<line fill="none" stroke="#919191" stroke-miterlimit="10" x1="297.971" y1="289.488" x2="297.971" y2="283.488"/>
		
			<line fill="none" stroke="#919191" stroke-miterlimit="10" stroke-dasharray="11.5947,11.5947" x1="297.971" y1="271.894" x2="297.971" y2="45.797"/>
		<line fill="none" stroke="#919191" stroke-miterlimit="10" x1="297.971" y1="40" x2="297.971" y2="34"/>
	</g>
</g>
<path fill="none" stroke="#000000" stroke-miterlimit="10" d="M33.739,190.732c16,0,31.594-15.398,43-23.999c3.992-3.011,12-6,18-6
	c52,0,53,52.999,124,52.999c21,0,57-10,95-43.999c12-12,20-24,20-31c0-2-1-4-3-5c-1-1-2-1-4-1c-8,0-21,6-35,17c-4,2-13,6-21,6
	c-52,0-53-53-123-53c-22,0-56,15-87,40l-20,18c-9,10-13,17.999-13,23.999C27.739,188.732,29.739,190.732,33.739,190.732z"/>
</svg>
