<?xml version="1.0" encoding="utf-8"?>
<!-- Generator: Adobe Illustrator 16.0.4, SVG Export Plug-In . SVG Version: 6.00 Build 0)  -->
<!DOCTYPE svg PUBLIC "-//W3C//DTD SVG 1.1 Tiny//EN" "http://www.w3.org/Graphics/SVG/1.1/DTD/svg11-tiny.dtd">
<svg version="1.1" baseProfile="tiny" xmlns="http://www.w3.org/2000/svg" xmlns:xlink="http://www.w3.org/1999/xlink" x="0px"
	 y="0px" width="1083.108px" height="375.038px" viewBox="0 0 1083.108 375.038" xml:space="preserve">
<g id="Stafflines" display="none">
	
		<line display="inline" fill="#FFFFFF" stroke="#ABABAB" stroke-width="24" stroke-miterlimit="10" x1="-76.738" y1="229.207" x2="1747.262" y2="229.207"/>
</g>
<g id="Layer_3" display="none">
	<path display="inline" fill="none" stroke="#000000" stroke-width="3" stroke-miterlimit="10" d="M305.412,515.451c3,4,6,5,9,5
		s6-2,6-2c30-17,54-44,79-61c89-62,120-123,120-169c0-57-44-93-90-96c-7,0-14,1-21,3c-11,3-23,7-34,14c-6,5-13,14-22,14
		c-2,0-3,0-5-1c-7-3-11-10-11-17c1-22,7-262,7-282c0-11-9-17-19-17c-14,0-30,10-31,28
		C293.412-65.549,297.412,505.451,305.412,515.451L305.412,515.451z M340.412,426.451c0,0-3-60-3-100c0-16,1-28,2-32
		c4-12,30-34,44-42c9-5,18-7,26-7c10,0,19,4,25,11c10,11,16,28,16,47c0,18-5,39-17,60c-13,24-42,56-72,75c-4,2-7,3-10,3
		C342.412,441.451,340.412,431.451,340.412,426.451z"/>
	<path display="inline" fill="none" stroke="#000000" stroke-width="3" stroke-miterlimit="10" d="M830.12,158.463l-15,5
		c-2,0-3,1-4,1c0,0-64,23-90,23c-6,0-10-1-10-5c0-17,0-167,0-167c0-7-6-12-12-12h-13c-7,0-12,5-12,12v514.999c0,6,3,9,8,9
		c1,0,3-1,4-1c0,0,2,0,3-1c14-6,70-30,99-30c10,0,17,3,17,11c0,21,0,149,0,149c0,7,5,12,12,12h13c6,0,12-5,12-12V165.463
		c0-5-4-8-8-8C833.12,157.463,831.12,157.463,830.12,158.463L830.12,158.463z M711.12,305.463c0-14,61-40,85-40c6,0,9,1,9,5v102.999
		c0,18-57,41-82,41c-7,0-12-2-12-6V305.463z"/>
</g>
<g id="Annotations" display="none">
	<g display="inline">
		<path d="M755.362,118.499c-0.701-0.84-1.457-1.449-2.268-1.827c-0.812-0.378-1.708-0.566-2.688-0.566
			c-1.092,0-2.058,0.188-2.898,0.566c-0.84,0.378-1.533,0.903-2.079,1.575s-0.959,1.449-1.239,2.331
			c-0.28,0.882-0.42,1.827-0.42,2.835s0.161,1.953,0.483,2.835c0.322,0.882,0.77,1.659,1.344,2.331
			c0.573,0.672,1.267,1.197,2.079,1.575c0.812,0.378,1.722,0.567,2.73,0.567c2.156,0,3.822-0.812,4.998-2.437l2.436,2.31
			c-0.952,1.093-2.072,1.891-3.36,2.395c-1.288,0.504-2.646,0.756-4.074,0.756c-1.512,0-2.898-0.252-4.158-0.756
			c-1.26-0.504-2.331-1.218-3.213-2.142c-0.882-0.925-1.568-2.017-2.058-3.276c-0.49-1.26-0.735-2.646-0.735-4.158
			c0-1.483,0.245-2.855,0.735-4.116c0.49-1.26,1.183-2.352,2.079-3.275c0.896-0.924,1.967-1.645,3.213-2.163
			c1.246-0.518,2.625-0.777,4.137-0.777c1.456,0,2.835,0.252,4.137,0.756c1.302,0.504,2.443,1.288,3.423,2.353L755.362,118.499z"/>
		<path d="M778.755,128.579c0,0.896,0.027,1.736,0.084,2.521c0.056,0.784,0.084,1.498,0.084,2.142h-3.108
			c0-0.531-0.015-1.063-0.042-1.596c-0.028-0.532-0.042-1.078-0.042-1.639h-0.084c-0.225,0.477-0.54,0.938-0.945,1.387
			c-0.406,0.448-0.889,0.847-1.449,1.196c-0.561,0.351-1.19,0.63-1.89,0.841c-0.7,0.21-1.456,0.314-2.268,0.314
			c-1.288,0-2.401-0.196-3.339-0.588c-0.938-0.392-1.715-0.938-2.331-1.638c-0.616-0.7-1.071-1.547-1.365-2.541
			s-0.441-2.079-0.441-3.255v-12.139h3.276v11.803c0,1.652,0.364,2.954,1.092,3.905c0.728,0.952,1.862,1.429,3.402,1.429
			c1.064,0,1.98-0.183,2.751-0.547c0.77-0.363,1.4-0.882,1.89-1.554c0.49-0.672,0.854-1.47,1.092-2.394
			c0.238-0.925,0.357-1.946,0.357-3.066v-9.576h3.276V128.579z"/>
		<path d="M795.723,116.357h-5.796v9.828c0,0.645,0.014,1.238,0.042,1.784c0.028,0.547,0.14,1.022,0.336,1.429
			c0.196,0.406,0.49,0.729,0.882,0.966c0.392,0.238,0.951,0.357,1.68,0.357c0.476,0,0.966-0.057,1.47-0.169
			c0.504-0.111,0.979-0.279,1.428-0.504l0.126,2.982c-0.56,0.252-1.183,0.434-1.869,0.546c-0.687,0.111-1.337,0.168-1.953,0.168
			c-1.176,0-2.114-0.154-2.814-0.462c-0.7-0.308-1.246-0.741-1.638-1.302c-0.393-0.56-0.651-1.253-0.777-2.079
			s-0.189-1.743-0.189-2.751v-10.794h-4.284v-2.772h4.284v-5.586h3.276v5.586h5.796V116.357z"/>
		<path d="M814.161,133.997c-2.268,0-4.347-0.393-6.237-1.176c-1.89-0.783-3.528-1.869-4.914-3.255
			c-1.386-1.386-2.464-3.038-3.234-4.956c-0.771-1.918-1.155-3.997-1.155-6.237c0-2.239,0.384-4.318,1.155-6.237
			c0.77-1.917,1.848-3.569,3.234-4.955c1.386-1.387,3.024-2.472,4.914-3.256c1.89-0.783,3.969-1.176,6.237-1.176
			s4.347,0.393,6.237,1.176c1.89,0.784,3.528,1.869,4.914,3.256c1.386,1.386,2.464,3.038,3.233,4.955
			c0.771,1.919,1.156,3.998,1.156,6.237c0,2.24-0.386,4.319-1.156,6.237c-0.77,1.918-1.848,3.57-3.233,4.956
			s-3.024,2.472-4.914,3.255S816.429,133.997,814.161,133.997z M814.161,130.722c1.736,0,3.324-0.322,4.767-0.967
			c1.442-0.644,2.681-1.525,3.717-2.646c1.035-1.12,1.841-2.429,2.415-3.927c0.573-1.498,0.86-3.102,0.86-4.81
			c0-1.707-0.287-3.311-0.86-4.809c-0.574-1.498-1.38-2.807-2.415-3.927c-1.036-1.12-2.275-2.002-3.717-2.646
			c-1.442-0.644-3.031-0.966-4.767-0.966c-1.737,0-3.325,0.322-4.767,0.966c-1.442,0.645-2.682,1.526-3.717,2.646
			c-1.036,1.12-1.841,2.429-2.415,3.927c-0.574,1.498-0.861,3.102-0.861,4.809c0,1.708,0.287,3.312,0.861,4.81
			c0.573,1.498,1.378,2.807,2.415,3.927c1.036,1.12,2.275,2.002,3.717,2.646C810.836,130.399,812.424,130.722,814.161,130.722z"/>
		<path d="M851.918,128.579c0,0.896,0.027,1.736,0.084,2.521s0.084,1.498,0.084,2.142h-3.107c0-0.531-0.015-1.063-0.042-1.596
			c-0.028-0.532-0.042-1.078-0.042-1.639h-0.084c-0.225,0.477-0.539,0.938-0.945,1.387s-0.889,0.847-1.449,1.196
			c-0.561,0.351-1.189,0.63-1.89,0.841c-0.7,0.21-1.456,0.314-2.269,0.314c-1.287,0-2.4-0.196-3.338-0.588
			c-0.939-0.392-1.716-0.938-2.332-1.638c-0.615-0.7-1.07-1.547-1.365-2.541c-0.293-0.994-0.44-2.079-0.44-3.255v-12.139h3.276
			v11.803c0,1.652,0.363,2.954,1.092,3.905c0.728,0.952,1.861,1.429,3.402,1.429c1.063,0,1.98-0.183,2.75-0.547
			c0.771-0.363,1.4-0.882,1.891-1.554s0.854-1.47,1.092-2.394c0.238-0.925,0.357-1.946,0.357-3.066v-9.576h3.275V128.579z"/>
		<path d="M868.887,116.357h-5.797v9.828c0,0.645,0.014,1.238,0.043,1.784c0.027,0.547,0.139,1.022,0.336,1.429
			c0.195,0.406,0.489,0.729,0.882,0.966c0.392,0.238,0.951,0.357,1.68,0.357c0.476,0,0.966-0.057,1.47-0.169
			c0.504-0.111,0.98-0.279,1.428-0.504l0.127,2.982c-0.561,0.252-1.184,0.434-1.869,0.546c-0.687,0.111-1.338,0.168-1.953,0.168
			c-1.176,0-2.114-0.154-2.814-0.462c-0.699-0.308-1.246-0.741-1.638-1.302c-0.393-0.56-0.651-1.253-0.776-2.079
			c-0.127-0.826-0.189-1.743-0.189-2.751v-10.794h-4.284v-2.772h4.284v-5.586h3.275v5.586h5.797V116.357z"/>
		<path d="M873.506,103.505h4.452l17.22,24.696h0.084v-24.696h3.528v29.736h-4.452l-17.22-24.696h-0.084v24.696h-3.528V103.505z"/>
		<path d="M906.182,103.505h18.69v3.276H909.71v9.324h14.153v3.275H909.71v10.584h15.918v3.276h-19.446V103.505z"/>
	</g>
	<g display="inline">
		<path d="M963.851,166.497c-0.7-0.84-1.456-1.449-2.269-1.827s-1.708-0.566-2.688-0.566c-1.092,0-2.059,0.188-2.898,0.566
			s-1.533,0.903-2.078,1.575c-0.547,0.672-0.96,1.449-1.24,2.331c-0.279,0.882-0.42,1.827-0.42,2.835s0.161,1.953,0.483,2.835
			c0.321,0.882,0.771,1.659,1.345,2.331c0.572,0.672,1.266,1.197,2.078,1.575s1.723,0.567,2.73,0.567
			c2.156,0,3.822-0.812,4.998-2.437l2.436,2.31c-0.952,1.093-2.072,1.891-3.359,2.395c-1.289,0.504-2.646,0.756-4.074,0.756
			c-1.512,0-2.898-0.252-4.158-0.756s-2.331-1.218-3.213-2.142c-0.883-0.925-1.568-2.017-2.059-3.276s-0.734-2.646-0.734-4.158
			c0-1.483,0.244-2.855,0.734-4.116c0.49-1.26,1.184-2.352,2.08-3.275c0.895-0.924,1.967-1.645,3.213-2.163
			c1.245-0.518,2.625-0.777,4.137-0.777c1.455,0,2.835,0.252,4.137,0.756c1.303,0.504,2.443,1.288,3.424,2.353L963.851,166.497z"/>
		<path d="M987.245,176.577c0,0.896,0.027,1.736,0.084,2.521c0.056,0.784,0.084,1.498,0.084,2.142h-3.107
			c0-0.531-0.016-1.063-0.043-1.596s-0.041-1.078-0.041-1.639h-0.084c-0.225,0.477-0.54,0.938-0.945,1.387
			c-0.406,0.448-0.89,0.847-1.449,1.196c-0.561,0.351-1.19,0.63-1.891,0.841c-0.699,0.21-1.455,0.314-2.268,0.314
			c-1.288,0-2.401-0.196-3.339-0.588c-0.938-0.392-1.716-0.938-2.331-1.638c-0.616-0.7-1.071-1.547-1.365-2.541
			s-0.441-2.079-0.441-3.255v-12.139h3.276v11.803c0,1.652,0.364,2.954,1.093,3.905c0.727,0.952,1.861,1.429,3.401,1.429
			c1.063,0,1.98-0.183,2.751-0.547c0.77-0.363,1.4-0.882,1.891-1.554c0.489-0.672,0.854-1.47,1.092-2.394
			c0.237-0.925,0.356-1.946,0.356-3.066v-9.576h3.276V176.577z"/>
		<path d="M1004.212,164.355h-5.796v9.828c0,0.645,0.014,1.238,0.042,1.784c0.028,0.547,0.14,1.022,0.336,1.429
			s0.489,0.729,0.882,0.966c0.393,0.238,0.951,0.357,1.68,0.357c0.477,0,0.967-0.057,1.471-0.169
			c0.504-0.111,0.979-0.279,1.428-0.504l0.126,2.982c-0.56,0.252-1.183,0.434-1.868,0.546c-0.688,0.111-1.338,0.168-1.953,0.168
			c-1.177,0-2.115-0.154-2.814-0.462c-0.7-0.308-1.246-0.741-1.639-1.302c-0.393-0.56-0.65-1.253-0.776-2.079
			s-0.188-1.743-0.188-2.751v-10.794h-4.285v-2.772h4.285v-5.586h3.275v5.586h5.796V164.355z"/>
		<path d="M1022.651,181.995c-2.269,0-4.348-0.393-6.238-1.176c-1.889-0.783-3.527-1.869-4.914-3.255
			c-1.385-1.386-2.463-3.038-3.233-4.956s-1.155-3.997-1.155-6.237c0-2.239,0.385-4.318,1.155-6.237
			c0.771-1.917,1.849-3.569,3.233-4.955c1.387-1.387,3.025-2.472,4.914-3.256c1.891-0.783,3.97-1.176,6.238-1.176
			c2.268,0,4.346,0.393,6.236,1.176c1.891,0.784,3.527,1.869,4.914,3.256c1.386,1.386,2.463,3.038,3.234,4.955
			c0.77,1.919,1.154,3.998,1.154,6.237c0,2.24-0.385,4.319-1.154,6.237c-0.771,1.918-1.849,3.57-3.234,4.956
			c-1.387,1.386-3.023,2.472-4.914,3.255S1024.918,181.995,1022.651,181.995z M1022.651,178.719c1.735,0,3.324-0.322,4.766-0.967
			c1.442-0.644,2.682-1.525,3.718-2.646s1.841-2.429,2.415-3.927c0.573-1.498,0.861-3.102,0.861-4.81
			c0-1.707-0.288-3.311-0.861-4.809c-0.574-1.498-1.379-2.807-2.415-3.927s-2.275-2.002-3.718-2.646
			c-1.441-0.644-3.03-0.966-4.766-0.966c-1.737,0-3.326,0.322-4.768,0.966c-1.442,0.645-2.682,1.526-3.717,2.646
			c-1.037,1.12-1.842,2.429-2.415,3.927c-0.574,1.498-0.861,3.102-0.861,4.809c0,1.708,0.287,3.312,0.861,4.81
			c0.573,1.498,1.378,2.807,2.415,3.927c1.035,1.12,2.274,2.002,3.717,2.646C1019.325,178.397,1020.914,178.719,1022.651,178.719z"
			/>
		<path d="M1060.409,176.577c0,0.896,0.027,1.736,0.084,2.521c0.055,0.784,0.084,1.498,0.084,2.142h-3.108
			c0-0.531-0.015-1.063-0.042-1.596c-0.028-0.532-0.042-1.078-0.042-1.639h-0.084c-0.225,0.477-0.54,0.938-0.945,1.387
			c-0.406,0.448-0.89,0.847-1.448,1.196c-0.561,0.351-1.191,0.63-1.891,0.841c-0.7,0.21-1.456,0.314-2.268,0.314
			c-1.289,0-2.402-0.196-3.34-0.588s-1.715-0.938-2.33-1.638c-0.617-0.7-1.072-1.547-1.365-2.541
			c-0.295-0.994-0.441-2.079-0.441-3.255v-12.139h3.275v11.803c0,1.652,0.364,2.954,1.093,3.905
			c0.728,0.952,1.862,1.429,3.401,1.429c1.064,0,1.98-0.183,2.752-0.547c0.77-0.363,1.399-0.882,1.89-1.554
			c0.489-0.672,0.854-1.47,1.092-2.394c0.237-0.925,0.356-1.946,0.356-3.066v-9.576h3.277V176.577z"/>
		<path d="M1077.375,164.355h-5.795v9.828c0,0.645,0.014,1.238,0.041,1.784c0.028,0.547,0.141,1.022,0.336,1.429
			c0.196,0.406,0.49,0.729,0.883,0.966c0.392,0.238,0.951,0.357,1.68,0.357c0.477,0,0.967-0.057,1.471-0.169
			c0.504-0.111,0.979-0.279,1.428-0.504l0.125,2.982c-0.56,0.252-1.183,0.434-1.868,0.546c-0.687,0.111-1.337,0.168-1.953,0.168
			c-1.177,0-2.114-0.154-2.813-0.462c-0.701-0.308-1.246-0.741-1.639-1.302c-0.393-0.56-0.65-1.253-0.777-2.079
			c-0.125-0.826-0.188-1.743-0.188-2.751v-10.794h-4.284v-2.772h4.284v-5.586h3.276v5.586h5.795V164.355z"/>
		<path d="M1081.996,151.502h4.452l17.221,24.696h0.084v-24.696h3.527v29.736h-4.452l-17.22-24.696h-0.084v24.696h-3.528V151.502z"
			/>
	</g>
	
		<rect x="674.12" y="5.227" display="inline" fill="none" stroke="#68CEF6" stroke-width="2" stroke-miterlimit="10" width="168.101" height="672.948"/>
	
		<line display="inline" fill="none" stroke="#68CEF6" stroke-width="2" stroke-miterlimit="10" x1="674.12" y1="348.682" x2="842.262" y2="348.682"/>
	
		<line display="inline" fill="none" stroke="#68CEF6" stroke-width="2" stroke-miterlimit="10" x1="293.412" y1="346.682" x2="516.742" y2="346.682"/>
	
		<rect x="293.412" y="-92.182" display="inline" fill="none" stroke="#68CEF6" stroke-width="2" stroke-miterlimit="10" width="224.178" height="614.971"/>
	<g display="inline">
		<path d="M386.804,153.227c-0.701-0.84-1.457-1.449-2.268-1.827c-0.812-0.378-1.708-0.566-2.688-0.566
			c-1.092,0-2.058,0.188-2.898,0.566c-0.84,0.378-1.533,0.903-2.079,1.575s-0.959,1.449-1.239,2.331
			c-0.28,0.882-0.42,1.827-0.42,2.835s0.161,1.953,0.483,2.835c0.322,0.882,0.77,1.659,1.344,2.331
			c0.573,0.672,1.267,1.197,2.079,1.575c0.812,0.378,1.722,0.567,2.73,0.567c2.156,0,3.822-0.812,4.998-2.437l2.436,2.31
			c-0.952,1.093-2.072,1.891-3.36,2.395c-1.288,0.504-2.646,0.756-4.074,0.756c-1.512,0-2.898-0.252-4.158-0.756
			c-1.26-0.504-2.331-1.218-3.213-2.142c-0.882-0.925-1.568-2.017-2.058-3.276c-0.49-1.26-0.735-2.646-0.735-4.158
			c0-1.483,0.245-2.855,0.735-4.116c0.49-1.26,1.183-2.352,2.079-3.275c0.896-0.924,1.967-1.645,3.213-2.163
			c1.246-0.518,2.625-0.777,4.137-0.777c1.456,0,2.835,0.252,4.137,0.756c1.302,0.504,2.443,1.288,3.423,2.353L386.804,153.227z"/>
		<path d="M410.197,163.307c0,0.896,0.027,1.736,0.084,2.521c0.056,0.784,0.084,1.498,0.084,2.142h-3.108
			c0-0.531-0.015-1.063-0.042-1.596c-0.028-0.532-0.042-1.078-0.042-1.639h-0.084c-0.225,0.477-0.54,0.938-0.945,1.387
			c-0.406,0.448-0.889,0.847-1.449,1.196c-0.561,0.351-1.19,0.63-1.89,0.841c-0.7,0.21-1.456,0.314-2.268,0.314
			c-1.288,0-2.401-0.196-3.339-0.588c-0.938-0.392-1.715-0.938-2.331-1.638c-0.616-0.7-1.071-1.547-1.365-2.541
			s-0.441-2.079-0.441-3.255v-12.139h3.276v11.803c0,1.652,0.364,2.954,1.092,3.905c0.728,0.952,1.862,1.429,3.402,1.429
			c1.064,0,1.98-0.183,2.751-0.547c0.77-0.363,1.4-0.882,1.89-1.554c0.49-0.672,0.854-1.47,1.092-2.394
			c0.238-0.925,0.357-1.946,0.357-3.066v-9.576h3.276V163.307z"/>
		<path d="M427.165,151.085h-5.796v9.828c0,0.645,0.014,1.238,0.042,1.784c0.028,0.547,0.14,1.022,0.336,1.429
			c0.196,0.406,0.49,0.729,0.882,0.966c0.392,0.238,0.951,0.357,1.68,0.357c0.476,0,0.966-0.057,1.47-0.169
			c0.504-0.111,0.979-0.279,1.428-0.504l0.126,2.982c-0.56,0.252-1.183,0.434-1.869,0.546c-0.687,0.111-1.337,0.168-1.953,0.168
			c-1.176,0-2.114-0.154-2.814-0.462c-0.7-0.308-1.246-0.741-1.638-1.302c-0.393-0.56-0.651-1.253-0.777-2.079
			s-0.189-1.743-0.189-2.751v-10.794h-4.284v-2.772h4.284v-5.586h3.276v5.586h5.796V151.085z"/>
		<path d="M445.603,168.725c-2.268,0-4.347-0.393-6.237-1.176c-1.89-0.783-3.528-1.869-4.914-3.255
			c-1.386-1.386-2.464-3.038-3.234-4.956c-0.771-1.918-1.155-3.997-1.155-6.237c0-2.239,0.384-4.318,1.155-6.237
			c0.77-1.917,1.848-3.569,3.234-4.955c1.386-1.387,3.024-2.472,4.914-3.256c1.89-0.783,3.969-1.176,6.237-1.176
			s4.347,0.393,6.237,1.176c1.89,0.784,3.528,1.869,4.914,3.256c1.386,1.386,2.463,3.038,3.234,4.955
			c0.77,1.919,1.155,3.998,1.155,6.237c0,2.24-0.385,4.319-1.155,6.237c-0.771,1.918-1.848,3.57-3.234,4.956
			c-1.386,1.386-3.024,2.472-4.914,3.255S447.871,168.725,445.603,168.725z M445.603,165.45c1.736,0,3.324-0.322,4.767-0.967
			c1.442-0.644,2.681-1.525,3.717-2.646c1.036-1.12,1.841-2.429,2.415-3.927c0.573-1.498,0.861-3.102,0.861-4.81
			c0-1.707-0.288-3.311-0.861-4.809c-0.574-1.498-1.379-2.807-2.415-3.927c-1.036-1.12-2.275-2.002-3.717-2.646
			c-1.442-0.644-3.031-0.966-4.767-0.966c-1.737,0-3.325,0.322-4.767,0.966c-1.442,0.645-2.682,1.526-3.717,2.646
			c-1.036,1.12-1.841,2.429-2.415,3.927c-0.574,1.498-0.861,3.102-0.861,4.809c0,1.708,0.287,3.312,0.861,4.81
			c0.573,1.498,1.378,2.807,2.415,3.927c1.036,1.12,2.275,2.002,3.717,2.646C442.278,165.127,443.866,165.45,445.603,165.45z"/>
		<path d="M483.361,163.307c0,0.896,0.027,1.736,0.084,2.521c0.056,0.784,0.084,1.498,0.084,2.142h-3.108
			c0-0.531-0.015-1.063-0.042-1.596c-0.028-0.532-0.042-1.078-0.042-1.639h-0.084c-0.225,0.477-0.54,0.938-0.945,1.387
			c-0.406,0.448-0.889,0.847-1.449,1.196c-0.561,0.351-1.19,0.63-1.89,0.841c-0.7,0.21-1.456,0.314-2.268,0.314
			c-1.288,0-2.401-0.196-3.339-0.588c-0.938-0.392-1.715-0.938-2.331-1.638c-0.616-0.7-1.071-1.547-1.365-2.541
			s-0.441-2.079-0.441-3.255v-12.139h3.276v11.803c0,1.652,0.364,2.954,1.092,3.905c0.728,0.952,1.862,1.429,3.402,1.429
			c1.064,0,1.98-0.183,2.751-0.547c0.77-0.363,1.4-0.882,1.89-1.554c0.49-0.672,0.854-1.47,1.092-2.394
			c0.238-0.925,0.357-1.946,0.357-3.066v-9.576h3.276V163.307z"/>
		<path d="M500.329,151.085h-5.796v9.828c0,0.645,0.014,1.238,0.042,1.784c0.028,0.547,0.14,1.022,0.336,1.429
			c0.196,0.406,0.49,0.729,0.882,0.966c0.392,0.238,0.951,0.357,1.68,0.357c0.476,0,0.966-0.057,1.47-0.169
			c0.504-0.111,0.979-0.279,1.428-0.504l0.126,2.982c-0.56,0.252-1.183,0.434-1.869,0.546c-0.687,0.111-1.337,0.168-1.953,0.168
			c-1.176,0-2.114-0.154-2.814-0.462c-0.7-0.308-1.246-0.741-1.638-1.302c-0.393-0.56-0.651-1.253-0.777-2.079
			s-0.189-1.743-0.189-2.751v-10.794h-4.284v-2.772h4.284v-5.586h3.276v5.586h5.796V151.085z"/>
		<path d="M504.948,138.233h4.452l17.22,24.696h0.084v-24.696h3.528v29.736h-4.452l-17.22-24.696h-0.084v24.696h-3.528V138.233z"/>
		<path d="M537.624,138.233h18.69v3.276h-15.162v9.324h14.154v3.275h-14.154v10.584h15.918v3.276h-19.446V138.233z"/>
	</g>
	
		<rect x="343.209" y="178.303" display="inline" fill="none" stroke="#BE1E2D" stroke-width="4" stroke-miterlimit="10" width="16.667" height="16.667"/>
	<g display="inline">
		
			<line fill="none" stroke="#BE1E2D" stroke-width="2" stroke-miterlimit="10" stroke-dasharray="11.6226,11.6226" x1="351.376" y1="-75.062" x2="351.376" y2="174.825"/>
		<polyline fill="none" stroke="#BE1E2D" stroke-width="2" stroke-miterlimit="10" points="351.376,180.636 351.376,186.636 
			357.376,186.636 		"/>
		
			<line fill="none" stroke="#BE1E2D" stroke-width="2" stroke-miterlimit="10" stroke-dasharray="11.7686,11.7686" x1="369.145" y1="186.636" x2="504.484" y2="186.636"/>
		
			<line fill="none" stroke="#BE1E2D" stroke-width="2" stroke-miterlimit="10" x1="510.368" y1="186.636" x2="516.368" y2="186.636"/>
	</g>
	
		<rect x="713.181" y="144.304" display="inline" fill="none" stroke="#BE1E2D" stroke-width="4" stroke-miterlimit="10" width="16.667" height="16.667"/>
	<g display="inline">
		<line fill="none" stroke="#BE1E2D" stroke-width="2" stroke-miterlimit="10" x1="721.348" y1="5.311" x2="721.348" y2="11.311"/>
		
			<line fill="none" stroke="#BE1E2D" stroke-width="2" stroke-miterlimit="10" stroke-dasharray="12.3024,12.3024" x1="721.348" y1="23.613" x2="721.348" y2="140.486"/>
		<polyline fill="none" stroke="#BE1E2D" stroke-width="2" stroke-miterlimit="10" points="721.348,146.638 721.348,152.638 
			727.348,152.638 		"/>
		
			<line fill="none" stroke="#BE1E2D" stroke-width="2" stroke-miterlimit="10" stroke-dasharray="11.9993,11.9993" x1="739.347" y1="152.638" x2="829.342" y2="152.638"/>
		
			<line fill="none" stroke="#BE1E2D" stroke-width="2" stroke-miterlimit="10" x1="835.342" y1="152.638" x2="841.342" y2="152.638"/>
	</g>
</g>
<g id="Layer_4">
	<g>
		<path fill="#010101" d="M1065.106,273.202H17.894v-5.084h1047.212V273.202z M1065.106,232.518H17.894v-5.083h1047.212V232.518z
			 M1065.106,191.834H17.894v-5.083h1047.212V191.834z M1065.106,151.159H17.894v-5.083h1047.212V151.159z M1065.106,110.476H17.894
			v-5.083h1047.212V110.476z"/>
		<g>
			<path fill="#010101" d="M135.292,266.356c2.766,15.621,4.556,25.873,4.556,25.873c6.184,37.425-15.784,47.514-29.777,48.327
				c-44.748,2.278-37.1-34.171-37.1-34.171c1.139-7.974,7.811-13.994,16.597-14.482c9.601-0.487,18.225,6.672,18.713,16.598
				c0.488,8.462-4.719,15.133-12.692,17.736c-1.139,0.325-2.766,0.813-4.23,0.813c-1.139,0.488-2.115,1.79,0.163,3.255
				c4.394,3.58,10.251,4.23,18.225,3.905c2.278-0.163,29.127-0.325,22.13-41.331l-3.743-24.245c-0.488,0-0.488,0-0.976,0
				c-30.591,3.742-73.549-6.671-77.292-55.325c-3.254-36.938,27.5-63.949,54.511-87.543l-1.79-11.064
				c-5.532-39.704,6.997-75.177,27.174-84.126c0,0,7.16,2.278,12.692,16.76h0.488c20.666,50.118-5.532,78.268-27.825,102.839
				c1.627,9.926,3.417,18.713,4.882,29.615c0.977,0,1.627-0.163,2.441-0.163c23.919-1.139,43.934,17.249,45.073,40.518
				C168.649,241.297,155.957,258.545,135.292,266.356z M126.667,261.637l-9.112-56.464c-12.529,2.116-21.642,8.462-20.991,21.479
				c0.325,7.322,5.207,13.505,11.553,17.736c0,0,5.044,6.346-2.929,3.742c-8.461-2.766-16.272-11.228-19.201-23.757
				c-4.394-18.225,8.461-37.263,27.337-43.121l-4.394-27.5c-23.432,17.248-46.05,39.541-45.073,69.644
				C64.671,261.963,113.975,265.868,126.667,261.637z M108.605,111.61c0,1.139,0.814,4.556,1.302,9.275
				c19.039-14.482,30.104-29.615,32.219-44.26c1.627-12.367-5.207-18.387-11.716-18.062
				C115.277,59.865,106.165,94.85,108.605,111.61z M153.353,231.046c-0.813-14.97-13.831-27.011-28.639-26.849
				c3.092,19.689,6.672,39.378,9.601,55.162C147.17,253.827,154.004,244.389,153.353,231.046z"/>
		</g>
		<rect x="497.495" y="36.742" fill="#010101" width="6.362" height="227.555"/>
		<g>
			<path fill="#010101" d="M448.558,277.899c0-15.783,16.109-30.591,36.124-30.591c10.577,0,17.899,6.021,17.899,15.295
				c0,15.458-20.015,30.591-36.287,30.591C456.369,293.195,448.558,287.5,448.558,277.899z"/>
		</g>
		<g>
			<path fill="#010101" d="M448.558,176.233c0-15.784,16.109-30.591,36.124-30.591c10.577,0,17.899,6.021,17.899,15.295
				c0,15.458-20.015,30.591-36.287,30.591C456.369,191.529,448.558,185.833,448.558,176.233z"/>
		</g>
		<g>
			<path fill="#010101" d="M436.507,139.458v1.465v11.553v23.432v13.018v32.219c0,1.139-0.977,1.953-1.953,1.953h-2.115
				c-1.139,0-1.953-0.814-1.953-1.953c0,0,0-20.828,0-24.245c0-5.37-18.388,2.929-19.364,3.254
				c-1.139,0.326-1.953-0.163-1.953-1.302v-1.79v-11.228v-23.432v-13.018v-34.333c0-1.139,0.813-1.953,1.953-1.953h2.115
				c0.977,0,1.953,0.813,1.953,1.953c0,0,0,24.408,0,27.174c0,2.929,16.272-2.929,16.272-2.929c0.163,0,0.326-0.163,0.651-0.163
				l2.441-0.813C435.531,137.832,436.507,138.482,436.507,139.458z M430.487,173.304c0-3.58,0-13.506,0-16.76
				c0-3.092-15.296,2.929-15.296,5.695s0,13.506,0,16.76S430.487,177.047,430.487,173.304z"/>
		</g>
		<g>
			<path fill="#010101" d="M367.161,204.187c0.325-5.207,8.136-6.021,8.136-1.79c0,3.254-0.976,42.307-1.139,45.887
				c0,1.139,0.651,2.278,1.79,2.766c1.79,0.651,3.254-1.139,4.393-2.115c1.79-1.139,3.743-1.79,5.533-2.278
				c1.139-0.326,2.278-0.488,3.417-0.488c7.648,0.488,14.808,6.509,14.645,15.621c0,7.485-5.044,17.411-19.689,27.336
				c-3.905,2.93-7.811,7.323-12.692,10.089c0,0-1.139,0.977-2.441-0.488C367.812,297.1,367.161,204.187,367.161,204.187z
				 M378.226,286.198c4.881-3.092,9.601-8.299,11.716-12.204c3.905-7.159,3.254-13.994,0.163-17.411
				c-1.79-2.115-4.881-2.441-8.299-0.651c-2.278,1.302-6.509,4.882-7.159,6.834c-0.651,2.278,0.163,21.479,0.163,21.479
				C374.809,285.384,375.459,287.663,378.226,286.198z"/>
		</g>
		<rect x="835.655" y="36.742" fill="#010101" width="6.362" height="227.555"/>
		<g>
			<path fill="#010101" d="M786.752,277.899c0-15.783,16.109-30.591,36.124-30.591c10.576,0,17.899,6.021,17.899,15.295
				c0,15.458-20.015,30.591-36.287,30.591C794.563,293.195,786.752,287.5,786.752,277.899z"/>
		</g>
		<g>
			<path fill="#010101" d="M786.752,176.233c0-15.784,16.109-30.591,36.124-30.591c10.576,0,17.899,6.021,17.899,15.295
				c0,15.458-20.015,30.591-36.287,30.591C794.563,191.529,786.752,185.833,786.752,176.233z"/>
		</g>
		<g>
			<path fill="#010101" d="M774.57,139.458v1.465v11.553v23.432v13.018v32.219c0,1.139-0.977,1.953-1.953,1.953h-2.115
				c-1.139,0-1.953-0.814-1.953-1.953c0,0,0-20.828,0-24.245c0-5.37-18.388,2.929-19.364,3.254
				c-1.139,0.326-1.953-0.163-1.953-1.302v-1.79v-11.228v-23.432v-13.018v-34.333c0-1.139,0.813-1.953,1.953-1.953h2.115
				c0.977,0,1.953,0.813,1.953,1.953c0,0,0,24.408,0,27.174c0,2.929,16.272-2.929,16.272-2.929c0.163,0,0.326-0.163,0.651-0.163
				l2.441-0.813C773.593,137.832,774.57,138.482,774.57,139.458z M768.549,173.304c0-3.58,0-13.506,0-16.76
				c0-3.092-15.296,2.929-15.296,5.695s0,13.506,0,16.76S768.549,177.047,768.549,173.304z"/>
		</g>
	</g>
	
		<rect x="409.262" y="113.788" fill="none" stroke="#68CEF6" stroke-width="2" stroke-miterlimit="10" width="26.82" height="109.418"/>
	
		<rect x="367.262" y="200.788" fill="none" stroke="#68CEF6" stroke-width="2" stroke-miterlimit="10" width="36.82" height="99.418"/>
	
		<rect x="748.262" y="113.788" fill="none" stroke="#68CEF6" stroke-width="2" stroke-miterlimit="10" width="26.82" height="109.418"/>
	
		<rect x="726.262" y="200.788" fill="none" stroke="#68CEF6" stroke-width="2" stroke-miterlimit="10" width="36.82" height="99.418"/>
	<g>
		
			<line fill="none" stroke="#BE1E2D" stroke-width="2" stroke-miterlimit="10" x1="757.014" y1="114.312" x2="757.014" y2="117.312"/>
		
			<line fill="none" stroke="#BE1E2D" stroke-width="2" stroke-miterlimit="10" stroke-dasharray="5.5535,5.5535" x1="757.014" y1="122.865" x2="757.014" y2="131.195"/>
		<polyline fill="none" stroke="#BE1E2D" stroke-width="2" stroke-miterlimit="10" points="757.014,133.972 757.014,136.972 
			760.014,136.972 		"/>
		
			<line fill="none" stroke="#BE1E2D" stroke-width="2" stroke-miterlimit="10" stroke-dasharray="3.9982,3.9982" x1="764.012" y1="136.972" x2="770.01" y2="136.972"/>
		
			<line fill="none" stroke="#BE1E2D" stroke-width="2" stroke-miterlimit="10" x1="772.009" y1="136.972" x2="775.009" y2="136.972"/>
	</g>
	<g>
		
			<line fill="none" stroke="#BE1E2D" stroke-width="2" stroke-miterlimit="10" x1="736.014" y1="200.978" x2="736.014" y2="203.978"/>
		
			<line fill="none" stroke="#BE1E2D" stroke-width="2" stroke-miterlimit="10" stroke-dasharray="5.3325,5.3325" x1="736.014" y1="209.311" x2="736.014" y2="238.639"/>
		<polyline fill="none" stroke="#BE1E2D" stroke-width="2" stroke-miterlimit="10" points="736.014,241.306 736.014,244.306 
			739.014,244.306 		"/>
		
			<line fill="none" stroke="#BE1E2D" stroke-width="2" stroke-miterlimit="10" stroke-dasharray="6.9982,6.9982" x1="746.012" y1="244.306" x2="756.51" y2="244.306"/>
		
			<line fill="none" stroke="#BE1E2D" stroke-width="2" stroke-miterlimit="10" x1="760.009" y1="244.306" x2="763.009" y2="244.306"/>
	</g>
	<g>
		
			<line fill="none" stroke="#BE1E2D" stroke-width="2" stroke-miterlimit="10" x1="766.343" y1="223.638" x2="766.343" y2="220.638"/>
		
			<line fill="none" stroke="#BE1E2D" stroke-width="2" stroke-miterlimit="10" stroke-dasharray="5.1089,5.1089" x1="766.343" y1="215.529" x2="766.343" y2="207.866"/>
		<polyline fill="none" stroke="#BE1E2D" stroke-width="2" stroke-miterlimit="10" points="766.343,205.312 766.343,202.312 
			763.343,202.312 		"/>
		
			<line fill="none" stroke="#BE1E2D" stroke-width="2" stroke-miterlimit="10" stroke-dasharray="3.9982,3.9982" x1="759.345" y1="202.312" x2="753.347" y2="202.312"/>
		
			<line fill="none" stroke="#BE1E2D" stroke-width="2" stroke-miterlimit="10" x1="751.348" y1="202.312" x2="748.348" y2="202.312"/>
	</g>
	<g>
		<path fill="#010101" d="M726.35,204.854c0.325-5.207,8.136-6.021,8.136-1.79c0,3.254-0.977,42.307-1.139,45.887
			c0,1.139,0.65,2.278,1.79,2.766c1.789,0.651,3.254-1.139,4.393-2.115c1.79-1.139,3.743-1.79,5.533-2.278
			c1.139-0.326,2.277-0.488,3.417-0.488c7.647,0.488,14.808,6.509,14.645,15.621c0,7.484-5.044,17.41-19.689,27.336
			c-3.905,2.93-7.811,7.324-12.691,10.09c0,0-1.14,0.977-2.441-0.488C727,297.767,726.35,204.854,726.35,204.854z M737.415,286.865
			c4.882-3.092,9.601-8.299,11.716-12.205c3.905-7.158,3.255-13.993,0.163-17.41c-1.79-2.115-4.882-2.441-8.299-0.651
			c-2.278,1.302-6.509,4.882-7.159,6.834c-0.651,2.278,0.162,21.479,0.162,21.479C733.998,286.05,734.649,288.33,737.415,286.865z"
			/>
	</g>
	<g>
		<line fill="none" stroke="#A4A4A4" stroke-width="2" stroke-miterlimit="10" x1="435.872" y1="27.309" x2="435.872" y2="30.309"/>
		
			<line fill="none" stroke="#A4A4A4" stroke-width="2" stroke-miterlimit="10" stroke-dasharray="6.0585,6.0585" x1="435.872" y1="36.367" x2="435.872" y2="336.264"/>
		
			<line fill="none" stroke="#A4A4A4" stroke-width="2" stroke-miterlimit="10" x1="435.872" y1="339.293" x2="435.872" y2="342.293"/>
	</g>
	<g>
		<line fill="none" stroke="#A4A4A4" stroke-width="2" stroke-miterlimit="10" x1="404.539" y1="27.309" x2="404.539" y2="30.309"/>
		
			<line fill="none" stroke="#A4A4A4" stroke-width="2" stroke-miterlimit="10" stroke-dasharray="6.0585,6.0585" x1="404.539" y1="36.367" x2="404.539" y2="336.264"/>
		
			<line fill="none" stroke="#A4A4A4" stroke-width="2" stroke-miterlimit="10" x1="404.539" y1="339.293" x2="404.539" y2="342.293"/>
	</g>
	<g>
		<line fill="none" stroke="#A4A4A4" stroke-width="2" stroke-miterlimit="10" x1="774.538" y1="27.309" x2="774.538" y2="30.309"/>
		
			<line fill="none" stroke="#A4A4A4" stroke-width="2" stroke-miterlimit="10" stroke-dasharray="6.0585,6.0585" x1="774.538" y1="36.367" x2="774.538" y2="336.264"/>
		
			<line fill="none" stroke="#A4A4A4" stroke-width="2" stroke-miterlimit="10" x1="774.538" y1="339.293" x2="774.538" y2="342.293"/>
	</g>
	<g>
		<line fill="none" stroke="#A4A4A4" stroke-width="2" stroke-miterlimit="10" x1="763.205" y1="27.309" x2="763.205" y2="30.309"/>
		
			<line fill="none" stroke="#A4A4A4" stroke-width="2" stroke-miterlimit="10" stroke-dasharray="6.0585,6.0585" x1="763.205" y1="36.367" x2="763.205" y2="336.264"/>
		
			<line fill="none" stroke="#A4A4A4" stroke-width="2" stroke-miterlimit="10" x1="763.205" y1="339.293" x2="763.205" y2="342.293"/>
	</g>
	<g>
		<path fill="#A4A4A4" d="M440.158,353.233c0,4.421-1.66,6.861-4.521,6.861c-2.541,0-4.281-2.38-4.321-6.681
			c0-4.382,1.9-6.762,4.541-6.762C438.578,346.652,440.158,349.092,440.158,353.233z M433.097,353.433
			c0,3.381,1.04,5.301,2.641,5.301c1.78,0,2.641-2.1,2.641-5.421c0-3.2-0.8-5.301-2.641-5.301
			C434.217,348.012,433.097,349.892,433.097,353.433z"/>
	</g>
	<g>
		<path fill="#A4A4A4" d="M404.65,348.512h-0.04l-2.261,1.22l-0.34-1.34l2.84-1.521h1.5v13.003h-1.7V348.512z"/>
	</g>
	<g>
		<path fill="#A4A4A4" d="M779.491,353.233c0,4.421-1.66,6.861-4.521,6.861c-2.541,0-4.281-2.38-4.321-6.681
			c0-4.382,1.9-6.762,4.541-6.762C777.911,346.652,779.491,349.092,779.491,353.233z M772.43,353.433
			c0,3.381,1.04,5.301,2.641,5.301c1.78,0,2.641-2.1,2.641-5.421c0-3.2-0.8-5.301-2.641-5.301
			C773.55,348.012,772.43,349.892,772.43,353.433z"/>
	</g>
	<g>
		<path fill="#A4A4A4" d="M762.65,349.178h-0.04l-2.261,1.22l-0.34-1.34l2.84-1.521h1.5v13.003h-1.7V349.178z"/>
	</g>
</g>
</svg>
