<?xml version="1.0" encoding="utf-8"?>
<!-- Generator: Adobe Illustrator 16.0.4, SVG Export Plug-In . SVG Version: 6.00 Build 0)  -->
<!DOCTYPE svg PUBLIC "-//W3C//DTD SVG 1.1 Tiny//EN" "http://www.w3.org/Graphics/SVG/1.1/DTD/svg11-tiny.dtd">
<svg version="1.1" baseProfile="tiny" xmlns="http://www.w3.org/2000/svg" xmlns:xlink="http://www.w3.org/1999/xlink" x="0px"
	 y="0px" width="1909.274px" height="1305.131px" viewBox="0 0 1909.274 1305.131" xml:space="preserve">
<g id="Stafflines">
	
		<line fill="#FFFFFF" stroke="#ABABAB" stroke-width="24" stroke-miterlimit="10" x1="37.274" y1="179.252" x2="1861.274" y2="179.252"/>
	
		<line fill="#FFFFFF" stroke="#ABABAB" stroke-width="24" stroke-miterlimit="10" x1="37.274" y1="429.252" x2="1861.274" y2="429.252"/>
	
		<line fill="#FFFFFF" stroke="#ABABAB" stroke-width="24" stroke-miterlimit="10" x1="37.274" y1="679.252" x2="1861.274" y2="679.252"/>
	
		<line fill="#FFFFFF" stroke="#ABABAB" stroke-width="24" stroke-miterlimit="10" x1="37.274" y1="929.252" x2="1861.274" y2="929.252"/>
	
		<line fill="#FFFFFF" stroke="#ABABAB" stroke-width="24" stroke-miterlimit="10" x1="37.274" y1="1179.252" x2="1861.274" y2="1179.252"/>
</g>
<g id="Upstem_note">
	<path id="Head_1_" fill="none" stroke="#000000" stroke-width="4" stroke-miterlimit="10" d="M478.774,1195.752
		c100,0,223-93,223-188c0-57-45-94-110-94c-123,0-222,91-222,188C369.774,1160.752,417.774,1195.752,478.774,1195.752z"/>
	<path id="Flag_1_" fill="none" stroke="#000000" stroke-width="4" stroke-miterlimit="10" d="M936.68,926.845c4-5,7-59,7-105v-20
		c0-40-11-79-28-114c0-3-1-5-1-9c0-2,0-4,1-6c3-6,24-63,24-121c0-12-1-23-3-34c-10-65-34-91-103-165c-51-55-104-70-120-171
		c-2-10-13-12-19-12s-16,1-16,1v376h5c58,2,126,4,191,137c22,45,31,92,31,141c0,28-3,56-8,85c-1,3-1,5-1,8c0,13,7,21,13,23
		c3,1,5,2,8,2C924.68,942.845,930.68,938.845,936.68,926.845L936.68,926.845z M876.68,606.844c-15-24-31-43-51-65
		c-45-52-88-74-108-152c-1-1-1-2-1-3c0-4,6-9,13-9h8c58,0,109,53,140,99c17,25,26,54,26,85c0,6,0,12-1,19c-2,7-2,17-7,24
		c-1,3-7,6-12,6C880.68,610.844,878.68,609.844,876.68,606.844z"/>
	
		<rect id="Stem_1_" x="679.163" y="179.771" fill="none" stroke="#000000" stroke-width="4" stroke-miterlimit="10" width="22.611" height="827.981"/>
</g>
<g id="Downstem_note">
	<path id="Head_2_" fill="none" stroke="#000000" stroke-width="4" stroke-miterlimit="10" d="M1402.774,316.752
		c100,0,223-93,223-188c0-57-45-94-110-94c-123,0-222,91-222,188C1293.774,281.752,1341.774,316.752,1402.774,316.752z"/>
	
		<rect id="Stem_2_" x="1294.163" y="220.771" fill="none" stroke="#000000" stroke-width="4" stroke-miterlimit="10" width="22.611" height="827.981"/>
	
		<rect id="Stem_3_" x="1294.163" y="1049.562" fill="#BFBFBF" stroke="#000000" stroke-width="4" stroke-miterlimit="10" width="22.611" height="177.681"/>
	<path fill="none" stroke="#000000" stroke-width="4" stroke-miterlimit="10" d="M1567.274,397.752c0-50-17-113-21-120
		c-7-12-14-16-21-16c-2,0-4,0-6,1c-7,3-14,13-14,26c0,2,1,4,1,7c8,45,20,76,20,110c0,28-8,57-31,98c-76,136-140,138-201,140v589
		c0,0,6,13,12,13c7,0,20-11,21-20c17-104,74-120,126-177c70-76,94-104,105-168c2-9,2-19,2-29c0-43-13-87-22-114c10-18,16-38,20-62
		c2-13,3-26,3-39c0-52-16-95-20-105c0-3-3-6-3-9c0-2,1-4,3-7l4-7c13-25,18-36,22-100V397.752z M1333.274,805.752
		c21-80,67-102,112-155c20-23,36-42,52-67c2-3,5-4,8-4c5,0,11,3,12,6c3,7,3,15,5,23c1,8,2,17,2,25c0,30-10,59-27,84
		c-31,48-84,101-146,101h-5C1337.274,818.752,1333.274,810.752,1333.274,805.752L1333.274,805.752z M1523.274,830.752c1,7,3,13,3,21
		c0,13-4,29-16,50c-57,96-124,122-181,122c-2-1-2-2-2-3c17-104,74-120,126-177c24-26,42-46,56-64
		C1515.274,798.752,1520.274,819.752,1523.274,830.752z"/>
</g>
<g id="Annotations">
	<g>
		<path d="M722.801,1010.085c0.644,0.812,1.351,1.456,2.121,1.932c0.77,0.477,1.743,0.715,2.919,0.715
			c0.504,0,1.015-0.057,1.533-0.169c0.518-0.111,0.987-0.294,1.407-0.546c0.42-0.252,0.756-0.566,1.008-0.944
			s0.378-0.833,0.378-1.365c0-0.531-0.12-0.966-0.357-1.302c-0.238-0.336-0.553-0.623-0.945-0.861
			c-0.392-0.237-0.84-0.427-1.344-0.567c-0.504-0.14-1.022-0.266-1.554-0.378c-0.924-0.195-1.806-0.42-2.646-0.672
			c-0.84-0.252-1.575-0.58-2.205-0.986c-0.63-0.406-1.134-0.931-1.512-1.575c-0.378-0.644-0.567-1.471-0.567-2.479
			c0-0.951,0.21-1.791,0.63-2.52c0.42-0.728,0.98-1.33,1.68-1.807c0.699-0.476,1.483-0.84,2.352-1.092
			c0.868-0.252,1.764-0.378,2.688-0.378c1.4,0,2.695,0.28,3.885,0.84c1.19,0.561,2.121,1.471,2.793,2.73l-2.73,1.806
			c-0.42-0.699-0.973-1.267-1.659-1.701c-0.686-0.434-1.519-0.65-2.499-0.65c-0.448,0-0.903,0.057-1.365,0.168
			c-0.462,0.112-0.875,0.28-1.239,0.504c-0.364,0.225-0.665,0.511-0.903,0.861c-0.238,0.35-0.357,0.749-0.357,1.196
			c0,0.42,0.132,0.777,0.399,1.071c0.266,0.294,0.63,0.553,1.092,0.777c0.462,0.224,0.994,0.42,1.596,0.588
			c0.602,0.168,1.225,0.309,1.869,0.42c0.868,0.168,1.694,0.385,2.478,0.65c0.783,0.267,1.47,0.624,2.058,1.071
			c0.588,0.448,1.05,1.008,1.386,1.68c0.336,0.673,0.504,1.499,0.504,2.479c0,1.12-0.224,2.072-0.672,2.855
			c-0.448,0.785-1.043,1.422-1.785,1.911c-0.742,0.49-1.582,0.848-2.52,1.071c-0.938,0.224-1.897,0.336-2.877,0.336
			c-1.68,0-3.129-0.259-4.347-0.777c-1.218-0.518-2.317-1.477-3.297-2.877L722.801,1010.085z"/>
		<path d="M751.025,998.367h-5.796v9.828c0,0.645,0.014,1.238,0.042,1.784c0.028,0.547,0.14,1.022,0.336,1.429
			c0.196,0.406,0.49,0.729,0.882,0.966c0.392,0.238,0.951,0.357,1.68,0.357c0.476,0,0.966-0.057,1.47-0.169
			c0.504-0.111,0.979-0.279,1.428-0.504l0.126,2.982c-0.56,0.252-1.183,0.434-1.869,0.546c-0.687,0.111-1.337,0.168-1.953,0.168
			c-1.176,0-2.114-0.154-2.814-0.462c-0.7-0.308-1.246-0.741-1.638-1.302c-0.393-0.56-0.651-1.253-0.777-2.079
			s-0.189-1.743-0.189-2.751v-10.794h-4.284v-2.772h4.284v-5.586h3.276v5.586h5.796V998.367z"/>
		<path d="M772.613,1011.681c-1.176,1.513-2.464,2.569-3.864,3.171c-1.4,0.603-3.024,0.903-4.872,0.903
			c-1.541,0-2.926-0.272-4.158-0.819c-1.232-0.546-2.275-1.28-3.129-2.204c-0.854-0.925-1.512-2.017-1.974-3.276
			s-0.693-2.604-0.693-4.032c0-1.512,0.252-2.904,0.756-4.179s1.204-2.366,2.1-3.276c0.896-0.909,1.959-1.617,3.192-2.121
			c1.232-0.504,2.576-0.756,4.032-0.756c1.372,0,2.631,0.231,3.78,0.693c1.148,0.462,2.135,1.134,2.961,2.016
			c0.826,0.882,1.463,1.96,1.911,3.234c0.447,1.274,0.672,2.724,0.672,4.347v1.05h-15.876c0.056,0.84,0.259,1.646,0.609,2.415
			c0.35,0.771,0.805,1.442,1.365,2.017c0.56,0.574,1.218,1.028,1.974,1.364c0.756,0.336,1.582,0.505,2.478,0.505
			c1.428,0,2.631-0.253,3.612-0.757c0.98-0.504,1.862-1.245,2.646-2.226L772.613,1011.681z M769.799,1003.659
			c-0.057-1.681-0.603-3.024-1.638-4.032c-1.036-1.008-2.464-1.512-4.284-1.512c-1.821,0-3.291,0.504-4.41,1.512
			c-1.12,1.008-1.792,2.352-2.016,4.032H769.799z"/>
		<path d="M778.409,1000.257c0-0.896-0.028-1.735-0.084-2.52c-0.056-0.784-0.084-1.498-0.084-2.143h3.108
			c0,0.532,0.014,1.064,0.042,1.597s0.042,1.078,0.042,1.638h0.084c0.224-0.476,0.539-0.938,0.945-1.386
			c0.405-0.448,0.889-0.847,1.449-1.197c0.56-0.35,1.19-0.63,1.89-0.84c0.7-0.21,1.456-0.315,2.268-0.315
			c1.063,0,1.953,0.134,2.667,0.399c0.714,0.267,1.309,0.588,1.785,0.966c0.476,0.378,0.846,0.784,1.113,1.218
			c0.266,0.435,0.483,0.819,0.651,1.155c0.728-1.176,1.568-2.093,2.52-2.751c0.952-0.657,2.184-0.987,3.696-0.987
			c1.399,0,2.576,0.189,3.528,0.567c0.952,0.378,1.722,0.924,2.31,1.638s1.008,1.582,1.26,2.604s0.378,2.162,0.378,3.423v11.928
			h-3.276v-11.76c0-0.672-0.07-1.33-0.21-1.975c-0.14-0.644-0.393-1.218-0.756-1.722c-0.364-0.504-0.854-0.909-1.47-1.218
			c-0.616-0.308-1.4-0.462-2.352-0.462c-0.7,0-1.358,0.141-1.974,0.42c-0.616,0.28-1.155,0.672-1.617,1.176
			s-0.826,1.113-1.092,1.827c-0.267,0.714-0.399,1.505-0.399,2.373v11.34h-3.276v-11.13c0-2.185-0.294-3.73-0.882-4.642
			c-0.588-0.909-1.554-1.364-2.898-1.364c-1.064,0-1.981,0.183-2.751,0.546c-0.771,0.364-1.4,0.882-1.89,1.554
			c-0.49,0.672-0.854,1.47-1.092,2.395c-0.238,0.924-0.357,1.946-0.357,3.065v9.576h-3.276V1000.257z"/>
		<path d="M837.083,1003.911c0,1.624-0.204,3.164-0.609,4.62c-0.406,1.456-1.05,2.737-1.932,3.843
			c-0.882,1.106-2.037,1.988-3.465,2.646c-1.428,0.658-3.165,0.987-5.208,0.987c-2.044,0-3.78-0.329-5.208-0.987
			c-1.428-0.657-2.583-1.539-3.465-2.646c-0.882-1.105-1.526-2.387-1.932-3.843c-0.406-1.456-0.609-2.996-0.609-4.62v-18.396h3.528
			v17.893c0,1.204,0.126,2.366,0.378,3.485c0.252,1.121,0.672,2.115,1.26,2.982c0.588,0.868,1.372,1.562,2.352,2.079
			c0.98,0.519,2.212,0.777,3.696,0.777c1.483,0,2.715-0.259,3.696-0.777c0.98-0.518,1.764-1.211,2.352-2.079
			c0.588-0.867,1.008-1.861,1.26-2.982c0.252-1.119,0.378-2.281,0.378-3.485v-17.893h3.528V1003.911z"/>
		<path d="M843.592,995.595h3.276v2.856h0.084c0.896-1.064,1.939-1.891,3.129-2.479c1.189-0.588,2.499-0.882,3.927-0.882
			c1.54,0,2.947,0.26,4.221,0.777c1.273,0.519,2.358,1.239,3.255,2.163c0.896,0.924,1.596,2.016,2.1,3.275
			c0.504,1.261,0.756,2.633,0.756,4.116c0,1.484-0.252,2.856-0.756,4.116s-1.197,2.352-2.079,3.276
			c-0.882,0.924-1.925,1.645-3.129,2.162c-1.204,0.519-2.493,0.777-3.864,0.777c-1.764,0-3.312-0.385-4.641-1.155
			c-1.331-0.77-2.304-1.715-2.919-2.835h-0.084v13.062h-3.276V995.595z M846.868,1005.423c0,1.036,0.161,1.995,0.483,2.877
			c0.321,0.882,0.791,1.652,1.407,2.311c0.616,0.658,1.351,1.176,2.205,1.554c0.854,0.378,1.812,0.567,2.877,0.567
			c1.064,0,2.022-0.189,2.877-0.567c0.854-0.378,1.589-0.896,2.205-1.554c0.616-0.658,1.085-1.429,1.407-2.311
			s0.483-1.841,0.483-2.877c0-1.035-0.162-1.995-0.483-2.877s-0.791-1.651-1.407-2.31c-0.616-0.658-1.351-1.177-2.205-1.555
			c-0.854-0.378-1.813-0.566-2.877-0.566c-1.064,0-2.023,0.188-2.877,0.566c-0.854,0.378-1.589,0.896-2.205,1.555
			c-0.616,0.658-1.085,1.428-1.407,2.31C847.029,1003.428,846.868,1004.388,846.868,1005.423z"/>
		<path d="M884.122,990.765c-0.588-0.951-1.373-1.645-2.352-2.079c-0.98-0.434-2.002-0.65-3.066-0.65
			c-0.784,0-1.554,0.099-2.31,0.294c-0.756,0.196-1.435,0.49-2.037,0.882c-0.603,0.393-1.085,0.91-1.449,1.554
			c-0.364,0.645-0.546,1.4-0.546,2.269c0,0.672,0.105,1.267,0.315,1.785c0.21,0.518,0.553,0.986,1.029,1.406
			c0.476,0.42,1.12,0.812,1.932,1.177c0.812,0.364,1.806,0.729,2.982,1.092c1.147,0.364,2.261,0.756,3.339,1.176
			c1.078,0.42,2.03,0.952,2.856,1.596c0.826,0.645,1.484,1.449,1.974,2.415c0.489,0.966,0.735,2.178,0.735,3.633
			c0,1.485-0.294,2.772-0.882,3.864s-1.365,1.995-2.331,2.709c-0.966,0.714-2.079,1.246-3.339,1.597
			c-1.26,0.35-2.562,0.524-3.906,0.524c-0.868,0-1.736-0.077-2.604-0.23c-0.868-0.154-1.701-0.393-2.499-0.715
			c-0.798-0.321-1.547-0.741-2.247-1.26c-0.7-0.518-1.302-1.154-1.806-1.911l3.024-2.478c0.644,1.092,1.54,1.918,2.688,2.478
			c1.147,0.561,2.366,0.841,3.654,0.841c0.756,0,1.519-0.112,2.289-0.337c0.77-0.224,1.463-0.552,2.079-0.986
			c0.616-0.434,1.12-0.973,1.512-1.617c0.392-0.644,0.588-1.386,0.588-2.226c0-0.925-0.154-1.673-0.462-2.247
			s-0.784-1.071-1.428-1.491c-0.645-0.42-1.456-0.798-2.436-1.134c-0.98-0.336-2.128-0.729-3.444-1.177
			c-1.064-0.336-2.044-0.72-2.94-1.154c-0.896-0.435-1.674-0.967-2.331-1.597c-0.658-0.63-1.176-1.386-1.554-2.268
			s-0.567-1.938-0.567-3.171c0-1.428,0.279-2.674,0.84-3.738c0.56-1.063,1.316-1.953,2.268-2.667
			c0.952-0.714,2.03-1.253,3.234-1.617c1.204-0.363,2.464-0.546,3.78-0.546c1.68,0,3.213,0.26,4.599,0.777
			c1.386,0.519,2.625,1.421,3.717,2.709L884.122,990.765z"/>
		<path d="M893.362,985.515h18.69v3.276H896.89v9.324h14.154v3.275H896.89v10.584h15.918v3.276h-19.446V985.515z"/>
	</g>
	<g>
		<path d="M442.801,232.085c0.644,0.812,1.351,1.456,2.121,1.932c0.77,0.477,1.743,0.715,2.919,0.715
			c0.504,0,1.015-0.057,1.533-0.169c0.518-0.111,0.987-0.294,1.407-0.546c0.42-0.252,0.756-0.566,1.008-0.944
			s0.378-0.833,0.378-1.365c0-0.531-0.12-0.966-0.357-1.302c-0.238-0.336-0.553-0.623-0.945-0.861
			c-0.392-0.237-0.84-0.427-1.344-0.567c-0.504-0.14-1.022-0.266-1.554-0.378c-0.924-0.195-1.806-0.42-2.646-0.672
			c-0.84-0.252-1.575-0.58-2.205-0.986c-0.63-0.406-1.134-0.931-1.512-1.575c-0.378-0.644-0.567-1.471-0.567-2.479
			c0-0.951,0.21-1.791,0.63-2.52c0.42-0.728,0.98-1.33,1.68-1.807c0.699-0.476,1.483-0.84,2.352-1.092
			c0.868-0.252,1.764-0.378,2.688-0.378c1.4,0,2.695,0.28,3.885,0.84c1.19,0.561,2.121,1.471,2.793,2.73l-2.73,1.806
			c-0.42-0.699-0.973-1.267-1.659-1.701c-0.686-0.434-1.519-0.65-2.499-0.65c-0.448,0-0.903,0.057-1.365,0.168
			c-0.462,0.112-0.875,0.28-1.239,0.504c-0.364,0.225-0.665,0.511-0.903,0.861c-0.238,0.35-0.357,0.749-0.357,1.196
			c0,0.42,0.132,0.777,0.399,1.071c0.266,0.294,0.63,0.553,1.092,0.777c0.462,0.224,0.994,0.42,1.596,0.588
			c0.602,0.168,1.225,0.309,1.869,0.42c0.868,0.168,1.694,0.385,2.478,0.65c0.783,0.267,1.47,0.624,2.058,1.071
			c0.588,0.448,1.05,1.008,1.386,1.68c0.336,0.673,0.504,1.499,0.504,2.479c0,1.12-0.224,2.072-0.672,2.855
			c-0.448,0.785-1.043,1.422-1.785,1.911c-0.742,0.49-1.582,0.848-2.52,1.071c-0.938,0.224-1.897,0.336-2.877,0.336
			c-1.68,0-3.129-0.259-4.347-0.777c-1.218-0.518-2.317-1.477-3.297-2.877L442.801,232.085z"/>
		<path d="M471.025,220.367h-5.796v9.828c0,0.645,0.014,1.238,0.042,1.784c0.028,0.547,0.14,1.022,0.336,1.429
			c0.196,0.406,0.49,0.729,0.882,0.966c0.392,0.238,0.951,0.357,1.68,0.357c0.476,0,0.966-0.057,1.47-0.169
			c0.504-0.111,0.979-0.279,1.428-0.504l0.126,2.982c-0.56,0.252-1.183,0.434-1.869,0.546c-0.687,0.111-1.337,0.168-1.953,0.168
			c-1.176,0-2.114-0.154-2.814-0.462c-0.7-0.308-1.246-0.741-1.638-1.302c-0.393-0.56-0.651-1.253-0.777-2.079
			s-0.189-1.743-0.189-2.751v-10.794h-4.284v-2.772h4.284v-5.586h3.276v5.586h5.796V220.367z"/>
		<path d="M492.613,233.681c-1.176,1.513-2.464,2.569-3.864,3.171c-1.4,0.603-3.024,0.903-4.872,0.903
			c-1.541,0-2.926-0.272-4.158-0.819c-1.232-0.546-2.275-1.28-3.129-2.204c-0.854-0.925-1.512-2.017-1.974-3.276
			s-0.693-2.604-0.693-4.032c0-1.512,0.252-2.904,0.756-4.179s1.204-2.366,2.1-3.276c0.896-0.909,1.959-1.617,3.192-2.121
			c1.232-0.504,2.576-0.756,4.032-0.756c1.372,0,2.631,0.231,3.78,0.693c1.148,0.462,2.135,1.134,2.961,2.016
			c0.826,0.882,1.463,1.96,1.911,3.234c0.447,1.274,0.672,2.724,0.672,4.347v1.05h-15.876c0.056,0.84,0.259,1.646,0.609,2.415
			c0.35,0.771,0.805,1.442,1.365,2.017c0.56,0.574,1.218,1.028,1.974,1.364c0.756,0.336,1.582,0.505,2.478,0.505
			c1.428,0,2.631-0.253,3.612-0.757c0.98-0.504,1.862-1.245,2.646-2.226L492.613,233.681z M489.799,225.659
			c-0.057-1.681-0.603-3.024-1.638-4.032c-1.036-1.008-2.464-1.512-4.284-1.512c-1.821,0-3.291,0.504-4.41,1.512
			c-1.12,1.008-1.792,2.352-2.016,4.032H489.799z"/>
		<path d="M498.409,222.257c0-0.896-0.028-1.735-0.084-2.52c-0.056-0.784-0.084-1.498-0.084-2.143h3.108
			c0,0.532,0.014,1.064,0.042,1.597s0.042,1.078,0.042,1.638h0.084c0.224-0.476,0.539-0.938,0.945-1.386
			c0.405-0.448,0.889-0.847,1.449-1.197c0.56-0.35,1.19-0.63,1.89-0.84c0.7-0.21,1.456-0.315,2.268-0.315
			c1.063,0,1.953,0.134,2.667,0.399c0.714,0.267,1.309,0.588,1.785,0.966c0.476,0.378,0.846,0.784,1.113,1.218
			c0.266,0.435,0.483,0.819,0.651,1.155c0.728-1.176,1.568-2.093,2.52-2.751c0.952-0.657,2.184-0.987,3.696-0.987
			c1.399,0,2.576,0.189,3.528,0.567c0.952,0.378,1.722,0.924,2.31,1.638s1.008,1.582,1.26,2.604s0.378,2.162,0.378,3.423v11.928
			h-3.276v-11.76c0-0.672-0.07-1.33-0.21-1.975c-0.14-0.644-0.393-1.218-0.756-1.722c-0.364-0.504-0.854-0.909-1.47-1.218
			c-0.616-0.308-1.4-0.462-2.352-0.462c-0.7,0-1.358,0.141-1.974,0.42c-0.616,0.28-1.155,0.672-1.617,1.176
			s-0.826,1.113-1.092,1.827c-0.267,0.714-0.399,1.505-0.399,2.373v11.34h-3.276v-11.13c0-2.185-0.294-3.73-0.882-4.642
			c-0.588-0.909-1.554-1.364-2.898-1.364c-1.064,0-1.981,0.183-2.751,0.546c-0.771,0.364-1.4,0.882-1.89,1.554
			c-0.49,0.672-0.854,1.47-1.092,2.395c-0.238,0.924-0.357,1.946-0.357,3.065v9.576h-3.276V222.257z"/>
		<path d="M557.083,225.911c0,1.624-0.204,3.164-0.609,4.62c-0.406,1.456-1.05,2.737-1.932,3.843
			c-0.882,1.106-2.037,1.988-3.465,2.646c-1.428,0.658-3.165,0.987-5.208,0.987c-2.044,0-3.78-0.329-5.208-0.987
			c-1.428-0.657-2.583-1.539-3.465-2.646c-0.882-1.105-1.526-2.387-1.932-3.843c-0.406-1.456-0.609-2.996-0.609-4.62v-18.396h3.528
			v17.893c0,1.204,0.126,2.366,0.378,3.485c0.252,1.121,0.672,2.115,1.26,2.982c0.588,0.868,1.372,1.562,2.352,2.079
			c0.98,0.519,2.212,0.777,3.696,0.777c1.483,0,2.715-0.259,3.696-0.777c0.98-0.518,1.764-1.211,2.352-2.079
			c0.588-0.867,1.008-1.861,1.26-2.982c0.252-1.119,0.378-2.281,0.378-3.485v-17.893h3.528V225.911z"/>
		<path d="M563.592,217.595h3.276v2.856h0.084c0.896-1.064,1.939-1.891,3.129-2.479c1.189-0.588,2.499-0.882,3.927-0.882
			c1.54,0,2.947,0.26,4.221,0.777c1.273,0.519,2.358,1.239,3.255,2.163c0.896,0.924,1.596,2.016,2.1,3.275
			c0.504,1.261,0.756,2.633,0.756,4.116c0,1.484-0.252,2.856-0.756,4.116s-1.197,2.352-2.079,3.276
			c-0.882,0.924-1.925,1.645-3.129,2.162c-1.204,0.519-2.493,0.777-3.864,0.777c-1.764,0-3.312-0.385-4.641-1.155
			c-1.331-0.77-2.304-1.715-2.919-2.835h-0.084v13.062h-3.276V217.595z M566.868,227.423c0,1.036,0.161,1.995,0.483,2.877
			c0.321,0.882,0.791,1.652,1.407,2.311c0.616,0.658,1.351,1.176,2.205,1.554c0.854,0.378,1.812,0.567,2.877,0.567
			c1.064,0,2.022-0.189,2.877-0.567c0.854-0.378,1.589-0.896,2.205-1.554c0.616-0.658,1.085-1.429,1.407-2.311
			s0.483-1.841,0.483-2.877c0-1.035-0.162-1.995-0.483-2.877s-0.791-1.651-1.407-2.31c-0.616-0.658-1.351-1.177-2.205-1.555
			c-0.854-0.378-1.813-0.566-2.877-0.566c-1.064,0-2.023,0.188-2.877,0.566c-0.854,0.378-1.589,0.896-2.205,1.555
			c-0.616,0.658-1.085,1.428-1.407,2.31C567.029,225.428,566.868,226.388,566.868,227.423z"/>
		<path d="M590.01,207.515h4.452l17.22,24.696h0.084v-24.696h3.528v29.736h-4.452l-17.22-24.696h-0.084v24.696h-3.528V207.515z"/>
		<path d="M619.242,207.515h3.906l6.762,24.696h0.084l7.308-24.696h3.948l7.267,24.696h0.084l6.888-24.696h3.696l-8.736,29.736
			h-3.822l-7.35-25.2h-0.084l-7.392,25.2h-3.864L619.242,207.515z"/>
	</g>
	<g>
		<path d="M1006.801,1246.085c0.645,0.812,1.351,1.456,2.121,1.932c0.77,0.477,1.743,0.715,2.919,0.715
			c0.504,0,1.015-0.057,1.533-0.169c0.518-0.111,0.987-0.294,1.407-0.546s0.756-0.566,1.008-0.944s0.378-0.833,0.378-1.365
			c0-0.531-0.12-0.966-0.356-1.302c-0.238-0.336-0.554-0.623-0.945-0.861c-0.393-0.237-0.84-0.427-1.344-0.567
			c-0.504-0.14-1.023-0.266-1.555-0.378c-0.924-0.195-1.806-0.42-2.646-0.672c-0.84-0.252-1.574-0.58-2.205-0.986
			c-0.629-0.406-1.133-0.931-1.512-1.575c-0.377-0.644-0.566-1.471-0.566-2.479c0-0.951,0.21-1.791,0.63-2.52
			c0.42-0.728,0.979-1.33,1.681-1.807c0.699-0.476,1.482-0.84,2.352-1.092c0.867-0.252,1.764-0.378,2.688-0.378
			c1.4,0,2.695,0.28,3.885,0.84c1.19,0.561,2.121,1.471,2.793,2.73l-2.729,1.806c-0.42-0.699-0.974-1.267-1.659-1.701
			c-0.686-0.434-1.52-0.65-2.499-0.65c-0.448,0-0.903,0.057-1.364,0.168c-0.463,0.112-0.876,0.28-1.24,0.504
			c-0.363,0.225-0.664,0.511-0.902,0.861c-0.238,0.35-0.357,0.749-0.357,1.196c0,0.42,0.133,0.777,0.399,1.071
			c0.266,0.294,0.63,0.553,1.092,0.777c0.462,0.224,0.993,0.42,1.597,0.588c0.602,0.168,1.225,0.309,1.869,0.42
			c0.867,0.168,1.693,0.385,2.478,0.65c0.783,0.267,1.47,0.624,2.058,1.071c0.588,0.448,1.051,1.008,1.387,1.68
			c0.336,0.673,0.504,1.499,0.504,2.479c0,1.12-0.225,2.072-0.672,2.855c-0.449,0.785-1.044,1.422-1.785,1.911
			c-0.742,0.49-1.582,0.848-2.521,1.071s-1.897,0.336-2.877,0.336c-1.68,0-3.129-0.259-4.347-0.777
			c-1.219-0.518-2.317-1.477-3.297-2.877L1006.801,1246.085z"/>
		<path d="M1035.025,1234.367h-5.796v9.828c0,0.645,0.014,1.238,0.042,1.784c0.028,0.547,0.14,1.022,0.336,1.429
			s0.489,0.729,0.882,0.966c0.393,0.238,0.951,0.357,1.68,0.357c0.477,0,0.967-0.057,1.471-0.169
			c0.504-0.111,0.979-0.279,1.428-0.504l0.126,2.982c-0.56,0.252-1.183,0.434-1.868,0.546c-0.688,0.111-1.338,0.168-1.953,0.168
			c-1.177,0-2.115-0.154-2.814-0.462c-0.7-0.308-1.246-0.741-1.639-1.302c-0.393-0.56-0.65-1.253-0.776-2.079
			s-0.188-1.743-0.188-2.751v-10.794h-4.285v-2.772h4.285v-5.586h3.275v5.586h5.796V1234.367z"/>
		<path d="M1056.613,1247.681c-1.177,1.513-2.464,2.569-3.864,3.171c-1.4,0.603-3.023,0.903-4.871,0.903
			c-1.541,0-2.927-0.272-4.158-0.819c-1.232-0.546-2.275-1.28-3.129-2.204c-0.855-0.925-1.513-2.017-1.975-3.276
			s-0.693-2.604-0.693-4.032c0-1.512,0.252-2.904,0.756-4.179s1.204-2.366,2.101-3.276c0.896-0.909,1.96-1.617,3.192-2.121
			c1.231-0.504,2.575-0.756,4.031-0.756c1.372,0,2.632,0.231,3.78,0.693c1.147,0.462,2.135,1.134,2.961,2.016
			c0.825,0.882,1.463,1.96,1.911,3.234c0.447,1.274,0.672,2.724,0.672,4.347v1.05h-15.876c0.056,0.84,0.259,1.646,0.608,2.415
			c0.351,0.771,0.805,1.442,1.365,2.017s1.219,1.028,1.975,1.364s1.582,0.505,2.479,0.505c1.428,0,2.631-0.253,3.611-0.757
			s1.861-1.245,2.646-2.226L1056.613,1247.681z M1053.799,1239.659c-0.057-1.681-0.604-3.024-1.639-4.032
			c-1.036-1.008-2.465-1.512-4.283-1.512c-1.821,0-3.291,0.504-4.41,1.512c-1.121,1.008-1.793,2.352-2.017,4.032H1053.799z"/>
		<path d="M1062.409,1236.257c0-0.896-0.028-1.735-0.084-2.52c-0.057-0.784-0.084-1.498-0.084-2.143h3.107
			c0,0.532,0.015,1.064,0.043,1.597c0.027,0.532,0.041,1.078,0.041,1.638h0.084c0.225-0.476,0.539-0.938,0.945-1.386
			s0.889-0.847,1.449-1.197c0.561-0.35,1.189-0.63,1.891-0.84c0.699-0.21,1.455-0.315,2.268-0.315c1.063,0,1.953,0.134,2.667,0.399
			c0.714,0.267,1.309,0.588,1.785,0.966c0.476,0.378,0.847,0.784,1.112,1.218c0.266,0.435,0.483,0.819,0.651,1.155
			c0.728-1.176,1.567-2.093,2.521-2.751c0.951-0.657,2.184-0.987,3.695-0.987c1.4,0,2.576,0.189,3.528,0.567s1.722,0.924,2.31,1.638
			s1.008,1.582,1.26,2.604s0.379,2.162,0.379,3.423v11.928h-3.276v-11.76c0-0.672-0.07-1.33-0.21-1.975
			c-0.141-0.644-0.393-1.218-0.756-1.722c-0.364-0.504-0.854-0.909-1.471-1.218c-0.615-0.308-1.4-0.462-2.352-0.462
			c-0.7,0-1.358,0.141-1.974,0.42c-0.616,0.28-1.155,0.672-1.617,1.176s-0.826,1.113-1.092,1.827
			c-0.267,0.714-0.399,1.505-0.399,2.373v11.34h-3.275v-11.13c0-2.185-0.295-3.73-0.883-4.642c-0.588-0.909-1.554-1.364-2.897-1.364
			c-1.064,0-1.981,0.183-2.751,0.546c-0.771,0.364-1.4,0.882-1.891,1.554s-0.854,1.47-1.092,2.395
			c-0.238,0.924-0.357,1.946-0.357,3.065v9.576h-3.275V1236.257z"/>
		<path d="M1098.235,1221.515h11.424c0.979,0,2.016,0.112,3.107,0.336c1.092,0.225,2.178,0.582,3.256,1.071
			c1.077,0.49,2.113,1.128,3.107,1.911c0.994,0.784,1.869,1.729,2.625,2.835c0.756,1.106,1.357,2.38,1.807,3.822
			c0.447,1.442,0.672,3.073,0.672,4.893c0,1.82-0.225,3.451-0.672,4.894c-0.449,1.442-1.051,2.716-1.807,3.821
			c-0.756,1.106-1.631,2.052-2.625,2.835c-0.994,0.784-2.03,1.422-3.107,1.911c-1.078,0.49-2.164,0.848-3.256,1.071
			c-1.092,0.225-2.128,0.336-3.107,0.336h-11.424V1221.515z M1101.762,1247.975h6.721c1.707,0,3.289-0.224,4.746-0.672
			c1.455-0.447,2.715-1.141,3.779-2.079c1.064-0.938,1.904-2.135,2.52-3.591c0.616-1.455,0.925-3.206,0.925-5.25
			c0-2.043-0.309-3.794-0.925-5.25c-0.615-1.455-1.455-2.652-2.52-3.591c-1.064-0.938-2.324-1.631-3.779-2.079
			c-1.457-0.447-3.039-0.672-4.746-0.672h-6.721V1247.975z"/>
		<path d="M1128.18,1241.423c0-1.539,0.266-2.939,0.799-4.2c0.531-1.26,1.26-2.345,2.184-3.255c0.924-0.909,2.029-1.617,3.318-2.121
			c1.287-0.504,2.688-0.756,4.199-0.756s2.912,0.252,4.2,0.756s2.394,1.212,3.318,2.121c0.924,0.91,1.651,1.995,2.184,3.255
			c0.532,1.261,0.798,2.661,0.798,4.2c0,1.54-0.266,2.94-0.798,4.2s-1.26,2.346-2.184,3.255c-0.925,0.91-2.03,1.617-3.318,2.121
			s-2.688,0.756-4.2,0.756s-2.912-0.252-4.199-0.756c-1.289-0.504-2.395-1.211-3.318-2.121c-0.924-0.909-1.652-1.995-2.184-3.255
			C1128.446,1244.363,1128.18,1242.963,1128.18,1241.423z M1131.708,1241.423c0,1.036,0.161,1.995,0.483,2.877
			c0.321,0.882,0.791,1.652,1.406,2.311s1.352,1.176,2.205,1.554s1.812,0.567,2.877,0.567s2.023-0.189,2.877-0.567
			s1.59-0.896,2.205-1.554s1.085-1.429,1.407-2.311c0.321-0.882,0.483-1.841,0.483-2.877c0-1.035-0.162-1.995-0.483-2.877
			c-0.322-0.882-0.792-1.651-1.407-2.31s-1.352-1.177-2.205-1.555s-1.812-0.566-2.877-0.566s-2.023,0.188-2.877,0.566
			s-1.59,0.896-2.205,1.555s-1.085,1.428-1.406,2.31C1131.87,1239.428,1131.708,1240.388,1131.708,1241.423z"/>
		<path d="M1175.346,1251.251h-3.234l-5.586-15.12h-0.084l-4.955,15.12h-3.36l-6.384-19.656h3.611l4.494,15.12h0.084l5.082-15.12
			h3.444l5.166,15.12h0.084l4.452-15.12h3.527L1175.346,1251.251z"/>
		<path d="M1185.384,1236.257c0-0.896-0.028-1.735-0.084-2.52s-0.084-1.498-0.084-2.143h3.108c0,0.532,0.014,1.064,0.041,1.597
			c0.028,0.532,0.043,1.078,0.043,1.638h0.084c0.224-0.476,0.539-0.938,0.945-1.386c0.404-0.448,0.889-0.847,1.448-1.197
			c0.56-0.35,1.19-0.63,1.89-0.84c0.7-0.21,1.456-0.315,2.269-0.315c1.288,0,2.4,0.196,3.339,0.588
			c0.938,0.393,1.715,0.938,2.331,1.639s1.071,1.547,1.365,2.541s0.44,2.078,0.44,3.255v12.138h-3.275v-11.802
			c0-1.652-0.364-2.954-1.092-3.906c-0.729-0.951-1.863-1.428-3.402-1.428c-1.064,0-1.981,0.183-2.751,0.546
			c-0.771,0.364-1.4,0.882-1.89,1.554c-0.49,0.672-0.855,1.47-1.092,2.395c-0.238,0.924-0.357,1.946-0.357,3.065v9.576h-3.276
			V1236.257z"/>
		<path d="M1223.436,1226.765c-0.588-0.951-1.372-1.645-2.352-2.079c-0.98-0.434-2.002-0.65-3.066-0.65
			c-0.784,0-1.554,0.099-2.31,0.294c-0.756,0.196-1.436,0.49-2.037,0.882c-0.603,0.393-1.085,0.91-1.449,1.554
			c-0.364,0.645-0.546,1.4-0.546,2.269c0,0.672,0.105,1.267,0.315,1.785c0.21,0.518,0.553,0.986,1.028,1.406
			c0.477,0.42,1.12,0.812,1.933,1.177c0.812,0.364,1.806,0.729,2.981,1.092c1.148,0.364,2.261,0.756,3.339,1.176
			s2.03,0.952,2.856,1.596c0.825,0.645,1.483,1.449,1.974,2.415s0.735,2.178,0.735,3.633c0,1.485-0.294,2.772-0.882,3.864
			s-1.365,1.995-2.331,2.709s-2.079,1.246-3.339,1.597c-1.26,0.35-2.562,0.524-3.906,0.524c-0.868,0-1.736-0.077-2.604-0.23
			c-0.869-0.154-1.701-0.393-2.499-0.715c-0.799-0.321-1.548-0.741-2.247-1.26c-0.7-0.518-1.303-1.154-1.807-1.911l3.024-2.478
			c0.644,1.092,1.539,1.918,2.688,2.478c1.148,0.561,2.366,0.841,3.654,0.841c0.756,0,1.519-0.112,2.289-0.337
			c0.77-0.224,1.463-0.552,2.079-0.986c0.615-0.434,1.119-0.973,1.512-1.617c0.392-0.644,0.588-1.386,0.588-2.226
			c0-0.925-0.154-1.673-0.462-2.247c-0.309-0.574-0.784-1.071-1.428-1.491c-0.645-0.42-1.456-0.798-2.437-1.134
			c-0.979-0.336-2.128-0.729-3.443-1.177c-1.064-0.336-2.044-0.72-2.94-1.154s-1.673-0.967-2.331-1.597s-1.176-1.386-1.554-2.268
			s-0.567-1.938-0.567-3.171c0-1.428,0.28-2.674,0.841-3.738c0.56-1.063,1.315-1.953,2.268-2.667
			c0.951-0.714,2.03-1.253,3.234-1.617c1.203-0.363,2.463-0.546,3.779-0.546c1.681,0,3.213,0.26,4.6,0.777
			c1.386,0.519,2.625,1.421,3.717,2.709L1223.436,1226.765z"/>
		<path d="M1229.232,1221.515h3.906l6.762,24.696h0.084l7.308-24.696h3.948l7.267,24.696h0.084l6.888-24.696h3.696l-8.736,29.736
			h-3.822l-7.35-25.2h-0.084l-7.393,25.2h-3.863L1229.232,1221.515z"/>
	</g>
	<g>
		<path d="M70.801,1106.085c0.644,0.812,1.351,1.456,2.121,1.932c0.77,0.477,1.743,0.715,2.919,0.715
			c0.504,0,1.015-0.057,1.533-0.169c0.518-0.111,0.987-0.294,1.407-0.546c0.42-0.252,0.756-0.566,1.008-0.944
			s0.378-0.833,0.378-1.365c0-0.531-0.12-0.966-0.357-1.302c-0.238-0.336-0.553-0.623-0.945-0.861
			c-0.392-0.237-0.84-0.427-1.344-0.567c-0.504-0.14-1.022-0.266-1.554-0.378c-0.924-0.195-1.806-0.42-2.646-0.672
			c-0.84-0.252-1.575-0.58-2.205-0.986c-0.63-0.406-1.134-0.931-1.512-1.575c-0.378-0.644-0.567-1.471-0.567-2.479
			c0-0.951,0.21-1.791,0.63-2.52c0.42-0.728,0.98-1.33,1.68-1.807c0.699-0.476,1.483-0.84,2.352-1.092
			c0.868-0.252,1.764-0.378,2.688-0.378c1.4,0,2.695,0.28,3.885,0.84c1.19,0.561,2.121,1.471,2.793,2.73l-2.73,1.806
			c-0.42-0.699-0.973-1.267-1.659-1.701c-0.686-0.434-1.519-0.65-2.499-0.65c-0.448,0-0.903,0.057-1.365,0.168
			c-0.462,0.112-0.875,0.28-1.239,0.504c-0.364,0.225-0.665,0.511-0.903,0.861c-0.238,0.35-0.357,0.749-0.357,1.196
			c0,0.42,0.132,0.777,0.399,1.071c0.266,0.294,0.63,0.553,1.092,0.777c0.462,0.224,0.994,0.42,1.596,0.588
			c0.602,0.168,1.225,0.309,1.869,0.42c0.868,0.168,1.694,0.385,2.478,0.65c0.783,0.267,1.47,0.624,2.058,1.071
			c0.588,0.448,1.05,1.008,1.386,1.68c0.336,0.673,0.504,1.499,0.504,2.479c0,1.12-0.224,2.072-0.672,2.855
			c-0.448,0.785-1.043,1.422-1.785,1.911c-0.742,0.49-1.582,0.848-2.52,1.071c-0.938,0.224-1.897,0.336-2.877,0.336
			c-1.68,0-3.129-0.259-4.347-0.777c-1.218-0.518-2.317-1.477-3.297-2.877L70.801,1106.085z"/>
		<path d="M99.025,1094.367h-5.796v9.828c0,0.645,0.014,1.238,0.042,1.784c0.028,0.547,0.14,1.022,0.336,1.429
			c0.196,0.406,0.49,0.729,0.882,0.966c0.392,0.238,0.951,0.357,1.68,0.357c0.476,0,0.966-0.057,1.47-0.169
			c0.504-0.111,0.979-0.279,1.428-0.504l0.126,2.982c-0.56,0.252-1.183,0.434-1.869,0.546c-0.687,0.111-1.337,0.168-1.953,0.168
			c-1.176,0-2.114-0.154-2.814-0.462c-0.7-0.308-1.246-0.741-1.638-1.302c-0.393-0.56-0.651-1.253-0.777-2.079
			s-0.189-1.743-0.189-2.751v-10.794h-4.284v-2.772h4.284v-5.586h3.276v5.586h5.796V1094.367z"/>
		<path d="M120.613,1107.681c-1.176,1.513-2.464,2.569-3.864,3.171c-1.4,0.603-3.024,0.903-4.872,0.903
			c-1.541,0-2.926-0.272-4.158-0.819c-1.232-0.546-2.275-1.28-3.129-2.204c-0.854-0.925-1.512-2.017-1.974-3.276
			s-0.693-2.604-0.693-4.032c0-1.512,0.252-2.904,0.756-4.179s1.204-2.366,2.1-3.276c0.896-0.909,1.959-1.617,3.192-2.121
			c1.232-0.504,2.576-0.756,4.032-0.756c1.372,0,2.631,0.231,3.78,0.693c1.148,0.462,2.135,1.134,2.961,2.016
			c0.826,0.882,1.463,1.96,1.911,3.234c0.447,1.274,0.672,2.724,0.672,4.347v1.05h-15.876c0.056,0.84,0.259,1.646,0.609,2.415
			c0.35,0.771,0.805,1.442,1.365,2.017c0.56,0.574,1.218,1.028,1.974,1.364c0.756,0.336,1.582,0.505,2.478,0.505
			c1.428,0,2.631-0.253,3.612-0.757c0.98-0.504,1.862-1.245,2.646-2.226L120.613,1107.681z M117.799,1099.659
			c-0.057-1.681-0.603-3.024-1.638-4.032c-1.036-1.008-2.464-1.512-4.284-1.512c-1.821,0-3.291,0.504-4.41,1.512
			c-1.12,1.008-1.792,2.352-2.016,4.032H117.799z"/>
		<path d="M126.409,1096.257c0-0.896-0.028-1.735-0.084-2.52c-0.056-0.784-0.084-1.498-0.084-2.143h3.108
			c0,0.532,0.014,1.064,0.042,1.597s0.042,1.078,0.042,1.638h0.084c0.224-0.476,0.539-0.938,0.945-1.386
			c0.405-0.448,0.889-0.847,1.449-1.197c0.56-0.35,1.19-0.63,1.89-0.84c0.7-0.21,1.456-0.315,2.268-0.315
			c1.063,0,1.953,0.134,2.667,0.399c0.714,0.267,1.309,0.588,1.785,0.966c0.476,0.378,0.846,0.784,1.113,1.218
			c0.266,0.435,0.483,0.819,0.651,1.155c0.728-1.176,1.568-2.093,2.52-2.751c0.952-0.657,2.184-0.987,3.696-0.987
			c1.399,0,2.576,0.189,3.528,0.567c0.952,0.378,1.722,0.924,2.31,1.638s1.008,1.582,1.26,2.604s0.378,2.162,0.378,3.423v11.928
			h-3.276v-11.76c0-0.672-0.07-1.33-0.21-1.975c-0.14-0.644-0.393-1.218-0.756-1.722c-0.364-0.504-0.854-0.909-1.47-1.218
			c-0.616-0.308-1.4-0.462-2.352-0.462c-0.7,0-1.358,0.141-1.974,0.42c-0.616,0.28-1.155,0.672-1.617,1.176
			s-0.826,1.113-1.092,1.827c-0.267,0.714-0.399,1.505-0.399,2.373v11.34h-3.276v-11.13c0-2.185-0.294-3.73-0.882-4.642
			c-0.588-0.909-1.554-1.364-2.898-1.364c-1.064,0-1.981,0.183-2.751,0.546c-0.771,0.364-1.4,0.882-1.89,1.554
			c-0.49,0.672-0.854,1.47-1.092,2.395c-0.238,0.924-0.357,1.946-0.357,3.065v9.576h-3.276V1096.257z"/>
		<path d="M162.234,1081.515h11.424c0.979,0,2.016,0.112,3.108,0.336c1.092,0.225,2.177,0.582,3.255,1.071
			c1.078,0.49,2.114,1.128,3.108,1.911c0.994,0.784,1.869,1.729,2.625,2.835c0.756,1.106,1.358,2.38,1.806,3.822
			c0.447,1.442,0.672,3.073,0.672,4.893c0,1.82-0.225,3.451-0.672,4.894c-0.448,1.442-1.05,2.716-1.806,3.821
			c-0.756,1.106-1.631,2.052-2.625,2.835c-0.994,0.784-2.03,1.422-3.108,1.911c-1.078,0.49-2.163,0.848-3.255,1.071
			c-1.092,0.225-2.128,0.336-3.108,0.336h-11.424V1081.515z M165.763,1107.975h6.72c1.708,0,3.29-0.224,4.746-0.672
			c1.456-0.447,2.715-1.141,3.78-2.079c1.064-0.938,1.904-2.135,2.52-3.591c0.616-1.455,0.924-3.206,0.924-5.25
			c0-2.043-0.309-3.794-0.924-5.25c-0.616-1.455-1.456-2.652-2.52-3.591c-1.064-0.938-2.324-1.631-3.78-2.079
			c-1.456-0.447-3.039-0.672-4.746-0.672h-6.72V1107.975z"/>
		<path d="M192.181,1101.423c0-1.539,0.266-2.939,0.798-4.2c0.532-1.26,1.26-2.345,2.184-3.255c0.924-0.909,2.03-1.617,3.318-2.121
			c1.288-0.504,2.688-0.756,4.2-0.756c1.512,0,2.912,0.252,4.2,0.756c1.288,0.504,2.394,1.212,3.318,2.121
			c0.924,0.91,1.651,1.995,2.184,3.255c0.532,1.261,0.798,2.661,0.798,4.2c0,1.54-0.267,2.94-0.798,4.2
			c-0.532,1.26-1.26,2.346-2.184,3.255c-0.924,0.91-2.031,1.617-3.318,2.121c-1.288,0.504-2.688,0.756-4.2,0.756
			c-1.512,0-2.913-0.252-4.2-0.756c-1.288-0.504-2.394-1.211-3.318-2.121c-0.924-0.909-1.652-1.995-2.184-3.255
			C192.446,1104.363,192.181,1102.963,192.181,1101.423z M195.708,1101.423c0,1.036,0.161,1.995,0.483,2.877
			c0.322,0.882,0.791,1.652,1.407,2.311c0.615,0.658,1.351,1.176,2.205,1.554c0.854,0.378,1.812,0.567,2.877,0.567
			c1.063,0,2.022-0.189,2.877-0.567c0.854-0.378,1.589-0.896,2.205-1.554c0.615-0.658,1.084-1.429,1.407-2.311
			c0.322-0.882,0.483-1.841,0.483-2.877c0-1.035-0.161-1.995-0.483-2.877c-0.322-0.882-0.792-1.651-1.407-2.31
			c-0.616-0.658-1.352-1.177-2.205-1.555c-0.854-0.378-1.813-0.566-2.877-0.566c-1.064,0-2.023,0.188-2.877,0.566
			c-0.854,0.378-1.59,0.896-2.205,1.555c-0.616,0.658-1.085,1.428-1.407,2.31C195.869,1099.428,195.708,1100.388,195.708,1101.423z"
			/>
		<path d="M239.346,1111.251h-3.234l-5.586-15.12h-0.084l-4.956,15.12h-3.36l-6.384-19.656h3.612l4.494,15.12h0.084l5.082-15.12
			h3.444l5.166,15.12h0.084l4.452-15.12h3.528L239.346,1111.251z"/>
		<path d="M249.384,1096.257c0-0.896-0.028-1.735-0.084-2.52c-0.056-0.784-0.084-1.498-0.084-2.143h3.108
			c0,0.532,0.014,1.064,0.042,1.597s0.042,1.078,0.042,1.638h0.084c0.224-0.476,0.539-0.938,0.945-1.386
			c0.405-0.448,0.889-0.847,1.449-1.197c0.56-0.35,1.19-0.63,1.89-0.84c0.7-0.21,1.456-0.315,2.268-0.315
			c1.288,0,2.4,0.196,3.339,0.588c0.938,0.393,1.715,0.938,2.331,1.639c0.616,0.7,1.071,1.547,1.365,2.541
			c0.294,0.994,0.441,2.078,0.441,3.255v12.138h-3.276v-11.802c0-1.652-0.364-2.954-1.092-3.906
			c-0.729-0.951-1.862-1.428-3.402-1.428c-1.064,0-1.981,0.183-2.751,0.546c-0.771,0.364-1.4,0.882-1.89,1.554
			c-0.49,0.672-0.854,1.47-1.092,2.395c-0.238,0.924-0.357,1.946-0.357,3.065v9.576h-3.276V1096.257z"/>
		<path d="M273.325,1081.515h4.452l17.22,24.696h0.084v-24.696h3.528v29.736h-4.452l-17.221-24.696h-0.084v24.696h-3.527V1081.515z"
			/>
		<path d="M302.556,1081.515h3.906l6.762,24.696h0.084l7.308-24.696h3.948l7.267,24.696h0.084l6.888-24.696h3.696l-8.736,29.736
			h-3.822l-7.35-25.2h-0.084l-7.393,25.2h-3.863L302.556,1081.515z"/>
	</g>
	<g>
		<path d="M1658.801,129.085c0.645,0.812,1.351,1.456,2.121,1.932c0.77,0.477,1.743,0.715,2.919,0.715
			c0.504,0,1.015-0.057,1.533-0.169c0.518-0.111,0.987-0.294,1.407-0.546s0.756-0.566,1.008-0.944s0.378-0.833,0.378-1.365
			c0-0.531-0.12-0.966-0.356-1.302c-0.238-0.336-0.554-0.623-0.945-0.861c-0.393-0.237-0.84-0.427-1.344-0.567
			c-0.504-0.14-1.023-0.266-1.555-0.378c-0.924-0.195-1.806-0.42-2.646-0.672c-0.84-0.252-1.574-0.58-2.205-0.986
			c-0.629-0.406-1.133-0.931-1.512-1.575c-0.377-0.644-0.566-1.471-0.566-2.479c0-0.951,0.21-1.791,0.63-2.52
			c0.42-0.728,0.979-1.33,1.681-1.807c0.699-0.476,1.482-0.84,2.352-1.092c0.867-0.252,1.764-0.378,2.688-0.378
			c1.4,0,2.695,0.28,3.885,0.84c1.19,0.561,2.121,1.471,2.793,2.73l-2.729,1.806c-0.42-0.699-0.974-1.267-1.659-1.701
			c-0.686-0.434-1.52-0.65-2.499-0.65c-0.448,0-0.903,0.057-1.364,0.168c-0.463,0.112-0.876,0.28-1.24,0.504
			c-0.363,0.225-0.664,0.511-0.902,0.861c-0.238,0.35-0.357,0.749-0.357,1.196c0,0.42,0.133,0.777,0.399,1.071
			c0.266,0.294,0.63,0.553,1.092,0.777c0.462,0.224,0.993,0.42,1.597,0.588c0.602,0.168,1.225,0.309,1.869,0.42
			c0.867,0.168,1.693,0.385,2.478,0.65c0.783,0.267,1.47,0.624,2.058,1.071c0.588,0.448,1.051,1.008,1.387,1.68
			c0.336,0.673,0.504,1.499,0.504,2.479c0,1.12-0.225,2.072-0.672,2.855c-0.449,0.785-1.044,1.422-1.785,1.911
			c-0.742,0.49-1.582,0.848-2.521,1.071s-1.897,0.336-2.877,0.336c-1.68,0-3.129-0.259-4.347-0.777
			c-1.219-0.518-2.317-1.477-3.297-2.877L1658.801,129.085z"/>
		<path d="M1687.025,117.367h-5.796v9.828c0,0.645,0.014,1.238,0.042,1.784c0.028,0.547,0.14,1.022,0.336,1.429
			s0.489,0.729,0.882,0.966c0.393,0.238,0.951,0.357,1.68,0.357c0.477,0,0.967-0.057,1.471-0.169
			c0.504-0.111,0.979-0.279,1.428-0.504l0.126,2.982c-0.56,0.252-1.183,0.434-1.868,0.546c-0.688,0.111-1.338,0.168-1.953,0.168
			c-1.177,0-2.115-0.154-2.814-0.462c-0.7-0.308-1.246-0.741-1.639-1.302c-0.393-0.56-0.65-1.253-0.776-2.079
			s-0.188-1.743-0.188-2.751v-10.794h-4.285v-2.772h4.285v-5.586h3.275v5.586h5.796V117.367z"/>
		<path d="M1708.613,130.681c-1.177,1.513-2.464,2.569-3.864,3.171c-1.4,0.603-3.023,0.903-4.871,0.903
			c-1.541,0-2.927-0.272-4.158-0.819c-1.232-0.546-2.275-1.28-3.129-2.204c-0.855-0.925-1.513-2.017-1.975-3.276
			s-0.693-2.604-0.693-4.032c0-1.512,0.252-2.904,0.756-4.179s1.204-2.366,2.101-3.276c0.896-0.909,1.96-1.617,3.192-2.121
			c1.231-0.504,2.575-0.756,4.031-0.756c1.372,0,2.632,0.231,3.78,0.693c1.147,0.462,2.135,1.134,2.961,2.016
			c0.825,0.882,1.463,1.96,1.911,3.234c0.447,1.274,0.672,2.724,0.672,4.347v1.05h-15.876c0.056,0.84,0.259,1.646,0.608,2.415
			c0.351,0.771,0.805,1.442,1.365,2.017s1.219,1.028,1.975,1.364s1.582,0.505,2.479,0.505c1.428,0,2.631-0.253,3.611-0.757
			s1.861-1.245,2.646-2.226L1708.613,130.681z M1705.799,122.659c-0.057-1.681-0.604-3.024-1.639-4.032
			c-1.036-1.008-2.465-1.512-4.283-1.512c-1.821,0-3.291,0.504-4.41,1.512c-1.121,1.008-1.793,2.352-2.017,4.032H1705.799z"/>
		<path d="M1714.409,119.257c0-0.896-0.028-1.735-0.084-2.52c-0.057-0.784-0.084-1.498-0.084-2.143h3.107
			c0,0.532,0.015,1.064,0.043,1.597c0.027,0.532,0.041,1.078,0.041,1.638h0.084c0.225-0.476,0.539-0.938,0.945-1.386
			s0.889-0.847,1.449-1.197c0.561-0.35,1.189-0.63,1.891-0.84c0.699-0.21,1.455-0.315,2.268-0.315c1.063,0,1.953,0.134,2.667,0.399
			c0.714,0.267,1.309,0.588,1.785,0.966c0.476,0.378,0.847,0.784,1.112,1.218c0.266,0.435,0.483,0.819,0.651,1.155
			c0.728-1.176,1.567-2.093,2.521-2.751c0.951-0.657,2.184-0.987,3.695-0.987c1.4,0,2.576,0.189,3.528,0.567s1.722,0.924,2.31,1.638
			s1.008,1.582,1.26,2.604s0.379,2.162,0.379,3.423v11.928h-3.276v-11.76c0-0.672-0.07-1.33-0.21-1.975
			c-0.141-0.644-0.393-1.218-0.756-1.722c-0.364-0.504-0.854-0.909-1.471-1.218c-0.615-0.308-1.4-0.462-2.352-0.462
			c-0.7,0-1.358,0.141-1.974,0.42c-0.616,0.28-1.155,0.672-1.617,1.176s-0.826,1.113-1.092,1.827
			c-0.267,0.714-0.399,1.505-0.399,2.373v11.34h-3.275v-11.13c0-2.185-0.295-3.73-0.883-4.642c-0.588-0.909-1.554-1.364-2.897-1.364
			c-1.064,0-1.981,0.183-2.751,0.546c-0.771,0.364-1.4,0.882-1.891,1.554s-0.854,1.47-1.092,2.395
			c-0.238,0.924-0.357,1.946-0.357,3.065v9.576h-3.275V119.257z"/>
		<path d="M1773.083,122.911c0,1.624-0.203,3.164-0.609,4.62s-1.05,2.737-1.932,3.843c-0.882,1.106-2.037,1.988-3.465,2.646
			c-1.428,0.658-3.164,0.987-5.208,0.987s-3.78-0.329-5.208-0.987c-1.428-0.657-2.583-1.539-3.465-2.646
			c-0.883-1.105-1.527-2.387-1.932-3.843c-0.406-1.456-0.609-2.996-0.609-4.62v-18.396h3.527v17.893
			c0,1.204,0.127,2.366,0.379,3.485c0.252,1.121,0.672,2.115,1.26,2.982c0.588,0.868,1.371,1.562,2.352,2.079
			c0.98,0.519,2.212,0.777,3.696,0.777c1.483,0,2.716-0.259,3.696-0.777c0.979-0.518,1.764-1.211,2.352-2.079
			c0.588-0.867,1.008-1.861,1.26-2.982c0.252-1.119,0.379-2.281,0.379-3.485v-17.893h3.527V122.911z"/>
		<path d="M1779.592,114.595h3.275v2.856h0.084c0.896-1.064,1.939-1.891,3.13-2.479c1.189-0.588,2.499-0.882,3.927-0.882
			c1.539,0,2.947,0.26,4.221,0.777c1.273,0.519,2.359,1.239,3.256,2.163c0.895,0.924,1.596,2.016,2.1,3.275
			c0.504,1.261,0.756,2.633,0.756,4.116c0,1.484-0.252,2.856-0.756,4.116s-1.197,2.352-2.079,3.276
			c-0.882,0.924-1.925,1.645-3.129,2.162c-1.204,0.519-2.493,0.777-3.864,0.777c-1.764,0-3.312-0.385-4.641-1.155
			c-1.33-0.77-2.304-1.715-2.92-2.835h-0.084v13.062h-3.275V114.595z M1782.868,124.423c0,1.036,0.162,1.995,0.484,2.877
			c0.32,0.882,0.79,1.652,1.406,2.311c0.615,0.658,1.351,1.176,2.205,1.554c0.854,0.378,1.812,0.567,2.877,0.567
			s2.022-0.189,2.877-0.567c0.854-0.378,1.589-0.896,2.205-1.554c0.615-0.658,1.085-1.429,1.406-2.311
			c0.322-0.882,0.484-1.841,0.484-2.877c0-1.035-0.162-1.995-0.484-2.877c-0.321-0.882-0.791-1.651-1.406-2.31
			c-0.616-0.658-1.352-1.177-2.205-1.555c-0.854-0.378-1.812-0.566-2.877-0.566s-2.023,0.188-2.877,0.566
			c-0.854,0.378-1.59,0.896-2.205,1.555c-0.616,0.658-1.086,1.428-1.406,2.31C1783.03,122.428,1782.868,123.388,1782.868,124.423z"
			/>
		<path d="M1820.122,109.765c-0.588-0.951-1.372-1.645-2.352-2.079c-0.98-0.434-2.002-0.65-3.066-0.65
			c-0.783,0-1.554,0.099-2.31,0.294c-0.756,0.196-1.435,0.49-2.037,0.882c-0.603,0.393-1.085,0.91-1.448,1.554
			c-0.365,0.645-0.547,1.4-0.547,2.269c0,0.672,0.105,1.267,0.314,1.785c0.211,0.518,0.553,0.986,1.029,1.406
			s1.12,0.812,1.933,1.177c0.812,0.364,1.806,0.729,2.981,1.092c1.148,0.364,2.262,0.756,3.34,1.176
			c1.077,0.42,2.029,0.952,2.855,1.596c0.826,0.645,1.484,1.449,1.975,2.415c0.488,0.966,0.734,2.178,0.734,3.633
			c0,1.485-0.294,2.772-0.882,3.864s-1.365,1.995-2.331,2.709c-0.967,0.714-2.079,1.246-3.339,1.597
			c-1.261,0.35-2.562,0.524-3.906,0.524c-0.868,0-1.736-0.077-2.604-0.23c-0.867-0.154-1.701-0.393-2.498-0.715
			c-0.799-0.321-1.548-0.741-2.248-1.26c-0.699-0.518-1.301-1.154-1.805-1.911l3.023-2.478c0.644,1.092,1.539,1.918,2.688,2.478
			c1.148,0.561,2.366,0.841,3.654,0.841c0.756,0,1.519-0.112,2.289-0.337c0.77-0.224,1.463-0.552,2.079-0.986
			c0.616-0.434,1.12-0.973,1.512-1.617c0.392-0.644,0.589-1.386,0.589-2.226c0-0.925-0.154-1.673-0.463-2.247
			s-0.784-1.071-1.428-1.491c-0.645-0.42-1.456-0.798-2.436-1.134c-0.98-0.336-2.129-0.729-3.444-1.177
			c-1.064-0.336-2.044-0.72-2.94-1.154s-1.674-0.967-2.33-1.597c-0.658-0.63-1.177-1.386-1.555-2.268s-0.566-1.938-0.566-3.171
			c0-1.428,0.279-2.674,0.84-3.738c0.56-1.063,1.315-1.953,2.268-2.667c0.951-0.714,2.029-1.253,3.234-1.617
			c1.203-0.363,2.463-0.546,3.779-0.546c1.68,0,3.213,0.26,4.6,0.777c1.386,0.519,2.625,1.421,3.717,2.709L1820.122,109.765z"/>
		<path d="M1829.362,104.515h18.69v3.276h-15.162v9.324h14.153v3.275h-14.153v10.584h15.918v3.276h-19.446V104.515z"/>
	</g>
	<g>
		<path d="M995.801,225.085c0.645,0.812,1.351,1.456,2.121,1.932c0.77,0.477,1.743,0.715,2.919,0.715
			c0.504,0,1.015-0.057,1.533-0.169c0.518-0.111,0.987-0.294,1.407-0.546s0.756-0.566,1.008-0.944s0.378-0.833,0.378-1.365
			c0-0.531-0.12-0.966-0.356-1.302c-0.238-0.336-0.554-0.623-0.945-0.861c-0.393-0.237-0.84-0.427-1.344-0.567
			c-0.504-0.14-1.023-0.266-1.555-0.378c-0.924-0.195-1.806-0.42-2.646-0.672c-0.84-0.252-1.574-0.58-2.205-0.986
			c-0.629-0.406-1.133-0.931-1.512-1.575c-0.377-0.644-0.566-1.471-0.566-2.479c0-0.951,0.21-1.791,0.63-2.52
			c0.42-0.728,0.979-1.33,1.681-1.807c0.699-0.476,1.482-0.84,2.352-1.092c0.867-0.252,1.764-0.378,2.688-0.378
			c1.4,0,2.695,0.28,3.885,0.84c1.19,0.561,2.121,1.471,2.793,2.73l-2.729,1.806c-0.42-0.699-0.974-1.267-1.659-1.701
			c-0.686-0.434-1.52-0.65-2.499-0.65c-0.448,0-0.903,0.057-1.364,0.168c-0.463,0.112-0.876,0.28-1.24,0.504
			c-0.363,0.225-0.664,0.511-0.902,0.861c-0.238,0.35-0.357,0.749-0.357,1.196c0,0.42,0.133,0.777,0.399,1.071
			c0.266,0.294,0.63,0.553,1.092,0.777c0.462,0.224,0.993,0.42,1.597,0.588c0.602,0.168,1.225,0.309,1.869,0.42
			c0.867,0.168,1.693,0.385,2.478,0.65c0.783,0.267,1.47,0.624,2.058,1.071c0.588,0.448,1.051,1.008,1.387,1.68
			c0.336,0.673,0.504,1.499,0.504,2.479c0,1.12-0.225,2.072-0.672,2.855c-0.449,0.785-1.044,1.422-1.785,1.911
			c-0.742,0.49-1.582,0.848-2.521,1.071s-1.897,0.336-2.877,0.336c-1.68,0-3.129-0.259-4.347-0.777
			c-1.219-0.518-2.317-1.477-3.297-2.877L995.801,225.085z"/>
		<path d="M1024.025,213.367h-5.796v9.828c0,0.645,0.014,1.238,0.042,1.784c0.028,0.547,0.14,1.022,0.336,1.429
			s0.489,0.729,0.882,0.966c0.393,0.238,0.951,0.357,1.68,0.357c0.477,0,0.967-0.057,1.471-0.169
			c0.504-0.111,0.979-0.279,1.428-0.504l0.126,2.982c-0.56,0.252-1.183,0.434-1.868,0.546c-0.688,0.111-1.338,0.168-1.953,0.168
			c-1.177,0-2.115-0.154-2.814-0.462c-0.7-0.308-1.246-0.741-1.639-1.302c-0.393-0.56-0.65-1.253-0.776-2.079
			s-0.188-1.743-0.188-2.751v-10.794h-4.285v-2.772h4.285v-5.586h3.275v5.586h5.796V213.367z"/>
		<path d="M1045.613,226.681c-1.177,1.513-2.464,2.569-3.864,3.171c-1.4,0.603-3.023,0.903-4.871,0.903
			c-1.541,0-2.927-0.272-4.158-0.819c-1.232-0.546-2.275-1.28-3.129-2.204c-0.855-0.925-1.513-2.017-1.975-3.276
			s-0.693-2.604-0.693-4.032c0-1.512,0.252-2.904,0.756-4.179s1.204-2.366,2.101-3.276c0.896-0.909,1.96-1.617,3.192-2.121
			c1.231-0.504,2.575-0.756,4.031-0.756c1.372,0,2.632,0.231,3.78,0.693c1.147,0.462,2.135,1.134,2.961,2.016
			c0.825,0.882,1.463,1.96,1.911,3.234c0.447,1.274,0.672,2.724,0.672,4.347v1.05h-15.876c0.056,0.84,0.259,1.646,0.608,2.415
			c0.351,0.771,0.805,1.442,1.365,2.017s1.219,1.028,1.975,1.364s1.582,0.505,2.479,0.505c1.428,0,2.631-0.253,3.611-0.757
			s1.861-1.245,2.646-2.226L1045.613,226.681z M1042.799,218.659c-0.057-1.681-0.604-3.024-1.639-4.032
			c-1.036-1.008-2.465-1.512-4.283-1.512c-1.821,0-3.291,0.504-4.41,1.512c-1.121,1.008-1.793,2.352-2.017,4.032H1042.799z"/>
		<path d="M1051.409,215.257c0-0.896-0.028-1.735-0.084-2.52c-0.057-0.784-0.084-1.498-0.084-2.143h3.107
			c0,0.532,0.015,1.064,0.043,1.597c0.027,0.532,0.041,1.078,0.041,1.638h0.084c0.225-0.476,0.539-0.938,0.945-1.386
			s0.889-0.847,1.449-1.197c0.561-0.35,1.189-0.63,1.891-0.84c0.699-0.21,1.455-0.315,2.268-0.315c1.063,0,1.953,0.134,2.667,0.399
			c0.714,0.267,1.309,0.588,1.785,0.966c0.476,0.378,0.847,0.784,1.112,1.218c0.266,0.435,0.483,0.819,0.651,1.155
			c0.728-1.176,1.567-2.093,2.521-2.751c0.951-0.657,2.184-0.987,3.695-0.987c1.4,0,2.576,0.189,3.528,0.567s1.722,0.924,2.31,1.638
			s1.008,1.582,1.26,2.604s0.379,2.162,0.379,3.423v11.928h-3.276v-11.76c0-0.672-0.07-1.33-0.21-1.975
			c-0.141-0.644-0.393-1.218-0.756-1.722c-0.364-0.504-0.854-0.909-1.471-1.218c-0.615-0.308-1.4-0.462-2.352-0.462
			c-0.7,0-1.358,0.141-1.974,0.42c-0.616,0.28-1.155,0.672-1.617,1.176s-0.826,1.113-1.092,1.827
			c-0.267,0.714-0.399,1.505-0.399,2.373v11.34h-3.275v-11.13c0-2.185-0.295-3.73-0.883-4.642c-0.588-0.909-1.554-1.364-2.897-1.364
			c-1.064,0-1.981,0.183-2.751,0.546c-0.771,0.364-1.4,0.882-1.891,1.554s-0.854,1.47-1.092,2.395
			c-0.238,0.924-0.357,1.946-0.357,3.065v9.576h-3.275V215.257z"/>
		<path d="M1087.235,200.515h11.424c0.979,0,2.016,0.112,3.107,0.336c1.092,0.225,2.178,0.582,3.256,1.071
			c1.077,0.49,2.113,1.128,3.107,1.911c0.994,0.784,1.869,1.729,2.625,2.835c0.756,1.106,1.357,2.38,1.807,3.822
			c0.447,1.442,0.672,3.073,0.672,4.893c0,1.82-0.225,3.451-0.672,4.894c-0.449,1.442-1.051,2.716-1.807,3.821
			c-0.756,1.106-1.631,2.052-2.625,2.835c-0.994,0.784-2.03,1.422-3.107,1.911c-1.078,0.49-2.164,0.848-3.256,1.071
			c-1.092,0.225-2.128,0.336-3.107,0.336h-11.424V200.515z M1090.762,226.975h6.721c1.707,0,3.289-0.224,4.746-0.672
			c1.455-0.447,2.715-1.141,3.779-2.079c1.064-0.938,1.904-2.135,2.52-3.591c0.616-1.455,0.925-3.206,0.925-5.25
			c0-2.043-0.309-3.794-0.925-5.25c-0.615-1.455-1.455-2.652-2.52-3.591c-1.064-0.938-2.324-1.631-3.779-2.079
			c-1.457-0.447-3.039-0.672-4.746-0.672h-6.721V226.975z"/>
		<path d="M1117.18,220.423c0-1.539,0.266-2.939,0.799-4.2c0.531-1.26,1.26-2.345,2.184-3.255c0.924-0.909,2.029-1.617,3.318-2.121
			c1.287-0.504,2.688-0.756,4.199-0.756s2.912,0.252,4.2,0.756s2.394,1.212,3.318,2.121c0.924,0.91,1.651,1.995,2.184,3.255
			c0.532,1.261,0.798,2.661,0.798,4.2c0,1.54-0.266,2.94-0.798,4.2s-1.26,2.346-2.184,3.255c-0.925,0.91-2.03,1.617-3.318,2.121
			s-2.688,0.756-4.2,0.756s-2.912-0.252-4.199-0.756c-1.289-0.504-2.395-1.211-3.318-2.121c-0.924-0.909-1.652-1.995-2.184-3.255
			C1117.446,223.363,1117.18,221.963,1117.18,220.423z M1120.708,220.423c0,1.036,0.161,1.995,0.483,2.877
			c0.321,0.882,0.791,1.652,1.406,2.311s1.352,1.176,2.205,1.554s1.812,0.567,2.877,0.567s2.023-0.189,2.877-0.567
			s1.59-0.896,2.205-1.554s1.085-1.429,1.407-2.311c0.321-0.882,0.483-1.841,0.483-2.877c0-1.035-0.162-1.995-0.483-2.877
			c-0.322-0.882-0.792-1.651-1.407-2.31s-1.352-1.177-2.205-1.555s-1.812-0.566-2.877-0.566s-2.023,0.188-2.877,0.566
			s-1.59,0.896-2.205,1.555s-1.085,1.428-1.406,2.31C1120.87,218.428,1120.708,219.388,1120.708,220.423z"/>
		<path d="M1164.346,230.251h-3.234l-5.586-15.12h-0.084l-4.955,15.12h-3.36l-6.384-19.656h3.611l4.494,15.12h0.084l5.082-15.12
			h3.444l5.166,15.12h0.084l4.452-15.12h3.527L1164.346,230.251z"/>
		<path d="M1174.384,215.257c0-0.896-0.028-1.735-0.084-2.52s-0.084-1.498-0.084-2.143h3.108c0,0.532,0.014,1.064,0.041,1.597
			c0.028,0.532,0.043,1.078,0.043,1.638h0.084c0.224-0.476,0.539-0.938,0.945-1.386c0.404-0.448,0.889-0.847,1.448-1.197
			c0.56-0.35,1.19-0.63,1.89-0.84c0.7-0.21,1.456-0.315,2.269-0.315c1.288,0,2.4,0.196,3.339,0.588
			c0.938,0.393,1.715,0.938,2.331,1.639s1.071,1.547,1.365,2.541s0.44,2.078,0.44,3.255v12.138h-3.275v-11.802
			c0-1.652-0.364-2.954-1.092-3.906c-0.729-0.951-1.863-1.428-3.402-1.428c-1.064,0-1.981,0.183-2.751,0.546
			c-0.771,0.364-1.4,0.882-1.89,1.554c-0.49,0.672-0.855,1.47-1.092,2.395c-0.238,0.924-0.357,1.946-0.357,3.065v9.576h-3.276
			V215.257z"/>
		<path d="M1198.325,200.515h4.452l17.22,24.696h0.084v-24.696h3.528v29.736h-4.452l-17.221-24.696h-0.084v24.696h-3.527V200.515z"
			/>
		<path d="M1227.556,200.515h3.906l6.762,24.696h0.084l7.308-24.696h3.948l7.267,24.696h0.084l6.888-24.696h3.696l-8.736,29.736
			h-3.822l-7.35-25.2h-0.084l-7.393,25.2h-3.863L1227.556,200.515z"/>
	</g>
	<g>
		<rect x="369.774" y="913.752" fill="none" stroke="#68CEF6" stroke-width="2" stroke-miterlimit="10" width="332" height="282"/>
		
			<line fill="none" stroke="#68CEF6" stroke-width="2" stroke-miterlimit="10" x1="369.774" y1="1054.752" x2="701.774" y2="1054.752"/>
	</g>
	<g>
		
			<rect x="1293.856" y="34.664" fill="none" stroke="#68CEF6" stroke-width="2" stroke-miterlimit="10" width="332.001" height="284"/>
		
			<line fill="none" stroke="#68CEF6" stroke-width="2" stroke-miterlimit="10" x1="1293.856" y1="177.678" x2="1625.857" y2="177.678"/>
	</g>
	
		<rect x="1294.163" y="261.252" fill="none" stroke="#68CEF6" stroke-width="2" stroke-miterlimit="10" width="273.111" height="984.979"/>
	
		<line fill="none" stroke="#68CEF6" stroke-width="2" stroke-miterlimit="10" x1="1294.163" y1="1048.752" x2="1566.608" y2="1048.752"/>
	
		<rect x="678.68" y="168.844" fill="none" stroke="#68CEF6" stroke-width="2" stroke-miterlimit="10" width="266.182" height="773.986"/>
	
		<line fill="none" stroke="#68CEF6" stroke-width="2" stroke-miterlimit="10" x1="679.274" y1="180.252" x2="944.774" y2="180.252"/>
	
		<rect x="693.274" y="1000.585" fill="none" stroke="#BE1E2D" stroke-width="4" stroke-miterlimit="10" width="16.667" height="16.667"/>
	
		<rect x="360.607" y="1093.585" fill="none" stroke="#BE1E2D" stroke-width="4" stroke-miterlimit="10" width="16.667" height="16.667"/>
	
		<rect x="670.94" y="171.919" fill="none" stroke="#BE1E2D" stroke-width="4" stroke-miterlimit="10" width="16.667" height="16.667"/>
	
		<rect x="1619.274" y="119.585" fill="none" stroke="#BE1E2D" stroke-width="4" stroke-miterlimit="10" width="16.666" height="16.667"/>
	
		<rect x="1286.608" y="212.585" fill="none" stroke="#BE1E2D" stroke-width="4" stroke-miterlimit="10" width="16.666" height="16.667"/>
	
		<rect x="1286.019" y="1215.984" fill="none" stroke="#BE1E2D" stroke-width="4" stroke-miterlimit="10" width="16.666" height="16.668"/>
</g>
</svg>
